<?xml version="1.0" standalone="no"?>
<!DOCTYPE svg PUBLIC "-//W3C//DTD SVG 1.1//EN" "http://www.w3.org/Graphics/SVG/1.1/DTD/svg11.dtd" >
<svg xmlns="http://www.w3.org/2000/svg" xmlns:xlink="http://www.w3.org/1999/xlink" version="1.1">
<metadata>
Created by FontForge 20170731 at Wed Apr 19 01:04:48 2023
 By Aleksey,,,
(c) 2008-2017, Copyright by Lineto GmbH. All rights reserved.
</metadata>
<defs>
<font id="LetteraMonoLLCondLight-Regular" horiz-adv-x="1161" >
  <font-face 
    font-family="Lettera Mono LL Cond Light"
    font-weight="300"
    font-stretch="normal"
    units-per-em="2048"
    panose-1="0 0 4 0 0 0 0 0 0 0"
    ascent="1638"
    descent="-410"
    x-height="1063"
    cap-height="1440"
    bbox="-952 -424 1214 1989"
    underline-thickness="102"
    underline-position="-307"
    unicode-range="U+000D-FEFF"
  />
<missing-glyph 
d="M238 123v1331h688v-1331h-688zM350 246h461v1085h-461v-1085z" />
    <glyph glyph-name="f_i" unicode="fi" 
d="M819 123v825h-426v-825h-119v825h-188v115h188v98q0 133 80 213t213 80q131 0 223.5 -63t129.5 -177l-111 -30q-23 74 -86.5 114.5t-155.5 40.5q-174 0 -174 -186v-90h543v-940h-117z" />
    <glyph glyph-name="f_l" unicode="fl" 
d="M86 948v115h188v67q0 145 77 227.5t212 82.5h373v-1317h-117v1202h-248q-91 0 -134.5 -49t-43.5 -152v-61h271v-115h-271v-825h-119v825h-188z" />
    <glyph glyph-name=".notdef" 
d="M238 123v1331h688v-1331h-688zM350 246h461v1085h-461v-1085z" />
    <glyph glyph-name=".null" 
 />
    <glyph glyph-name="nonmarkingreturn" horiz-adv-x="682" 
 />
    <glyph glyph-name="CR" unicode="&#xd;" 
 />
    <glyph glyph-name="space" unicode=" " 
 />
    <glyph glyph-name="exclam" unicode="!" 
d="M524 500l-6 624v316h125v-316l-4 -624h-115zM582 109q-46 0 -75.5 31.5t-29.5 80.5t29.5 81t75.5 32q44 0 73 -32t29 -81t-29 -80.5t-73 -31.5z" />
    <glyph glyph-name="quotedbl" unicode="&#x22;" 
d="M432 889h-47q-61 284 -61 434q0 62 22 96.5t62 34.5t62 -34.5t22 -96.5q0 -155 -60 -434zM776 889h-45q-61 269 -61 434q0 62 22 96.5t62 34.5t62 -34.5t22 -96.5q0 -146 -62 -434z" />
    <glyph glyph-name="numbersign" unicode="#" 
d="M575 123l74 346h-246l-71 -346h-115l72 346h-215l32 115h205l66 313h-211l27 115h206l74 346h113l-72 -346h244l71 346h115l-72 -346h215l-32 -115h-205l-66 -313h211l-26 -115h-207l-72 -346h-115zM489 897l-63 -313h246l63 313h-246z" />
    <glyph glyph-name="dollar" unicode="$" 
d="M1008 498q0 -158 -103 -257t-270 -104v-184h-115v194q-154 26 -256.5 133.5t-130.5 270.5l119 27q26 -148 125 -233t244 -85q126 0 195 60t69 169q0 107 -64 168.5t-207 92.5l-55 10q-193 40 -285 123t-92 219q0 138 93.5 227.5t244.5 95.5v185h115v-195
q132 -25 221.5 -118.5t106.5 -225.5l-117 -22q-13 114 -97.5 184t-207.5 70q-114 0 -176 -50.5t-62 -142.5q0 -90 63 -142t209 -81l52 -13q193 -38 287 -131t94 -245z" />
    <glyph glyph-name="percent" unicode="%" 
d="M295 870q-112 0 -187 83t-75 208q0 123 75 206t187 83t188 -83t76 -206t-76 -207t-188 -84zM154 123l729 1317h125l-729 -1317h-125zM295 983q63 0 106 51.5t43 126.5t-43 126.5t-106 51.5t-106.5 -51.5t-43.5 -126.5t43.5 -126.5t106.5 -51.5zM866 113
q-113 0 -188.5 82.5t-75.5 205.5t76 206t188 83t187 -83t75 -206t-75 -205.5t-187 -82.5zM866 223q63 0 106.5 51.5t43.5 126.5t-43.5 127t-106.5 52t-106 -52t-43 -127t43 -126.5t106 -51.5z" />
    <glyph glyph-name="ampersand" unicode="&#x26;" 
d="M1061 246h88v-123h-94q-68 0 -116 20.5t-95 69.5q-137 -104 -305 -104q-185 0 -305.5 114t-120.5 289q0 246 219 381q-113 158 -113 283q0 122 76 200t194 78t194.5 -75.5t76.5 -192.5q0 -106 -67.5 -183t-186.5 -143l55 -69l301 -400q72 122 92 227l119 -34
q-42 -163 -135 -285q53 -53 123 -53zM489 1331q-65 0 -107 -44t-42 -111q0 -88 102 -226q107 63 154 117.5t47 116.5q0 63 -44 105t-110 42zM446 928v8l-4 2l-4 -10h8zM539 229q120 0 229 80l-313 420q-16 22 -17 23l-37 45q-89 -52 -128.5 -120t-39.5 -165
q0 -121 87.5 -202t218.5 -81z" />
    <glyph glyph-name="quotesingle" unicode="'" 
d="M604 889h-47q-59 274 -59 434q0 62 22 96.5t62 34.5t61 -34t21 -97q0 -155 -60 -434z" />
    <glyph glyph-name="parenleft" unicode="(" 
d="M766 -33h-123q-133 205 -195.5 396.5t-62.5 392.5q0 200 61.5 388.5t196.5 397.5h123q-134 -214 -195 -401t-61 -385q0 -199 61 -388t195 -401z" />
    <glyph glyph-name="parenright" unicode=")" 
d="M518 -33h-123q134 212 195 401t61 388q0 198 -61 385t-195 401h123q135 -209 196.5 -397.5t61.5 -388.5q0 -201 -62.5 -392.5t-195.5 -396.5z" />
    <glyph glyph-name="asterisk" unicode="*" 
d="M680 1133h307v-115h-305l174 -260l-88 -68l-186 277l-189 -277l-88 68l174 260h-305v115h307l-176 260l88 69l189 -278l186 278l88 -69zM571 1057l11 -17l8 17h20l-10 18l12 21h-22l-8 14l-11 -14h-22l12 -21l-10 -18h20z" />
    <glyph glyph-name="plus" unicode="+" 
d="M145 707v118h379v408h115v-408h377v-118h-377v-408h-115v408h-379z" />
    <glyph glyph-name="comma" unicode="," 
d="M578 334q57 0 87.5 -52.5t30.5 -146.5q0 -192 -166 -330l-69 66q117 111 123 238q-48 5 -77.5 35t-29.5 77q0 50 28.5 81.5t72.5 31.5z" />
    <glyph glyph-name="hyphen" unicode="-" 
d="M238 602v123h686v-123h-686z" />
    <glyph glyph-name="period" unicode="." 
d="M582 109q-46 0 -75.5 31.5t-29.5 80.5t29.5 81t75.5 32q44 0 73 -32t29 -81t-29 -80.5t-73 -31.5z" />
    <glyph glyph-name="slash" unicode="/" 
d="M160 123l710 1317h131l-710 -1317h-131z" />
    <glyph glyph-name="zero" unicode="0" 
d="M582 109q-120 0 -213 84.5t-145 237.5t-52 349q0 197 51.5 350.5t144.5 238.5t214 85q181 0 294 -188t113 -486q0 -297 -113 -484t-294 -187zM582 229q126 0 206 154t80 397t-80 397t-206 154q-128 0 -208.5 -153.5t-80.5 -397.5q0 -243 81 -397t208 -154z" />
    <glyph glyph-name="one" unicode="1" 
d="M680 1440h104v-1317h-120v1079q-75 -69 -232 -69h-74v122h74q115 0 174 44t74 141z" />
    <glyph glyph-name="two" unicode="2" 
d="M193 123v57q0 86 20.5 155t63.5 124t85.5 93t110.5 87l113 82q122 89 178.5 168t56.5 184q0 112 -68.5 185t-174.5 73q-115 0 -187 -77t-86 -214l-115 17q17 186 121 291.5t267 105.5q158 0 261 -107.5t103 -273.5q0 -75 -23 -141.5t-67.5 -122.5t-91 -98.5t-111.5 -89.5
l-112 -80q-108 -79 -157.5 -141t-62.5 -154h666v-123h-790z" />
    <glyph glyph-name="three" unicode="3" 
d="M772 829q97 -39 154 -127t57 -204q0 -169 -106.5 -279t-270.5 -110q-318 0 -418 350l113 33q79 -263 305 -263q117 0 186.5 73t69.5 196q0 121 -73.5 186.5t-210.5 65.5h-127v122h73q131 0 204 63t73 175q0 100 -61 160.5t-162 60.5q-97 0 -161 -59.5t-77 -163.5l-119 29
q23 149 118.5 233t238.5 84q157 0 251.5 -94.5t94.5 -249.5q0 -93 -39.5 -165.5t-112.5 -115.5z" />
    <glyph glyph-name="four" unicode="4" 
d="M829 1440v-819h220v-121h-220v-377h-120v377h-596v104l546 836h170zM295 670l-39 -49h453v679z" />
    <glyph glyph-name="five" unicode="5" 
d="M604 1040q157 0 254.5 -126.5t97.5 -327.5q0 -209 -108 -343t-277 -134q-310 0 -383 401l119 22q55 -303 264 -303q113 0 189 102.5t76 254.5q0 147 -65 240.5t-167 93.5q-151 0 -227 -199l-131 6l53 713h610l-6 -123h-493l-37 -399q92 122 231 122z" />
    <glyph glyph-name="six" unicode="6" 
d="M571 997q164 0 271.5 -126t107.5 -318q0 -190 -104.5 -317t-261.5 -127q-193 0 -305.5 170t-112.5 462q0 324 114 518.5t304 194.5q69 0 128.5 -23.5t101.5 -62.5t70 -78t48 -82l-107 -53q-83 176 -241 176q-120 0 -199 -132t-94 -355q46 74 118.5 113.5t161.5 39.5z
M584 229q107 0 176 91t69 233q0 145 -73 233t-193 88q-110 0 -183 -88t-73 -223q0 -81 32 -156.5t97 -126.5t148 -51z" />
    <glyph glyph-name="seven" unicode="7" 
d="M424 123v35q0 159 20.5 302t52 252.5t84.5 223t102 195.5t120 186h-598v123h745v-111q-54 -76 -88.5 -128.5t-81.5 -132t-77 -145.5t-63 -156.5t-51.5 -179t-31 -199.5t-12.5 -230v-35h-121z" />
    <glyph glyph-name="eight" unicode="8" 
d="M582 109q-166 0 -274.5 110t-108.5 279q0 109 53 196t147 131q-76 44 -118.5 119t-42.5 166q0 149 97.5 246.5t246.5 97.5q148 0 245 -97.5t97 -246.5q0 -91 -42.5 -166t-119.5 -119q93 -44 147 -132t54 -195q0 -169 -107.5 -279t-273.5 -110zM582 887q98 0 158.5 61.5
t60.5 161.5t-60.5 160.5t-158.5 60.5q-100 0 -161 -60.5t-61 -160.5q0 -101 61 -162t161 -61zM582 229q110 0 185 77.5t75 191.5t-74.5 190t-185.5 76q-113 0 -188 -76t-75 -190q0 -115 75 -192t188 -77z" />
    <glyph glyph-name="nine" unicode="9" 
d="M563 1454q195 0 307.5 -170.5t112.5 -462.5q0 -348 -105.5 -530t-306.5 -182q-138 0 -237 87.5t-150 254.5h119q81 -222 268 -222q265 0 289 494q-46 -76 -119 -117t-163 -41q-164 0 -271.5 126.5t-107.5 318.5q0 191 103.5 317.5t260.5 126.5zM584 688q112 0 185 88
t73 223q0 81 -32.5 156t-98 125.5t-148.5 50.5q-106 0 -175 -90t-69 -231q0 -145 73 -233.5t192 -88.5z" />
    <glyph glyph-name="colon" unicode=":" 
d="M582 786q-46 0 -75.5 32t-29.5 81t29.5 81t75.5 32q44 0 73 -32t29 -81t-29 -81t-73 -32zM582 109q-46 0 -75.5 31.5t-29.5 80.5t29.5 81t75.5 32q44 0 73 -32t29 -81t-29 -80.5t-73 -31.5z" />
    <glyph glyph-name="semicolon" unicode=";" 
d="M582 786q-46 0 -75.5 32t-29.5 81t29.5 81t75.5 32q44 0 73 -32t29 -81t-29 -81t-73 -32zM578 334q57 0 87.5 -52.5t30.5 -146.5q0 -192 -166 -330l-69 66q117 111 123 238q-48 5 -77.5 35t-29.5 77q0 50 28.5 81.5t72.5 31.5z" />
    <glyph glyph-name="less" unicode="&#x3c;" 
d="M1016 311l-871 404v102l871 404v-125l-717 -328l717 -326v-131z" />
    <glyph glyph-name="equal" unicode="=" 
d="M145 891v119h871v-119h-871zM145 522v119h871v-119h-871z" />
    <glyph glyph-name="greater" unicode="&#x3e;" 
d="M145 311v127l719 326l-719 328v129l871 -404v-102z" />
    <glyph glyph-name="question" unicode="?" 
d="M498 500v94q0 95 32 163.5t109 139.5q72 68 107.5 124t35.5 126q0 83 -56 133.5t-148 50.5q-184 0 -205 -217l-117 19q15 153 100.5 237t225.5 84q143 0 232 -85.5t89 -221.5q0 -92 -44 -164t-124 -147q-68 -65 -96.5 -115.5t-28.5 -126.5v-94h-112zM555 109
q-44 0 -74 32.5t-30 79.5t30 80t74 33t73 -32t29 -81t-29 -80.5t-73 -31.5z" />
    <glyph glyph-name="at" unicode="@" 
d="M719 1047v53h115v-441q0 -41 18 -65.5t47 -24.5q113 0 113 267q0 217 -123.5 362t-306.5 145q-186 0 -309 -160.5t-123 -404.5q0 -248 125.5 -403.5t324.5 -155.5q152 0 301 92l43 -94q-144 -108 -344 -108q-164 0 -292.5 85t-199.5 237.5t-71 346.5q0 192 70.5 346.5
t195.5 242t279 87.5q152 0 276.5 -80.5t195 -222t70.5 -315.5q0 -175 -60 -276t-165 -101t-156 94q-31 -50 -80.5 -78.5t-107.5 -28.5q-114 0 -191 97.5t-77 240.5t77 240.5t191 97.5q101 0 164 -75zM561 561q68 0 112 63t44 160t-44.5 160.5t-111.5 63.5q-68 0 -111.5 -63
t-43.5 -161t43.5 -160.5t111.5 -62.5z" />
    <glyph glyph-name="A" unicode="A" 
d="M518 1440h125l467 -1317h-131l-139 395h-521l-141 -395h-127zM545 1153l-185 -514h437l-183 514l-34 107z" />
    <glyph glyph-name="B" unicode="B" 
d="M172 123v1317h446q160 0 256.5 -93.5t96.5 -248.5q0 -87 -34.5 -157t-100.5 -112q97 -43 148.5 -128t51.5 -203q0 -172 -101 -273.5t-271 -101.5h-492zM618 1317h-325v-445h325q107 0 169.5 59.5t62.5 162.5q0 104 -61.5 163.5t-170.5 59.5zM664 750h-371v-504h371
q117 0 184 67.5t67 184.5t-67 184.5t-184 67.5z" />
    <glyph glyph-name="C" unicode="C" 
d="M590 109q-150 0 -270 86t-187 239.5t-67 345.5t66 346t184.5 241t265.5 87q187 0 308.5 -117.5t156.5 -332.5l-121 -23q-28 172 -115.5 261t-228.5 89q-169 0 -282.5 -157.5t-113.5 -393.5q0 -156 52.5 -282.5t145 -197.5t206.5 -71q280 0 366 340l111 -45
q-51 -202 -173 -308.5t-304 -106.5z" />
    <glyph glyph-name="D" unicode="D" 
d="M145 123v1317h418q251 0 392 -175t141 -485q0 -311 -140.5 -484t-392.5 -173h-418zM563 1317h-297v-1071h297q203 0 307.5 135t104.5 399q0 265 -104.5 401t-307.5 136z" />
    <glyph glyph-name="E" unicode="E" 
d="M186 123v1317h797v-123h-676v-438h623v-121h-623v-512h709v-123h-830z" />
    <glyph glyph-name="F" unicode="F" 
d="M211 123v1317h825v-123h-704v-438h624v-121h-624v-635h-121z" />
    <glyph glyph-name="G" unicode="G" 
d="M590 676v123h485v-676h-121v174q-122 -188 -344 -188q-230 0 -376 187.5t-146 483.5q0 193 64.5 347t179 240.5t258.5 86.5q174 0 301.5 -114.5t165.5 -305.5l-121 -22q-26 144 -121.5 231.5t-224.5 87.5q-164 0 -271.5 -156t-107.5 -395q0 -243 112 -397t287 -154
q149 0 246.5 114t97.5 288v45h-364z" />
    <glyph glyph-name="H" unicode="H" 
d="M922 123v622h-682v-622h-121v1317h121v-572h682v572h120v-1317h-120z" />
    <glyph glyph-name="I" unicode="I" 
d="M193 1321v119h778v-119h-330v-1079h330v-119h-778v119h327v1079h-327z" />
    <glyph glyph-name="J" unicode="J" 
d="M530 109q-183 0 -292 94t-150 289l121 30q25 -145 106 -219t215 -74q132 0 201.5 75.5t69.5 221.5v914h123v-914q0 -197 -104 -307t-290 -110z" />
    <glyph glyph-name="K" unicode="K" 
d="M983 123l-539 659l-137 -135v-524h-121v1317h121v-637l651 637h160l-586 -574l609 -743h-158z" />
    <glyph glyph-name="L" unicode="L" 
d="M211 123v1317h121v-1194h700v-123h-821z" />
    <glyph glyph-name="M" unicode="M" 
d="M623 586l270 854h164v-1317h-123l6 1096l-10 -43l-283 -897h-133l-283 901l-10 41l6 -1098h-123v1317h168l271 -858l39 -156z" />
    <glyph glyph-name="N" unicode="N" 
d="M922 305v1135h120v-1317h-149l-631 1085l-2 2l-20 45v-1132h-121v1317h155l623 -1084h2z" />
    <glyph glyph-name="O" unicode="O" 
d="M582 109q-147 0 -265 86.5t-184.5 240t-66.5 344.5q0 192 66 346t184.5 241t265.5 87t264.5 -87t183.5 -241t66 -346t-66 -345.5t-183.5 -239.5t-264.5 -86zM582 229q167 0 280 158t113 393q0 155 -51 281.5t-141 198t-201 71.5q-169 0 -282.5 -157.5t-113.5 -393.5
q0 -154 51.5 -280.5t142.5 -198.5t202 -72z" />
    <glyph glyph-name="P" unicode="P" 
d="M211 123v1317h461q160 0 256 -96.5t96 -256.5t-96 -256t-256 -96h-340v-612h-121zM672 1317h-340v-461h340q104 0 166.5 62.5t62.5 168.5t-61.5 168t-167.5 62z" />
    <glyph glyph-name="Q" unicode="Q" 
d="M582 109q-147 0 -265 86.5t-184.5 240t-66.5 344.5q0 192 66 346t184.5 241t265.5 87t264.5 -87t183.5 -241t66 -346q0 -189 -66 -344t-184 -241l141 -273l-106 -61l-140 278q-73 -30 -159 -30zM582 229q167 0 280 158t113 393q0 155 -51 281.5t-141 198t-201 71.5
q-169 0 -282.5 -157.5t-113.5 -393.5q0 -154 51.5 -280.5t142.5 -198.5t202 -72z" />
    <glyph glyph-name="R" unicode="R" 
d="M946 123l-297 598h-350v-598h-121v1317h473q169 0 271 -99t102 -262q0 -128 -66.5 -218.5t-183.5 -121.5l307 -616h-135zM651 1317h-352v-475h352q114 0 182 65t68 172q0 108 -68 173t-182 65z" />
    <glyph glyph-name="S" unicode="S" 
d="M643 109q-438 0 -567 434l114 26q57 -172 168.5 -256t284.5 -84q138 0 224.5 78t86.5 201q0 110 -70.5 167.5t-228.5 74.5l-149 14q-203 20 -298 95t-95 216q0 167 124 273t320 106q187 0 315 -102.5t156 -274.5l-119 -22q-23 129 -117 202.5t-235 73.5
q-147 0 -235.5 -67t-88.5 -177q0 -94 64 -137.5t227 -62.5l152 -15q198 -20 298.5 -109t100.5 -243q0 -181 -120.5 -296t-311.5 -115z" />
    <glyph glyph-name="T" unicode="T" 
d="M125 1317v123h911v-123h-395v-1194h-121v1194h-395z" />
    <glyph glyph-name="U" unicode="U" 
d="M582 109q-217 0 -343 121.5t-126 332.5v877h120v-877q0 -157 93 -245.5t256 -88.5t255.5 88.5t92.5 245.5v877h119v-877q0 -211 -125 -332.5t-342 -121.5z" />
    <glyph glyph-name="V" unicode="V" 
d="M623 455l323 985h125l-432 -1317h-117l-430 1317h127l324 -989l39 -132z" />
    <glyph glyph-name="W" unicode="W" 
d="M834 530l112 910h121l-174 -1317h-145l-162 835l-6 54l-9 -54l-159 -835h-142l-174 1317h123l113 -914l16 -174l29 178l141 732h125l141 -732l31 -190z" />
    <glyph glyph-name="X" unicode="X" 
d="M979 123l-393 592l-412 -592h-141l483 690l-420 627h146l348 -527l356 527h139l-423 -623l462 -694h-145z" />
    <glyph glyph-name="Y" unicode="Y" 
d="M520 123v620l-436 697h137l361 -580l360 580h137l-438 -697v-620h-121z" />
    <glyph glyph-name="Z" unicode="Z" 
d="M66 123v102l702 963l100 131l-125 -2h-618v123h903v-103l-700 -962l-101 -133l125 4h744v-123h-1030z" />
    <glyph glyph-name="bracketleft" unicode="[" 
d="M391 -33v1575h359v-115h-240v-1345h240v-115h-359z" />
    <glyph glyph-name="backslash" unicode="\" 
d="M870 123l-710 1317h131l710 -1317h-131z" />
    <glyph glyph-name="bracketright" unicode="]" 
d="M412 1427v115h358v-1575h-358v115h239v1345h-239z" />
    <glyph glyph-name="asciicircum" unicode="^" 
d="M160 758l366 682h109l366 -682h-135l-286 538l-289 -538h-131z" />
    <glyph glyph-name="underscore" unicode="_" 
d="M-41 -254v123h1243v-123h-1243z" />
    <glyph glyph-name="grave" unicode="`" 
d="M762 1139l-418 139l-16 143l422 -170z" />
    <glyph glyph-name="a" unicode="a" 
d="M1032 289l15 -2l59 -74q-16 -32 -63 -65t-107 -33q-70 0 -118.5 37.5t-65.5 103.5q-104 -147 -287 -147q-131 0 -215 78.5t-84 199.5q0 106 53.5 169.5t167.5 94.5l281 74q41 10 58 32t17 64q0 74 -43 108t-137 34q-108 0 -173 -51t-75 -144l-110 23q23 138 115.5 212
t242.5 74q140 0 218.5 -67.5t78.5 -188.5v-489q0 -105 78 -105q48 0 82 49zM471 223q112 0 189 79.5t83 201.5v135q-17 -13 -49 -23l-266 -69q-79 -20 -112 -57t-33 -103q0 -74 51.5 -119t136.5 -45z" />
    <glyph glyph-name="b" unicode="b" 
d="M618 1077q172 0 285 -137t113 -346q0 -210 -113 -347.5t-285 -137.5q-85 0 -156 38.5t-118 110.5v-135h-119v1317h119v-512q98 149 274 149zM614 223q125 0 205 104t80 267q0 161 -80 265t-205 104q-120 0 -194 -97.5t-76 -255.5v-35q2 -158 76 -255t194 -97z" />
    <glyph glyph-name="c" unicode="c" 
d="M590 109q-180 0 -296 136.5t-116 348.5q0 214 110 348.5t283 134.5q138 0 235.5 -79.5t143.5 -229.5l-106 -37q-34 112 -104.5 172t-168.5 60q-124 0 -200 -101.5t-76 -267.5q0 -163 83 -267t212 -104q57 0 102 17t76 50t50.5 64t39.5 76l96 -53q-52 -132 -145 -200
t-219 -68z" />
    <glyph glyph-name="d" unicode="d" 
d="M819 924v516h117v-1317h-117v139q-50 -74 -120.5 -113.5t-153.5 -39.5q-173 0 -286.5 137t-113.5 348q0 209 113.5 346t286.5 137q171 0 274 -153zM547 223q123 0 197.5 102t74.5 269v16q-5 159 -79.5 256t-192.5 97q-125 0 -205 -104t-80 -265q0 -163 80 -267t205 -104z
" />
    <glyph glyph-name="e" unicode="e" 
d="M598 109q-170 0 -279.5 136.5t-109.5 348.5q0 207 107 345t268 138q157 0 256.5 -123t99.5 -317v-80h-614q9 -156 81.5 -245t190.5 -89q40 0 74.5 12.5t57 29t45.5 45.5t33.5 47t27.5 48l1.5 3t1.5 2.5t1.5 3t1.5 2.5l100 -54q-23 -40 -36.5 -62.5t-47.5 -64t-66.5 -65
t-84 -42.5t-109.5 -19zM584 963q-101 0 -169 -78t-85 -213h491q-8 137 -70.5 214t-166.5 77z" />
    <glyph glyph-name="f" unicode="f" 
d="M178 948v115h217v98q0 133 79.5 213t213.5 80q130 0 221.5 -63t128.5 -177l-112 -30q-22 74 -84 114.5t-154 40.5q-178 0 -178 -186v-90h299v-115h-299v-825h-115v825h-217z" />
    <glyph glyph-name="g" unicode="g" 
d="M836 940v123h116v-1008q0 -155 -92.5 -239t-261.5 -84q-132 0 -231 66t-150 188l96 61q14 -36 36.5 -69t56.5 -64t84 -49.5t108 -18.5q238 0 238 209v191q-92 -137 -254 -137q-169 0 -278 136.5t-109 348.5q0 211 109 347t278 136q162 0 254 -137zM584 223
q112 0 180.5 95.5t71.5 256.5v19q0 169 -68.5 269t-183.5 100q-120 0 -196.5 -103t-76.5 -266t76.5 -267t196.5 -104z" />
    <glyph glyph-name="h" unicode="h" 
d="M639 1077q141 0 222 -84t81 -231v-639h-117v633q0 101 -50.5 154t-147.5 53q-116 0 -191.5 -96t-75.5 -244v-500h-118v1317h118v-514q102 151 279 151z" />
    <glyph glyph-name="i" unicode="i" 
d="M606 1237q-43 0 -71.5 31.5t-28.5 77.5t28.5 77t71.5 31q44 0 73.5 -30.5t29.5 -77.5t-29.5 -78t-73.5 -31zM270 123v115h297v710h-264v115h381v-825h291v-115h-705z" />
    <glyph glyph-name="j" unicode="j" 
d="M743 1237q-44 0 -72 31t-28 78t28 77.5t72 30.5q43 0 71 -30.5t28 -77.5t-28 -78t-71 -31zM518 -268q-118 0 -205 57t-127 160l115 31q49 -134 217 -134q86 0 126 45t40 142v1030h117v-1030q0 -148 -72.5 -224.5t-210.5 -76.5z" />
    <glyph glyph-name="k" unicode="k" 
d="M881 123l-385 536l-134 -127v-409h-116v1317h116v-754l386 377h163l-325 -320l442 -620h-147z" />
    <glyph glyph-name="l" unicode="l" 
d="M252 123v115h301v1087h-287v115h404v-1202h305v-115h-723z" />
    <glyph glyph-name="m" unicode="m" 
d="M817 1077q104 0 165.5 -71t61.5 -191v-692h-114v684q0 156 -121 156q-78 0 -126 -87.5t-48 -230.5v-522h-117v655q0 185 -121 185q-77 0 -123.5 -87t-46.5 -231v-522h-118v940h118v-80q66 94 179 94q67 0 118.5 -36t79.5 -101q35 66 90.5 101.5t122.5 35.5z" />
    <glyph glyph-name="n" unicode="n" 
d="M651 1077q129 0 207 -82t78 -217v-655h-117v647q0 92 -45.5 142.5t-130.5 50.5q-92 0 -160 -69.5t-99.5 -175t-31.5 -229.5v-366h-116v940h116v-182q50 94 127 145t172 51z" />
    <glyph glyph-name="o" unicode="o" 
d="M582 109q-179 0 -293.5 136.5t-114.5 348.5q0 211 115 347t293 136q177 0 291 -136t114 -347t-114 -348t-291 -137zM582 223q126 0 206 104t80 267t-80 266t-206 103q-127 0 -208 -103t-81 -266q0 -164 80.5 -267.5t208.5 -103.5z" />
    <glyph glyph-name="p" unicode="p" 
d="M618 1077q172 0 285 -137t113 -346q0 -210 -113 -347.5t-285 -137.5q-85 0 -156 38.5t-118 110.5v-512h-119v1317h119v-135q98 149 274 149zM614 223q125 0 205 104t80 267q0 161 -80 265t-205 104q-120 0 -194 -97.5t-76 -255.5v-35q2 -158 76 -255t194 -97z" />
    <glyph glyph-name="q" unicode="q" 
d="M819 924v139h117v-1317h-117v516q-50 -74 -120.5 -113.5t-153.5 -39.5q-173 0 -286.5 137t-113.5 348q0 209 113.5 346t286.5 137q171 0 274 -153zM547 223q123 0 197.5 102t74.5 269v16q-5 159 -79.5 256t-192.5 97q-125 0 -205 -104t-80 -265q0 -163 80 -267t205 -104z
" />
    <glyph glyph-name="r" unicode="r" 
d="M696 1077q134 0 209 -88.5t78 -249.5l-115 -16q-2 123 -45 181.5t-133 58.5q-76 0 -141.5 -54.5t-104 -146.5t-38.5 -199v-440h-119v940h119v-166q110 180 290 180z" />
    <glyph glyph-name="s" unicode="s" 
d="M631 109q-188 0 -300 84.5t-143 250.5l115 7q22 -112 105 -170t223 -58q106 0 170.5 48t64.5 126q0 144 -202 156l-134 6q-305 18 -305 248q0 120 92 195t240 75q337 0 383 -299l-115 -6q-17 99 -81.5 145t-186.5 46q-98 0 -157.5 -42t-59.5 -110q0 -66 45.5 -96
t159.5 -37l131 -6q146 -9 224.5 -79t78.5 -192q0 -129 -97 -210.5t-251 -81.5z" />
    <glyph glyph-name="t" unicode="t" 
d="M172 948v115h242v280h116v-280h400v-115h-400v-561q0 -164 146 -164q63 0 119 37.5t94 104.5l74 -84q-52 -83 -127 -127.5t-162 -44.5q-121 0 -190.5 72t-69.5 198v569h-242z" />
    <glyph glyph-name="u" unicode="u" 
d="M813 696v367h117v-940h-117v186q-51 -97 -127.5 -148.5t-171.5 -51.5q-129 0 -207 82.5t-78 218.5v653h115v-647q0 -92 46.5 -142.5t131.5 -50.5q90 0 158 69t100.5 175t32.5 229z" />
    <glyph glyph-name="v" unicode="v" 
d="M623 395l215 668h123l-308 -940h-145l-307 940h127l215 -672l39 -127z" />
    <glyph glyph-name="w" unicode="w" 
d="M825 457l129 606h119l-207 -940h-123l-149 606l-12 68l-15 -68l-149 -606h-123l-207 940h121l131 -606l22 -142l25 142l131 518h129l129 -518l27 -144z" />
    <glyph glyph-name="x" unicode="x" 
d="M850 123l-270 416l-269 -416h-133l334 510l-287 430h144l213 -332l211 332h133l-279 -428l344 -512h-141z" />
    <glyph glyph-name="y" unicode="y" 
d="M406 -268q-54 0 -105 21t-88 54.5t-62.5 66.5t-41.5 65l98 57q34 -72 86.5 -111t112.5 -39t90 30t61 120l53 143l-360 924h123l252 -639l45 -125l39 125l221 639h123l-381 -1090q-25 -66 -46.5 -106.5t-52 -73.5t-71 -47t-96.5 -14z" />
    <glyph glyph-name="z" unicode="z" 
d="M193 123v94l454 617l90 116l-119 -2h-393v115h672v-94l-457 -617l-92 -119l123 5h492v-115h-770z" />
    <glyph glyph-name="braceleft" unicode="{" 
d="M809 -33h-80q-117 0 -178.5 64t-61.5 186v318q0 154 -131 172v98q131 18 131 172v317q0 121 61.5 184.5t178.5 63.5h80v-115h-72q-66 0 -96.5 -34t-30.5 -107v-309q0 -157 -98 -221q98 -67 98 -221v-310q0 -75 30.5 -109t96.5 -34h72v-115z" />
    <glyph glyph-name="bar" unicode="|" 
d="M524 -254v1694h115v-1694h-115z" />
    <glyph glyph-name="braceright" unicode="}" 
d="M352 -33v115h72q66 0 96.5 34t30.5 109v310q0 154 98 221q-98 64 -98 221v309q0 73 -30.5 107t-96.5 34h-72v115h80q117 0 178.5 -63.5t61.5 -184.5v-317q0 -150 133 -172v-98q-133 -22 -133 -172v-318q0 -122 -61.5 -186t-178.5 -64h-80z" />
    <glyph glyph-name="asciitilde" unicode="~" 
d="M764 647q-34 0 -76 12.5t-64.5 23t-70.5 34.5q-101 55 -156 55q-46 0 -79 -27.5t-74 -99.5l-86 76q52 82 103.5 124t135.5 42q34 0 76 -12.5t64.5 -23t70.5 -34.5q101 -55 156 -55q52 0 83.5 29t70.5 96l86 -76q-51 -81 -103.5 -122.5t-136.5 -41.5z" />
    <glyph glyph-name="uni00A0" unicode="&#xa0;" 
 />
    <glyph glyph-name="exclamdown" unicode="&#xa1;" 
d="M582 852q-46 0 -75.5 32t-29.5 81t29.5 80.5t75.5 31.5q44 0 73 -31.5t29 -80.5t-29 -81t-73 -32zM518 -254v315l6 627h115l4 -627v-315h-125z" />
    <glyph glyph-name="cent" unicode="&#xa2;" 
d="M551 123v139q-170 23 -282.5 171.5t-112.5 350.5q0 211 111 359t284 168v129h113v-129q144 -20 241 -118t119 -245l-119 -28q-10 104 -75.5 175.5t-165.5 90.5v-805q98 12 161.5 73.5t100.5 178.5l104 -49q-103 -301 -366 -328v-133h-113zM276 784q0 -150 77.5 -262.5
t197.5 -138.5v803q-121 -19 -198 -131.5t-77 -270.5z" />
    <glyph glyph-name="sterling" unicode="&#xa3;" 
d="M172 772v115h129q0 5 -1 15.5t-1 15.5q-14 107 -14 176q0 165 88 262.5t237 97.5q157 0 256 -96.5t109 -263.5l-113 -25q-10 124 -76.5 193t-175.5 69q-100 0 -152 -60t-52 -177q0 -47 16 -183q1 -4 2 -12t2 -12h432v-115h-412q19 -176 19 -201q0 -211 -117 -325h647
v-123h-837v106q97 56 141.5 135t44.5 199q0 38 -16 170q-4 24 -4 39h-152z" />
    <glyph glyph-name="currency" unicode="&#xa4;" 
d="M858 377l-98 106q-77 -57 -178 -57q-106 0 -181 57l-98 -110l-82 92l96 106q-59 92 -59 203q0 108 59 203l-96 106l82 93l98 -111q80 57 181 57q95 0 178 -57l98 106l84 -88l-98 -106q59 -95 59 -203q0 -111 -59 -203l98 -106zM582 541q88 0 147 66.5t59 166.5
q0 99 -59.5 166.5t-146.5 67.5q-88 0 -148.5 -68t-60.5 -166q0 -100 60 -166.5t149 -66.5z" />
    <glyph glyph-name="yen" unicode="&#xa5;" 
d="M225 647v115h279l-432 678h139l371 -588l372 588h136l-433 -678h279v-115h-295v-160h295v-114h-295v-250h-121v250h-295v114h295v160h-295z" />
    <glyph glyph-name="brokenbar" unicode="&#xa6;" 
d="M524 850v590h115v-590h-115zM524 -254v592h115v-592h-115z" />
    <glyph glyph-name="section" unicode="&#xa7;" 
d="M610 109q-119 0 -210.5 63.5t-131.5 175.5l113 41q26 -74 88 -117t141 -43q60 0 94.5 29t34.5 80q0 55 -35.5 89.5t-130.5 86.5l-112 59q-64 32 -105.5 59t-77.5 61.5t-52.5 76t-16.5 92.5q0 140 135 221q-41 59 -41 138q0 104 69 168.5t179 64.5q119 0 210.5 -64
t131.5 -176l-113 -40q-26 73 -87.5 115t-141.5 42q-62 0 -95.5 -28t-33.5 -80q0 -54 36.5 -89.5t131.5 -84.5l110 -60q64 -32 105.5 -59t77.5 -61.5t52.5 -76t16.5 -92.5q0 -67 -35 -124t-100 -95q43 -61 43 -139q0 -103 -70 -168t-180 -65zM516 680l98 -51q84 -43 127 -76
q93 55 93 139q0 57 -41 95.5t-146 95.5l-100 51q-67 31 -129 74q-90 -53 -90 -138q0 -57 40.5 -95t147.5 -95z" />
    <glyph glyph-name="dieresis" unicode="&#xa8;" 
d="M406 1169q-41 0 -68 29.5t-27 73.5q0 43 27.5 71.5t67.5 28.5t66 -28.5t26 -71.5q0 -44 -26 -73.5t-66 -29.5zM756 1169q-40 0 -66 29.5t-26 73.5q0 43 26 71.5t66 28.5t67 -28.5t27 -71.5q0 -44 -26.5 -73.5t-67.5 -29.5z" />
    <glyph glyph-name="copyright" unicode="&#xa9;" 
d="M582 109q-162 0 -294 87.5t-207 241t-75 342.5q0 142 44 267.5t120 214.5t183 140.5t229 51.5q162 0 293 -87.5t205.5 -242t74.5 -344.5q0 -189 -74.5 -342.5t-205.5 -241t-293 -87.5zM582 219q196 0 329 161.5t133 399.5q0 239 -133 401t-329 162q-130 0 -236.5 -73.5
t-167.5 -203t-61 -286.5q0 -156 61 -285t168 -202.5t236 -73.5zM590 403q-136 0 -226 107t-90 270t88.5 271t221.5 108q116 0 191.5 -69.5t94.5 -192.5l-106 -27q-14 78 -57 128.5t-123 50.5q-83 0 -139 -77t-56 -192q0 -117 56.5 -191.5t144.5 -74.5q68 0 116.5 46
t65.5 128l107 -43q-31 -114 -107 -178t-182 -64z" />
    <glyph glyph-name="ordfeminine" unicode="&#xaa;" 
d="M481 705q-103 0 -165 60.5t-62 160.5q0 89 52 143.5t161 79.5l123 25q39 7 54 20t15 37q0 49 -32 78.5t-86 29.5q-113 0 -140 -151l-110 26q20 113 86.5 174.5t167.5 61.5q103 0 166 -61.5t63 -161.5v-336q0 -32 14.5 -50t40.5 -18q22 0 50 17l26 -6l29 -74l-4 -17l-4 -4
q-10 -8 -42.5 -19t-62.5 -11q-50 0 -88 24.5t-57 67.5q-77 -96 -195 -96zM489 817q75 0 122.5 58t47.5 151v55q-17 -7 -55 -14l-123 -27q-59 -12 -85.5 -39t-26.5 -73q0 -53 31.5 -82t88.5 -29z" />
    <glyph glyph-name="guillemotleft" unicode="&#xab;" 
d="M518 201l-297 422l297 421l84 -75l-246 -344l246 -346zM860 252l-274 371l274 370l82 -67l-223 -301l225 -303z" />
    <glyph glyph-name="logicalnot" unicode="&#xac;" 
d="M879 299v408h-734v118h846v-526h-112z" />
    <glyph glyph-name="uni00AD" unicode="&#xad;" 
d="M238 602v123h686v-123h-686z" />
    <glyph glyph-name="registered" unicode="&#xae;" 
d="M582 109q-162 0 -294 87.5t-207 241t-75 342.5q0 142 44 267.5t120 214.5t183 140.5t229 51.5q162 0 293 -87.5t205.5 -242t74.5 -344.5q0 -189 -74.5 -342.5t-205.5 -241t-293 -87.5zM582 219q196 0 329 161.5t133 399.5q0 239 -133 401t-329 162q-130 0 -236.5 -73.5
t-167.5 -203t-61 -286.5q0 -156 61 -285t168 -202.5t236 -73.5zM752 410l-154 303h-137v-303h-113v741h275q101 0 162 -59.5t61 -159.5q0 -71 -34 -122.5t-97 -76.5l164 -323h-127zM621 1040h-160v-217h160q52 0 82 29t30 80t-29.5 79.5t-82.5 28.5z" />
    <glyph glyph-name="macron" unicode="&#xaf;" 
d="M338 1288v115h485v-115h-485z" />
    <glyph glyph-name="degree" unicode="&#xb0;" 
d="M582 809q-126 0 -211.5 92.5t-85.5 228.5q0 135 86.5 229.5t210.5 94.5t209.5 -93.5t85.5 -230.5q0 -135 -85.5 -228t-209.5 -93zM582 924q78 0 130 58.5t52 147.5q0 90 -52 149.5t-130 59.5t-130.5 -59.5t-52.5 -149.5q0 -89 52.5 -147.5t130.5 -58.5z" />
    <glyph glyph-name="plusminus" unicode="&#xb1;" 
d="M145 766v119h379v377h115v-377h377v-119h-377v-377h-115v377h-379zM145 123v119h871v-119h-871z" />
    <glyph glyph-name="uni00B2" unicode="&#xb2;" 
d="M375 758v43q0 88 35.5 145t111.5 113l37 28q59 44 85 82.5t26 81.5q0 46 -23.5 71.5t-66.5 25.5q-46 0 -72 -32t-35 -102l-102 17q12 104 67 161.5t144 57.5q86 0 140 -54t54 -139q0 -70 -36.5 -129t-118.5 -122l-37 -27q-46 -34 -68 -60.5t-31 -60.5h308v-100h-418z" />
    <glyph glyph-name="uni00B3" unicode="&#xb3;" 
d="M582 745q-175 0 -232 195l99 35q12 -61 46 -93t87 -32q48 0 76 28.5t28 77.5q0 107 -129 107h-70v100h54q112 0 112 97q0 41 -23 64.5t-63 23.5q-41 0 -69 -30t-31 -77l-100 25q12 86 66 135t136 49q86 0 139.5 -51.5t53.5 -134.5q0 -88 -66 -136q97 -52 97 -172
q0 -91 -60 -151t-151 -60z" />
    <glyph glyph-name="acute" unicode="&#xb4;" 
d="M399 1139l13 112l422 170l-17 -143z" />
    <glyph glyph-name="uni00B5" unicode="&#xb5;" 
d="M817 696v367h117v-940h-117v182q-47 -94 -123 -145t-168 -51q-104 0 -182 63q4 -98 4 -139v-287h-117v1317h117v-625q0 -101 48 -158t134 -57q87 0 153.5 69t100 175.5t33.5 228.5z" />
    <glyph glyph-name="paragraph" unicode="&#xb6;" 
d="M457 -121v922h8q-140 0 -230 90t-90 229q0 140 90.5 230t229.5 90h551v-123h-139v-1438h-121v1438h-178v-1438h-121z" />
    <glyph glyph-name="periodcentered" unicode="&#xb7;" 
d="M582 492q-46 0 -75.5 31.5t-29.5 80.5t29.5 81t75.5 32q44 0 73 -32t29 -81t-29 -80.5t-73 -31.5z" />
    <glyph glyph-name="cedilla" unicode="&#xb8;" 
d="M473 -268v114h115q80 0 80 66q0 63 -80 63h-62v197h109v-94q69 -12 107 -55t38 -109q0 -83 -52 -132.5t-138 -49.5h-117z" />
    <glyph glyph-name="uni00B9" unicode="&#xb9;" 
d="M567 758v463q-47 -33 -135 -33h-29v104h29q75 0 110 35t38 113h96v-682h-109z" />
    <glyph glyph-name="ordmasculine" unicode="&#xba;" 
d="M582 705q-131 0 -219.5 107t-88.5 265q0 160 88 266.5t220 106.5q131 0 218 -106.5t87 -266.5t-87 -266t-218 -106zM582 819q82 0 136 74t54 184t-54 184t-136 74q-83 0 -138 -73t-55 -185q0 -110 55.5 -184t137.5 -74z" />
    <glyph glyph-name="guillemotright" unicode="&#xbb;" 
d="M643 201l-82 75l244 345l-246 348l84 75l297 -421zM301 252l-82 67l223 302l-225 303l84 69l274 -370z" />
    <glyph glyph-name="onequarter" unicode="&#xbc;" 
d="M315 758h-106v463q-47 -33 -135 -33h-29v104h29q75 0 109.5 34.5t37.5 113.5h94v-682zM121 123l729 1317h129l-735 -1317h-123zM1014 805v-399h102v-103h-102v-180h-107v180h-284v84l254 418h137zM764 430l-16 -24h159v266z" />
    <glyph glyph-name="onehalf" unicode="&#xbd;" 
d="M209 758v463q-47 -33 -135 -33h-29v104h29q75 0 109.5 34.5t37.5 113.5h94v-682h-106zM121 123l729 1317h129l-735 -1317h-123zM686 123v45q0 87 34.5 144.5t110.5 113.5l37 27q60 44 86.5 82t26.5 81q0 46 -24 71.5t-68 25.5q-93 0 -107 -133l-100 18q12 103 67 161
t142 58q88 0 142 -54t54 -140q0 -69 -36.5 -128t-118.5 -122l-39 -29q-46 -34 -67 -60.5t-29 -58.5h305v-102h-416z" />
    <glyph glyph-name="threequarters" unicode="&#xbe;" 
d="M453 956q0 -89 -61 -150t-150 -61q-87 0 -147.5 50.5t-86.5 144.5l96 33q30 -123 138 -123q47 0 74.5 28.5t27.5 77.5q0 107 -131 107h-66v100h50q56 0 86 25.5t30 71.5q0 40 -24 64t-64 24q-43 0 -70 -28.5t-30 -78.5l-100 25q12 86 66 135t136 49q86 0 139.5 -51.5
t53.5 -134.5t-66 -136q46 -23 72.5 -68.5t26.5 -103.5zM174 123l729 1317h125l-729 -1317h-125zM1055 805v-399h100v-103h-100v-180h-107v180h-284v84l251 418h140zM805 430l-17 -24h160v266z" />
    <glyph glyph-name="questiondown" unicode="&#xbf;" 
d="M606 852q-44 0 -73 32t-29 81t29 80.5t73 31.5q46 0 75.5 -31.5t29.5 -80.5q0 -47 -30.5 -80t-74.5 -33zM582 -268q-145 0 -234.5 85.5t-89.5 223.5q0 91 43.5 162.5t124.5 148.5q68 63 96.5 113.5t28.5 128.5v94h113v-94q0 -95 -32.5 -164.5t-109.5 -140.5
q-74 -72 -108.5 -125t-34.5 -123q0 -85 56 -135.5t149 -50.5q183 0 204 217l117 -19q-13 -153 -98 -237t-225 -84z" />
    <glyph glyph-name="Agrave" unicode="&#xc0;" 
d="M750 1626l12 -110l-418 137l-16 145zM518 1440h125l467 -1317h-131l-139 395h-521l-141 -395h-127zM545 1153l-185 -514h437l-183 514l-34 107z" />
    <glyph glyph-name="Aacute" unicode="&#xc1;" 
d="M412 1626l422 172l-17 -145l-418 -137zM518 1440h125l467 -1317h-131l-139 395h-521l-141 -395h-127zM545 1153l-185 -514h437l-183 514l-34 107z" />
    <glyph glyph-name="Acircumflex" unicode="&#xc2;" 
d="M778 1538l-198 209l-199 -209h-152l287 299h129l287 -299h-154zM518 1440h125l467 -1317h-131l-139 395h-521l-141 -395h-127zM545 1153l-185 -514h437l-183 514l-34 107z" />
    <glyph glyph-name="Atilde" unicode="&#xc3;" 
d="M422 1597h-111q-3 109 37.5 169.5t116.5 60.5q28 0 59 -14t43.5 -23.5t44.5 -34.5q57 -47 80 -47q28 0 39 27t8 88h111q3 -109 -37.5 -169.5t-116.5 -60.5q-28 0 -59 14t-43.5 23.5t-44.5 34.5q-57 47 -80 47q-28 0 -39 -27t-8 -88zM518 1440h125l467 -1317h-131
l-139 395h-521l-141 -395h-127zM545 1153l-185 -514h437l-183 514l-34 107z" />
    <glyph glyph-name="Adieresis" unicode="&#xc4;" 
d="M406 1546q-40 0 -67.5 29t-27.5 72q0 44 27 73t68 29q40 0 66 -29t26 -73q0 -43 -26 -72t-66 -29zM756 1546q-40 0 -66 29t-26 72q0 44 26 73t66 29q41 0 67.5 -29t26.5 -73q0 -43 -27 -72t-67 -29zM518 1440h125l467 -1317h-131l-139 395h-521l-141 -395h-127zM545 1153
l-185 -514h437l-183 514l-34 107z" />
    <glyph glyph-name="Aring" unicode="&#xc5;" 
d="M670 1356l440 -1233h-131l-139 395h-521l-141 -395h-127l441 1233q-57 26 -90 82t-33 125q0 97 61 162t152 65q89 0 150 -66t61 -161q0 -69 -33 -125t-90 -82zM473 1563q0 -52 31.5 -87.5t77.5 -35.5q44 0 76 36t32 87t-32 87t-76 36q-46 0 -77.5 -35.5t-31.5 -87.5z
M545 1153l-185 -514h437l-183 514l-34 107z" />
    <glyph glyph-name="AE" unicode="&#xc6;" 
d="M731 758v-512h391v-123h-512v395h-293l-163 -395h-123l538 1317h521v-123h-359v-438h305v-121h-305zM584 1167l-217 -528h243v598z" />
    <glyph glyph-name="Ccedilla" unicode="&#xc7;" 
d="M498 -268v114h112q80 0 80 66q0 63 -80 63h-59v136q-141 11 -251.5 99.5t-172 237.5t-61.5 332q0 192 66 346t184.5 241t265.5 87q187 0 308.5 -117.5t156.5 -332.5l-121 -23q-28 172 -115.5 261t-228.5 89q-169 0 -282.5 -157.5t-113.5 -393.5q0 -156 52.5 -282.5
t145 -197.5t206.5 -71q280 0 366 340l111 -45q-43 -181 -148 -286t-262 -125v-35q70 -12 109 -55t39 -109q0 -82 -53 -132t-138 -50h-116z" />
    <glyph glyph-name="Egrave" unicode="&#xc8;" 
d="M764 1516l-416 137l-16 145l422 -176zM186 123v1317h797v-123h-676v-438h623v-121h-623v-512h709v-123h-830z" />
    <glyph glyph-name="Eacute" unicode="&#xc9;" 
d="M403 1516l11 106l424 176l-17 -145zM186 123v1317h797v-123h-676v-438h623v-121h-623v-512h709v-123h-830z" />
    <glyph glyph-name="Ecircumflex" unicode="&#xca;" 
d="M233 1538l285 299h129l289 -299h-156l-198 209l-199 -209h-150zM186 123v1317h797v-123h-676v-438h623v-121h-623v-512h709v-123h-830z" />
    <glyph glyph-name="Edieresis" unicode="&#xcb;" 
d="M408 1546q-40 0 -66.5 29t-26.5 72q0 44 26.5 73t66.5 29q41 0 67.5 -29t26.5 -73q0 -43 -27 -72t-67 -29zM760 1546q-40 0 -66 29t-26 72q0 44 26 73t66 29t67 -29.5t27 -72.5t-27 -72t-67 -29zM186 123v1317h797v-123h-676v-438h623v-121h-623v-512h709v-123h-830z" />
    <glyph glyph-name="Igrave" unicode="&#xcc;" 
d="M762 1516l-418 137l-16 145l422 -172zM193 1321v119h778v-119h-330v-1079h330v-119h-778v119h327v1079h-327z" />
    <glyph glyph-name="Iacute" unicode="&#xcd;" 
d="M399 1516l13 110l422 172l-17 -145zM193 1321v119h778v-119h-330v-1079h330v-119h-778v119h327v1079h-327z" />
    <glyph glyph-name="Icircumflex" unicode="&#xce;" 
d="M229 1538l287 299h129l287 -299h-154l-198 209l-199 -209h-152zM193 1321v119h778v-119h-330v-1079h330v-119h-778v119h327v1079h-327z" />
    <glyph glyph-name="Idieresis" unicode="&#xcf;" 
d="M406 1546q-40 0 -67.5 29t-27.5 72q0 44 27 73t68 29q40 0 66 -29t26 -73q0 -43 -26 -72t-66 -29zM756 1546q-40 0 -66 29t-26 72q0 44 26 73t66 29q41 0 67.5 -29t26.5 -73q0 -43 -27 -72t-67 -29zM193 1321v119h778v-119h-330v-1079h330v-119h-778v119h327v1079h-327z
" />
    <glyph glyph-name="Eth" unicode="&#xd0;" 
d="M0 727v115h145v598h418q251 0 392 -175t141 -485q0 -311 -140.5 -484t-392.5 -173h-418v604h-145zM510 727h-244v-481h297q203 0 307.5 135t104.5 399q0 265 -104.5 401t-307.5 136h-297v-475h244v-115z" />
    <glyph glyph-name="Ntilde" unicode="&#xd1;" 
d="M422 1597h-111q-3 109 37.5 169.5t116.5 60.5q28 0 59 -14t43.5 -23.5t44.5 -34.5q57 -47 80 -47q28 0 39 27t8 88h111q3 -109 -37.5 -169.5t-116.5 -60.5q-28 0 -59 14t-43.5 23.5t-44.5 34.5q-57 47 -80 47q-28 0 -39 -27t-8 -88zM922 305v1135h120v-1317h-149
l-631 1085l-2 2l-20 45v-1132h-121v1317h155l623 -1084h2z" />
    <glyph glyph-name="Ograve" unicode="&#xd2;" 
d="M762 1516l-418 137l-16 145l422 -172zM582 109q-147 0 -265 86.5t-184.5 240t-66.5 344.5q0 192 66 346t184.5 241t265.5 87t264.5 -87t183.5 -241t66 -346t-66 -345.5t-183.5 -239.5t-264.5 -86zM582 229q167 0 280 158t113 393q0 155 -51 281.5t-141 198t-201 71.5
q-169 0 -282.5 -157.5t-113.5 -393.5q0 -154 51.5 -280.5t142.5 -198.5t202 -72z" />
    <glyph glyph-name="Oacute" unicode="&#xd3;" 
d="M399 1516l13 110l422 172l-17 -145zM582 109q-147 0 -265 86.5t-184.5 240t-66.5 344.5q0 192 66 346t184.5 241t265.5 87t264.5 -87t183.5 -241t66 -346t-66 -345.5t-183.5 -239.5t-264.5 -86zM582 229q167 0 280 158t113 393q0 155 -51 281.5t-141 198t-201 71.5
q-169 0 -282.5 -157.5t-113.5 -393.5q0 -154 51.5 -280.5t142.5 -198.5t202 -72z" />
    <glyph glyph-name="Ocircumflex" unicode="&#xd4;" 
d="M229 1538l287 299h129l287 -299h-154l-198 209l-199 -209h-152zM582 109q-147 0 -265 86.5t-184.5 240t-66.5 344.5q0 192 66 346t184.5 241t265.5 87t264.5 -87t183.5 -241t66 -346t-66 -345.5t-183.5 -239.5t-264.5 -86zM582 229q167 0 280 158t113 393
q0 155 -51 281.5t-141 198t-201 71.5q-169 0 -282.5 -157.5t-113.5 -393.5q0 -154 51.5 -280.5t142.5 -198.5t202 -72z" />
    <glyph glyph-name="Otilde" unicode="&#xd5;" 
d="M696 1593q-28 0 -59 14t-43.5 23.5t-44.5 34.5q-57 47 -80 47q-28 0 -39 -27t-8 -88h-111q-3 109 37.5 169.5t116.5 60.5q28 0 59 -14t43.5 -23.5t44.5 -34.5q57 -47 80 -47q28 0 39 27t8 88h111q3 -109 -37.5 -169.5t-116.5 -60.5zM582 109q-147 0 -265 86.5t-184.5 240
t-66.5 344.5q0 192 66 346t184.5 241t265.5 87t264.5 -87t183.5 -241t66 -346t-66 -345.5t-183.5 -239.5t-264.5 -86zM582 229q167 0 280 158t113 393q0 155 -51 281.5t-141 198t-201 71.5q-169 0 -282.5 -157.5t-113.5 -393.5q0 -154 51.5 -280.5t142.5 -198.5t202 -72z
" />
    <glyph glyph-name="Odieresis" unicode="&#xd6;" 
d="M406 1546q-40 0 -67.5 29t-27.5 72q0 44 27 73t68 29q40 0 66 -29t26 -73q0 -43 -26 -72t-66 -29zM756 1546q-40 0 -66 29t-26 72q0 44 26 73t66 29q41 0 67.5 -29t26.5 -73q0 -43 -27 -72t-67 -29zM582 109q-147 0 -265 86.5t-184.5 240t-66.5 344.5q0 192 66 346
t184.5 241t265.5 87t264.5 -87t183.5 -241t66 -346t-66 -345.5t-183.5 -239.5t-264.5 -86zM582 229q167 0 280 158t113 393q0 155 -51 281.5t-141 198t-201 71.5q-169 0 -282.5 -157.5t-113.5 -393.5q0 -154 51.5 -280.5t142.5 -198.5t202 -72z" />
    <glyph glyph-name="multiply" unicode="&#xd7;" 
d="M272 342l-75 86l305 336l-305 342l77 88l308 -348l307 340l76 -80l-308 -340l308 -338l-78 -84l-309 340z" />
    <glyph glyph-name="Oslash" unicode="&#xd8;" 
d="M137 78l-92 76l139 184q-118 177 -118 442q0 192 66 346t184.5 241t265.5 87q187 0 321 -137l121 168l92 -76l-139 -186q119 -189 119 -443q0 -192 -66 -345.5t-183.5 -239.5t-264.5 -86q-187 0 -322 135zM186 780q0 -190 76 -336l569 775q-112 112 -249 112
q-169 0 -282.5 -157.5t-113.5 -393.5zM582 229q167 0 280 158t113 393q0 194 -78 338l-565 -776q113 -113 250 -113z" />
    <glyph glyph-name="Ugrave" unicode="&#xd9;" 
d="M762 1516l-418 137l-16 145l422 -172zM582 109q-217 0 -343 121.5t-126 332.5v877h120v-877q0 -157 93 -245.5t256 -88.5t255.5 88.5t92.5 245.5v877h119v-877q0 -211 -125 -332.5t-342 -121.5z" />
    <glyph glyph-name="Uacute" unicode="&#xda;" 
d="M399 1516l13 110l422 172l-17 -145zM582 109q-217 0 -343 121.5t-126 332.5v877h120v-877q0 -157 93 -245.5t256 -88.5t255.5 88.5t92.5 245.5v877h119v-877q0 -211 -125 -332.5t-342 -121.5z" />
    <glyph glyph-name="Ucircumflex" unicode="&#xdb;" 
d="M229 1538l287 299h129l287 -299h-154l-198 209l-199 -209h-152zM582 109q-217 0 -343 121.5t-126 332.5v877h120v-877q0 -157 93 -245.5t256 -88.5t255.5 88.5t92.5 245.5v877h119v-877q0 -211 -125 -332.5t-342 -121.5z" />
    <glyph glyph-name="Udieresis" unicode="&#xdc;" 
d="M406 1546q-40 0 -67.5 29t-27.5 72q0 44 27 73t68 29q40 0 66 -29t26 -73q0 -43 -26 -72t-66 -29zM756 1546q-40 0 -66 29t-26 72q0 44 26 73t66 29q41 0 67.5 -29t26.5 -73q0 -43 -27 -72t-67 -29zM582 109q-217 0 -343 121.5t-126 332.5v877h120v-877q0 -157 93 -245.5
t256 -88.5t255.5 88.5t92.5 245.5v877h119v-877q0 -211 -125 -332.5t-342 -121.5z" />
    <glyph glyph-name="Yacute" unicode="&#xdd;" 
d="M399 1516l13 110l422 172l-17 -145zM520 123v620l-436 697h137l361 -580l360 580h137l-438 -697v-620h-121z" />
    <glyph glyph-name="Thorn" unicode="&#xde;" 
d="M211 123v1317h121v-303h340q160 0 256 -96.5t96 -256.5t-96 -256t-256 -96h-340v-309h-121zM672 1016h-340v-461h340q106 0 167.5 61.5t61.5 167.5t-62.5 169t-166.5 63z" />
    <glyph glyph-name="germandbls" unicode="&#xdf;" 
d="M119 123v115h129v849q0 164 95.5 265.5t250.5 101.5q151 0 248.5 -95t97.5 -243q0 -91 -34.5 -165t-98.5 -120q114 -38 174.5 -128.5t60.5 -219.5q0 -167 -95.5 -270.5t-250.5 -103.5q-138 0 -247 81l65 105q75 -72 182 -72q106 0 168 70t62 190q0 129 -76 198t-219 69
h-53v114q109 -6 176 59t67 179q0 107 -62 172t-165 65q-106 0 -167.5 -67.5t-61.5 -184.5v-964h-246z" />
    <glyph glyph-name="agrave" unicode="&#xe0;" 
d="M733 1251l12 -112l-417 139l-17 143zM1032 289l15 -2l59 -74q-16 -32 -63 -65t-107 -33q-70 0 -118.5 37.5t-65.5 103.5q-104 -147 -287 -147q-131 0 -215 78.5t-84 199.5q0 106 53.5 169.5t167.5 94.5l281 74q41 10 58 32t17 64q0 74 -43 108t-137 34q-108 0 -173 -51
t-75 -144l-110 23q23 138 115.5 212t242.5 74q140 0 218.5 -67.5t78.5 -188.5v-489q0 -105 78 -105q48 0 82 49zM471 223q112 0 189 79.5t83 201.5v135q-17 -13 -49 -23l-266 -69q-79 -20 -112 -57t-33 -103q0 -74 51.5 -119t136.5 -45z" />
    <glyph glyph-name="aacute" unicode="&#xe1;" 
d="M395 1251l422 170l-16 -143l-418 -139zM1032 289l15 -2l59 -74q-16 -32 -63 -65t-107 -33q-70 0 -118.5 37.5t-65.5 103.5q-104 -147 -287 -147q-131 0 -215 78.5t-84 199.5q0 106 53.5 169.5t167.5 94.5l281 74q41 10 58 32t17 64q0 74 -43 108t-137 34q-108 0 -173 -51
t-75 -144l-110 23q23 138 115.5 212t242.5 74q140 0 218.5 -67.5t78.5 -188.5v-489q0 -105 78 -105q48 0 82 49zM471 223q112 0 189 79.5t83 201.5v135q-17 -13 -49 -23l-266 -69q-79 -20 -112 -57t-33 -103q0 -74 51.5 -119t136.5 -45z" />
    <glyph glyph-name="acircumflex" unicode="&#xe2;" 
d="M762 1163l-199 207l-198 -207h-152l287 299h129l286 -299h-153zM1032 289l15 -2l59 -74q-16 -32 -63 -65t-107 -33q-70 0 -118.5 37.5t-65.5 103.5q-104 -147 -287 -147q-131 0 -215 78.5t-84 199.5q0 106 53.5 169.5t167.5 94.5l281 74q41 10 58 32t17 64q0 74 -43 108
t-137 34q-108 0 -173 -51t-75 -144l-110 23q23 138 115.5 212t242.5 74q140 0 218.5 -67.5t78.5 -188.5v-489q0 -105 78 -105q48 0 82 49zM471 223q112 0 189 79.5t83 201.5v135q-17 -13 -49 -23l-266 -69q-79 -20 -112 -57t-33 -103q0 -74 51.5 -119t136.5 -45z" />
    <glyph glyph-name="atilde" unicode="&#xe3;" 
d="M406 1221h-111q-3 109 37.5 169t116.5 60q28 0 57.5 -12.5t46.5 -25t43 -34.5q3 -2 9.5 -7t9.5 -7t8.5 -6.5t8.5 -6.5t8 -5l7.5 -4.5t7 -3.5t7.5 -3t7 -1.5t7 -0.5q28 0 39 26.5t8 86.5h111q3 -108 -37.5 -167.5t-116.5 -59.5q-64 0 -148 71q-3 3 -13 10.5t-13.5 10
t-11 7.5t-11.5 7l-10 5t-10.5 4t-9.5 1q-28 0 -39 -26.5t-8 -87.5zM1032 289l15 -2l59 -74q-16 -32 -63 -65t-107 -33q-70 0 -118.5 37.5t-65.5 103.5q-104 -147 -287 -147q-131 0 -215 78.5t-84 199.5q0 106 53.5 169.5t167.5 94.5l281 74q41 10 58 32t17 64q0 74 -43 108
t-137 34q-108 0 -173 -51t-75 -144l-110 23q23 138 115.5 212t242.5 74q140 0 218.5 -67.5t78.5 -188.5v-489q0 -105 78 -105q48 0 82 49zM471 223q112 0 189 79.5t83 201.5v135q-17 -13 -49 -23l-266 -69q-79 -20 -112 -57t-33 -103q0 -74 51.5 -119t136.5 -45z" />
    <glyph glyph-name="adieresis" unicode="&#xe4;" 
d="M389 1169q-41 0 -67.5 29.5t-26.5 73.5q0 43 27 71.5t67 28.5t66 -28.5t26 -71.5q0 -44 -26 -73.5t-66 -29.5zM739 1169q-40 0 -66 29.5t-26 73.5q0 43 26 71.5t66 28.5t67.5 -28.5t27.5 -71.5q0 -44 -27 -73.5t-68 -29.5zM1032 289l15 -2l59 -74q-16 -32 -63 -65
t-107 -33q-70 0 -118.5 37.5t-65.5 103.5q-104 -147 -287 -147q-131 0 -215 78.5t-84 199.5q0 106 53.5 169.5t167.5 94.5l281 74q41 10 58 32t17 64q0 74 -43 108t-137 34q-108 0 -173 -51t-75 -144l-110 23q23 138 115.5 212t242.5 74q140 0 218.5 -67.5t78.5 -188.5v-489
q0 -105 78 -105q48 0 82 49zM471 223q112 0 189 79.5t83 201.5v135q-17 -13 -49 -23l-266 -69q-79 -20 -112 -57t-33 -103q0 -74 51.5 -119t136.5 -45z" />
    <glyph glyph-name="aring" unicode="&#xe5;" 
d="M563 1159q-89 0 -150 66t-61 161t61 160.5t150 65.5q91 0 152 -65.5t61 -160.5q0 -97 -61 -162t-152 -65zM563 1509q-44 0 -76 -36t-32 -87q0 -52 31.5 -88t76.5 -36q46 0 77.5 35t31.5 89q0 51 -32.5 87t-76.5 36zM1032 289l15 -2l59 -74q-16 -32 -63 -65t-107 -33
q-70 0 -118.5 37.5t-65.5 103.5q-104 -147 -287 -147q-131 0 -215 78.5t-84 199.5q0 106 53.5 169.5t167.5 94.5l281 74q41 10 58 32t17 64q0 74 -43 108t-137 34q-108 0 -173 -51t-75 -144l-110 23q23 138 115.5 212t242.5 74q140 0 218.5 -67.5t78.5 -188.5v-489
q0 -105 78 -105q48 0 82 49zM471 223q112 0 189 79.5t83 201.5v135q-17 -13 -49 -23l-266 -69q-79 -20 -112 -57t-33 -103q0 -74 51.5 -119t136.5 -45z" />
    <glyph glyph-name="ae" unicode="&#xe6;" 
d="M332 109q-117 0 -191.5 78t-74.5 200q0 135 87 210t244 75h121v149q0 69 -34 105.5t-99 36.5q-130 0 -160 -166l-110 22q61 258 276 258q74 0 131 -32.5t88 -92.5q77 125 199 125q127 0 201.5 -119t74.5 -321v-80h-454q6 -156 57.5 -245t136.5 -89q60 0 99 38t67 124
l94 -53q-32 -104 -101.5 -163.5t-158.5 -59.5q-163 0 -245 174q-74 -174 -248 -174zM809 963q-69 0 -117.5 -79t-58.5 -212h334q-3 136 -45 213.5t-113 77.5zM340 223q83 0 130.5 63.5t47.5 174.5v96h-121q-110 0 -162.5 -41t-52.5 -129q0 -75 43 -119.5t115 -44.5z" />
    <glyph glyph-name="ccedilla" unicode="&#xe7;" 
d="M489 -268v114h115q80 0 80 66q0 63 -80 63h-61v136q-162 19 -263.5 153t-101.5 330q0 214 110 348.5t283 134.5q138 0 235.5 -79.5t143.5 -229.5l-106 -37q-34 112 -104.5 172t-168.5 60q-124 0 -200 -101.5t-76 -267.5q0 -163 83 -267t212 -104q57 0 102 17t76 50
t50.5 64t39.5 76l96 -53q-90 -234 -303 -262v-37q69 -12 107.5 -55t38.5 -109q0 -83 -52 -132.5t-139 -49.5h-117z" />
    <glyph glyph-name="egrave" unicode="&#xe8;" 
d="M764 1124l-416 138l-16 145l422 -174zM598 109q-170 0 -279.5 136.5t-109.5 348.5q0 207 107 345t268 138q157 0 256.5 -123t99.5 -317v-80h-614q9 -156 81.5 -245t190.5 -89q40 0 74.5 12.5t57 29t45.5 45.5t33.5 47t27.5 48l1.5 3t1.5 2.5t1.5 3t1.5 2.5l100 -54
q-23 -40 -36.5 -62.5t-47.5 -64t-66.5 -65t-84 -42.5t-109.5 -19zM584 963q-101 0 -169 -78t-85 -213h491q-8 137 -70.5 214t-166.5 77z" />
    <glyph glyph-name="eacute" unicode="&#xe9;" 
d="M403 1124l11 109l424 174l-17 -145zM598 109q-170 0 -279.5 136.5t-109.5 348.5q0 207 107 345t268 138q157 0 256.5 -123t99.5 -317v-80h-614q9 -156 81.5 -245t190.5 -89q40 0 74.5 12.5t57 29t45.5 45.5t33.5 47t27.5 48l1.5 3t1.5 2.5t1.5 3t1.5 2.5l100 -54
q-23 -40 -36.5 -62.5t-47.5 -64t-66.5 -65t-84 -42.5t-109.5 -19zM584 963q-101 0 -169 -78t-85 -213h491q-8 137 -70.5 214t-166.5 77z" />
    <glyph glyph-name="ecircumflex" unicode="&#xea;" 
d="M233 1147l285 299h129l289 -299h-156l-198 209l-199 -209h-150zM598 109q-170 0 -279.5 136.5t-109.5 348.5q0 207 107 345t268 138q157 0 256.5 -123t99.5 -317v-80h-614q9 -156 81.5 -245t190.5 -89q40 0 74.5 12.5t57 29t45.5 45.5t33.5 47t27.5 48l1.5 3t1.5 2.5
t1.5 3t1.5 2.5l100 -54q-23 -40 -36.5 -62.5t-47.5 -64t-66.5 -65t-84 -42.5t-109.5 -19zM584 963q-101 0 -169 -78t-85 -213h491q-8 137 -70.5 214t-166.5 77z" />
    <glyph glyph-name="edieresis" unicode="&#xeb;" 
d="M408 1155q-40 0 -66.5 29t-26.5 73q0 43 26.5 72t66.5 29t67 -29t27 -72q0 -44 -26.5 -73t-67.5 -29zM760 1155q-40 0 -66 29t-26 73q0 43 26 72t66 29t67 -29t27 -72t-27 -72.5t-67 -29.5zM598 109q-170 0 -279.5 136.5t-109.5 348.5q0 207 107 345t268 138
q157 0 256.5 -123t99.5 -317v-80h-614q9 -156 81.5 -245t190.5 -89q40 0 74.5 12.5t57 29t45.5 45.5t33.5 47t27.5 48l1.5 3t1.5 2.5t1.5 3t1.5 2.5l100 -54q-23 -40 -36.5 -62.5t-47.5 -64t-66.5 -65t-84 -42.5t-109.5 -19zM584 963q-101 0 -169 -78t-85 -213h491
q-8 137 -70.5 214t-166.5 77z" />
    <glyph glyph-name="igrave" unicode="&#xec;" 
d="M807 1139l-418 139l-16 143l422 -170zM270 123v115h297v710h-264v115h381v-825h291v-115h-705z" />
    <glyph glyph-name="iacute" unicode="&#xed;" 
d="M451 1139l4 108l426 174l-25 -143zM270 123v115h297v710h-264v115h381v-825h291v-115h-705z" />
    <glyph glyph-name="icircumflex" unicode="&#xee;" 
d="M274 1163l287 299h129l287 -299h-154l-200 207l-199 -207h-150zM270 123v115h297v710h-264v115h381v-825h291v-115h-705z" />
    <glyph glyph-name="idieresis" unicode="&#xef;" 
d="M451 1169q-40 0 -67.5 30t-27.5 73t27.5 71.5t67.5 28.5q38 0 66 -29.5t28 -70.5q0 -43 -27 -73t-67 -30zM803 1169q-41 0 -67.5 29.5t-26.5 73.5q0 43 27 71.5t67 28.5q38 0 65 -29.5t27 -70.5q0 -43 -27 -73t-65 -30zM270 123v115h297v710h-264v115h381v-825h291v-115
h-705z" />
    <glyph glyph-name="eth" unicode="&#xf0;" 
d="M979 1366l-139 -88q149 -203 149 -559q0 -287 -110 -448.5t-306 -161.5q-175 0 -291 134t-116 335t116 336t289 135q176 0 289 -138q-30 193 -115 301l-155 -102l-55 96l131 84q-82 49 -177 49q-79 0 -135 -33.5t-112 -99.5l-72 88q142 160 324 160q153 0 272 -96
l158 104zM573 223q123 0 206 101.5t83 253.5q0 154 -82 255t-207 101q-124 0 -207 -104t-83 -259q0 -151 82 -249.5t208 -98.5z" />
    <glyph glyph-name="ntilde" unicode="&#xf1;" 
d="M426 1221h-111q-3 109 37.5 169t116.5 60q27 0 57.5 -13.5t43.5 -22.5t46 -34q57 -47 80 -47q28 0 39 26.5t8 86.5h111q3 -108 -37.5 -167.5t-116.5 -59.5q-27 0 -56.5 12t-47 24t-43.5 33q-57 47 -82 47q-51 0 -45 -114zM651 1077q129 0 207 -82t78 -217v-655h-117v647
q0 92 -45.5 142.5t-130.5 50.5q-92 0 -160 -69.5t-99.5 -175t-31.5 -229.5v-366h-116v940h116v-182q50 94 127 145t172 51z" />
    <glyph glyph-name="ograve" unicode="&#xf2;" 
d="M762 1139l-418 139l-16 143l422 -170zM582 109q-179 0 -293.5 136.5t-114.5 348.5q0 211 115 347t293 136q177 0 291 -136t114 -347t-114 -348t-291 -137zM582 223q126 0 206 104t80 267t-80 266t-206 103q-127 0 -208 -103t-81 -266q0 -164 80.5 -267.5t208.5 -103.5z
" />
    <glyph glyph-name="oacute" unicode="&#xf3;" 
d="M399 1139l13 112l422 170l-17 -143zM582 109q-179 0 -293.5 136.5t-114.5 348.5q0 211 115 347t293 136q177 0 291 -136t114 -347t-114 -348t-291 -137zM582 223q126 0 206 104t80 267t-80 266t-206 103q-127 0 -208 -103t-81 -266q0 -164 80.5 -267.5t208.5 -103.5z" />
    <glyph glyph-name="ocircumflex" unicode="&#xf4;" 
d="M229 1163l287 299h129l287 -299h-154l-198 207l-199 -207h-152zM582 109q-179 0 -293.5 136.5t-114.5 348.5q0 211 115 347t293 136q177 0 291 -136t114 -347t-114 -348t-291 -137zM582 223q126 0 206 104t80 267t-80 266t-206 103q-127 0 -208 -103t-81 -266
q0 -164 80.5 -267.5t208.5 -103.5z" />
    <glyph glyph-name="otilde" unicode="&#xf5;" 
d="M696 1219q-41 0 -74.5 19t-72.5 52q-3 2 -9.5 7t-9.5 7t-8.5 6.5t-8.5 6.5t-8 5l-7.5 4.5t-7 3.5t-7.5 3t-7 1.5t-7 0.5q-28 0 -39 -26.5t-8 -87.5h-111q-3 109 37.5 169t116.5 60q28 0 57.5 -12.5t46.5 -25t43 -34.5q3 -2 9.5 -7t9.5 -7t8.5 -6.5t8.5 -6.5t8 -5
l7.5 -4.5t7 -3.5t7.5 -3t7 -1.5t7 -0.5q28 0 39 26.5t8 86.5h111q3 -108 -37.5 -167.5t-116.5 -59.5zM582 109q-179 0 -293.5 136.5t-114.5 348.5q0 211 115 347t293 136q177 0 291 -136t114 -347t-114 -348t-291 -137zM582 223q126 0 206 104t80 267t-80 266t-206 103
q-127 0 -208 -103t-81 -266q0 -164 80.5 -267.5t208.5 -103.5z" />
    <glyph glyph-name="odieresis" unicode="&#xf6;" 
d="M406 1169q-41 0 -68 29.5t-27 73.5q0 43 27.5 71.5t67.5 28.5t66 -28.5t26 -71.5q0 -44 -26 -73.5t-66 -29.5zM756 1169q-40 0 -66 29.5t-26 73.5q0 43 26 71.5t66 28.5t67 -28.5t27 -71.5q0 -44 -26.5 -73.5t-67.5 -29.5zM582 109q-179 0 -293.5 136.5t-114.5 348.5
q0 211 115 347t293 136q177 0 291 -136t114 -347t-114 -348t-291 -137zM582 223q126 0 206 104t80 267t-80 266t-206 103q-127 0 -208 -103t-81 -266q0 -164 80.5 -267.5t208.5 -103.5z" />
    <glyph glyph-name="divide" unicode="&#xf7;" 
d="M582 1012q-41 0 -69 30t-28 74q0 46 28 76.5t69 30.5q40 0 67 -31.5t27 -75.5t-27 -74t-67 -30zM145 707v118h871v-118h-871zM582 311q-41 0 -69 30.5t-28 74.5q0 46 28 76t69 30q40 0 67 -31t27 -75t-27 -74.5t-67 -30.5z" />
    <glyph glyph-name="oslash" unicode="&#xf8;" 
d="M236 33l-86 69l122 164q-98 134 -98 328q0 211 115 347t293 136q131 0 231 -80l113 156l86 -70l-125 -163q100 -136 100 -326q0 -211 -114 -348t-291 -137q-139 0 -234 77zM293 594q0 -135 51 -229l399 540q-67 58 -161 58q-127 0 -208 -103t-81 -266zM582 223
q126 0 206 104t80 267q0 130 -53 225l-395 -536q66 -60 162 -60z" />
    <glyph glyph-name="ugrave" unicode="&#xf9;" 
d="M750 1247l10 -108l-418 139l-16 143zM813 696v367h117v-940h-117v186q-51 -97 -127.5 -148.5t-171.5 -51.5q-129 0 -207 82.5t-78 218.5v653h115v-647q0 -92 46.5 -142.5t131.5 -50.5q90 0 158 69t100.5 175t32.5 229z" />
    <glyph glyph-name="uacute" unicode="&#xfa;" 
d="M410 1247l421 174l-16 -143l-416 -139zM813 696v367h117v-940h-117v186q-51 -97 -127.5 -148.5t-171.5 -51.5q-129 0 -207 82.5t-78 218.5v653h115v-647q0 -92 46.5 -142.5t131.5 -50.5q90 0 158 69t100.5 175t32.5 229z" />
    <glyph glyph-name="ucircumflex" unicode="&#xfb;" 
d="M776 1163l-198 207l-199 -207h-152l289 299h129l285 -299h-154zM813 696v367h117v-940h-117v186q-51 -97 -127.5 -148.5t-171.5 -51.5q-129 0 -207 82.5t-78 218.5v653h115v-647q0 -92 46.5 -142.5t131.5 -50.5q90 0 158 69t100.5 175t32.5 229z" />
    <glyph glyph-name="udieresis" unicode="&#xfc;" 
d="M403 1169q-40 0 -67 30t-27 73t27 71.5t67 28.5t66.5 -28.5t26.5 -71.5q0 -44 -26.5 -73.5t-66.5 -29.5zM756 1169q-41 0 -67.5 29.5t-26.5 73.5q0 43 27 71.5t67 28.5t66 -28.5t26 -71.5q0 -44 -26 -73.5t-66 -29.5zM813 696v367h117v-940h-117v186
q-51 -97 -127.5 -148.5t-171.5 -51.5q-129 0 -207 82.5t-78 218.5v653h115v-647q0 -92 46.5 -142.5t131.5 -50.5q90 0 158 69t100.5 175t32.5 229z" />
    <glyph glyph-name="yacute" unicode="&#xfd;" 
d="M471 1139l12 112l422 170l-16 -143zM406 -268q-54 0 -105 21t-88 54.5t-62.5 66.5t-41.5 65l98 57q34 -72 86.5 -111t112.5 -39t90 30t61 120l53 143l-360 924h123l252 -639l45 -125l39 125l221 639h123l-381 -1090q-25 -66 -46.5 -106.5t-52 -73.5t-71 -47t-96.5 -14z
" />
    <glyph glyph-name="thorn" unicode="&#xfe;" 
d="M618 1077q172 0 285 -137t113 -346q0 -210 -113 -347.5t-285 -137.5q-85 0 -156 38.5t-118 110.5v-512h-119v1694h119v-512q98 149 274 149zM614 223q125 0 205 104t80 267q0 161 -80 265t-205 104q-120 0 -194 -97.5t-76 -255.5v-35q2 -158 76 -255t194 -97z" />
    <glyph glyph-name="ydieresis" unicode="&#xff;" 
d="M475 1169q-38 0 -65 30t-27 73q0 41 27 70.5t65 29.5q40 0 67 -28.5t27 -71.5q0 -44 -26.5 -73.5t-67.5 -29.5zM827 1169q-40 0 -66 29.5t-26 73.5q0 43 26 71.5t66 28.5t67.5 -28.5t27.5 -71.5q0 -44 -27 -73.5t-68 -29.5zM406 -268q-54 0 -105 21t-88 54.5t-62.5 66.5
t-41.5 65l98 57q34 -72 86.5 -111t112.5 -39t90 30t61 120l53 143l-360 924h123l252 -639l45 -125l39 125l221 639h123l-381 -1090q-25 -66 -46.5 -106.5t-52 -73.5t-71 -47t-96.5 -14z" />
    <glyph glyph-name="Amacron" unicode="&#x100;" 
d="M338 1759h485v-114h-485v114zM518 1440h125l467 -1317h-131l-139 395h-521l-141 -395h-127zM545 1153l-185 -514h437l-183 514l-34 107z" />
    <glyph glyph-name="amacron" unicode="&#x101;" 
d="M322 1384h485v-114h-485v114zM1032 289l15 -2l59 -74q-16 -32 -63 -65t-107 -33q-70 0 -118.5 37.5t-65.5 103.5q-104 -147 -287 -147q-131 0 -215 78.5t-84 199.5q0 106 53.5 169.5t167.5 94.5l281 74q41 10 58 32t17 64q0 74 -43 108t-137 34q-108 0 -173 -51t-75 -144
l-110 23q23 138 115.5 212t242.5 74q140 0 218.5 -67.5t78.5 -188.5v-489q0 -105 78 -105q48 0 82 49zM471 223q112 0 189 79.5t83 201.5v135q-17 -13 -49 -23l-266 -69q-79 -20 -112 -57t-33 -103q0 -74 51.5 -119t136.5 -45z" />
    <glyph glyph-name="Abreve" unicode="&#x102;" 
d="M582 1538q-109 0 -172.5 80.5t-57.5 212.5h107q-4 -85 28.5 -133.5t94.5 -48.5q60 0 92.5 49.5t27.5 132.5h107q6 -132 -56 -212.5t-171 -80.5zM518 1440h125l467 -1317h-131l-139 395h-521l-141 -395h-127zM545 1153l-185 -514h437l-183 514l-34 107z" />
    <glyph glyph-name="abreve" unicode="&#x103;" 
d="M563 1163q-107 0 -170 80.5t-57 210.5h106q-4 -83 28.5 -131.5t92.5 -48.5q61 0 94.5 48.5t28.5 131.5h107q6 -132 -57 -211.5t-173 -79.5zM1032 289l15 -2l59 -74q-16 -32 -63 -65t-107 -33q-70 0 -118.5 37.5t-65.5 103.5q-104 -147 -287 -147q-131 0 -215 78.5
t-84 199.5q0 106 53.5 169.5t167.5 94.5l281 74q41 10 58 32t17 64q0 74 -43 108t-137 34q-108 0 -173 -51t-75 -144l-110 23q23 138 115.5 212t242.5 74q140 0 218.5 -67.5t78.5 -188.5v-489q0 -105 78 -105q48 0 82 49zM471 223q112 0 189 79.5t83 201.5v135
q-17 -13 -49 -23l-266 -69q-79 -20 -112 -57t-33 -103q0 -74 51.5 -119t136.5 -45z" />
    <glyph glyph-name="Aogonek" unicode="&#x104;" 
d="M1055 -154h61v-114h-67q-103 0 -161.5 50.5t-58.5 139.5q0 71 37.5 123.5t106.5 101.5l-133 371h-521l-141 -395h-127l467 1317h125l463 -1305q-164 -87 -164 -198q0 -91 113 -91zM545 1153l-185 -514h437l-183 514l-34 107z" />
    <glyph glyph-name="aogonek" unicode="&#x105;" 
d="M989 102q-34 -24 -50 -37t-37.5 -35t-30.5 -44t-9 -49q0 -91 113 -91h61v-114h-67q-101 0 -160 51t-59 139q0 119 120 205q-93 30 -118 129q-104 -147 -287 -147q-131 0 -215 78.5t-84 199.5q0 106 53.5 169.5t167.5 94.5l281 74q41 10 58 32t17 64q0 74 -43 108t-137 34
q-108 0 -173 -51t-75 -144l-110 23q23 138 115.5 212t242.5 74q140 0 218.5 -67.5t78.5 -188.5v-489q0 -105 78 -105q48 0 82 49l12 13l15 -2l59 -74q-13 -20 -35 -42t-36 -33.5t-46 -35.5zM471 223q117 0 194.5 84.5t77.5 212.5v119q-17 -13 -49 -23l-266 -69
q-79 -20 -112 -57t-33 -103q0 -74 51.5 -119t136.5 -45z" />
    <glyph glyph-name="Cacute" unicode="&#x106;" 
d="M403 1516l11 106l424 176l-17 -145zM590 109q-150 0 -270 86t-187 239.5t-67 345.5t66 346t184.5 241t265.5 87q187 0 308.5 -117.5t156.5 -332.5l-121 -23q-28 172 -115.5 261t-228.5 89q-169 0 -282.5 -157.5t-113.5 -393.5q0 -156 52.5 -282.5t145 -197.5t206.5 -71
q280 0 366 340l111 -45q-51 -202 -173 -308.5t-304 -106.5z" />
    <glyph glyph-name="cacute" unicode="&#x107;" 
d="M397 1139l11 108l421 174l-16 -143zM590 109q-180 0 -296 136.5t-116 348.5q0 214 110 348.5t283 134.5q138 0 235.5 -79.5t143.5 -229.5l-106 -37q-34 112 -104.5 172t-168.5 60q-124 0 -200 -101.5t-76 -267.5q0 -163 83 -267t212 -104q57 0 102 17t76 50t50.5 64
t39.5 76l96 -53q-52 -132 -145 -200t-219 -68z" />
    <glyph glyph-name="Ccircumflex" unicode="&#x108;" 
d="M233 1538l285 299h129l289 -299h-156l-198 209l-199 -209h-150zM590 109q-150 0 -270 86t-187 239.5t-67 345.5t66 346t184.5 241t265.5 87q187 0 308.5 -117.5t156.5 -332.5l-121 -23q-28 172 -115.5 261t-228.5 89q-169 0 -282.5 -157.5t-113.5 -393.5
q0 -156 52.5 -282.5t145 -197.5t206.5 -71q280 0 366 340l111 -45q-51 -202 -173 -308.5t-304 -106.5z" />
    <glyph glyph-name="ccircumflex" unicode="&#x109;" 
d="M225 1163l289 299h129l285 -299h-152l-201 207l-198 -207h-152zM590 109q-180 0 -296 136.5t-116 348.5q0 214 110 348.5t283 134.5q138 0 235.5 -79.5t143.5 -229.5l-106 -37q-34 112 -104.5 172t-168.5 60q-124 0 -200 -101.5t-76 -267.5q0 -163 83 -267t212 -104
q57 0 102 17t76 50t50.5 64t39.5 76l96 -53q-52 -132 -145 -200t-219 -68z" />
    <glyph glyph-name="Cdotaccent" unicode="&#x10a;" 
d="M584 1552q-43 0 -71 32t-28 79t28 78t71 31q44 0 72 -31t28 -78q0 -49 -28 -80t-72 -31zM590 109q-150 0 -270 86t-187 239.5t-67 345.5t66 346t184.5 241t265.5 87q187 0 308.5 -117.5t156.5 -332.5l-121 -23q-28 172 -115.5 261t-228.5 89q-169 0 -282.5 -157.5
t-113.5 -393.5q0 -156 52.5 -282.5t145 -197.5t206.5 -71q280 0 366 340l111 -45q-51 -202 -173 -308.5t-304 -106.5z" />
    <glyph glyph-name="cdotaccent" unicode="&#x10b;" 
d="M578 1221q-45 0 -73 30.5t-28 79.5q0 47 28.5 78t72.5 31q43 0 70.5 -31t27.5 -78t-27.5 -78.5t-70.5 -31.5zM590 109q-180 0 -296 136.5t-116 348.5q0 214 110 348.5t283 134.5q138 0 235.5 -79.5t143.5 -229.5l-106 -37q-34 112 -104.5 172t-168.5 60
q-124 0 -200 -101.5t-76 -267.5q0 -163 83 -267t212 -104q57 0 102 17t76 50t50.5 64t39.5 76l96 -53q-52 -132 -145 -200t-219 -68z" />
    <glyph glyph-name="Ccaron" unicode="&#x10c;" 
d="M518 1524l-285 299h154l199 -209l198 209h152l-289 -299h-129zM590 109q-150 0 -270 86t-187 239.5t-67 345.5t66 346t184.5 241t265.5 87q187 0 308.5 -117.5t156.5 -332.5l-121 -23q-28 172 -115.5 261t-228.5 89q-169 0 -282.5 -157.5t-113.5 -393.5
q0 -156 52.5 -282.5t145 -197.5t206.5 -71q280 0 366 340l111 -45q-51 -202 -173 -308.5t-304 -106.5z" />
    <glyph glyph-name="ccaron" unicode="&#x10d;" 
d="M514 1163l-289 299h156l199 -211l198 211h150l-285 -299h-129zM590 109q-180 0 -296 136.5t-116 348.5q0 214 110 348.5t283 134.5q138 0 235.5 -79.5t143.5 -229.5l-106 -37q-34 112 -104.5 172t-168.5 60q-124 0 -200 -101.5t-76 -267.5q0 -163 83 -267t212 -104
q57 0 102 17t76 50t50.5 64t39.5 76l96 -53q-52 -132 -145 -200t-219 -68z" />
    <glyph glyph-name="Dcaron" unicode="&#x10e;" 
d="M514 1532l-289 299h156l199 -211l198 211h150l-285 -299h-129zM145 123v1317h418q251 0 392 -175t141 -485q0 -311 -140.5 -484t-392.5 -173h-418zM563 1317h-297v-1071h297q203 0 307.5 135t104.5 399q0 265 -104.5 401t-307.5 136z" />
    <glyph glyph-name="dcaron" unicode="&#x10f;" 
d="M819 924v516h117v-1317h-117v139q-50 -74 -120.5 -113.5t-153.5 -39.5q-173 0 -286.5 137t-113.5 348q0 209 113.5 346t286.5 137q171 0 274 -153zM1016 1122l51 318h129l-76 -318h-104zM547 223q123 0 197.5 102t74.5 269v16q-5 159 -79.5 256t-192.5 97
q-125 0 -205 -104t-80 -265q0 -163 80 -267t205 -104z" />
    <glyph glyph-name="Dcroat" unicode="&#x110;" 
d="M0 727v115h145v598h418q251 0 392 -175t141 -485q0 -311 -140.5 -484t-392.5 -173h-418v604h-145zM510 727h-244v-481h297q203 0 307.5 135t104.5 399q0 265 -104.5 401t-307.5 136h-297v-475h244v-115z" />
    <glyph glyph-name="dcroat" unicode="&#x111;" 
d="M936 1440v-123h141v-113h-141v-1081h-117v139q-50 -74 -120.5 -113.5t-153.5 -39.5q-173 0 -286.5 137t-113.5 348q0 209 113.5 346t286.5 137q171 0 274 -153v280h-207v113h207v123h117zM547 223q123 0 197.5 102t74.5 269q0 166 -74.5 267.5t-197.5 101.5
q-125 0 -205 -104t-80 -265q0 -163 80 -267t205 -104z" />
    <glyph glyph-name="Emacron" unicode="&#x112;" 
d="M340 1645v114h485v-114h-485zM186 123v1317h797v-123h-676v-438h623v-121h-623v-512h709v-123h-830z" />
    <glyph glyph-name="emacron" unicode="&#x113;" 
d="M340 1255v115h485v-115h-485zM598 109q-170 0 -279.5 136.5t-109.5 348.5q0 207 107 345t268 138q157 0 256.5 -123t99.5 -317v-80h-614q9 -156 81.5 -245t190.5 -89q40 0 74.5 12.5t57 29t45.5 45.5t33.5 47t27.5 48l1.5 3t1.5 2.5t1.5 3t1.5 2.5l100 -54
q-23 -40 -36.5 -62.5t-47.5 -64t-66.5 -65t-84 -42.5t-109.5 -19zM584 963q-101 0 -169 -78t-85 -213h491q-8 137 -70.5 214t-166.5 77z" />
    <glyph glyph-name="Ebreve" unicode="&#x114;" 
d="M584 1538q-109 0 -172.5 80.5t-57.5 212.5h107q-5 -83 28.5 -132.5t94.5 -49.5q62 0 94.5 48.5t28.5 133.5h106q6 -132 -57 -212.5t-172 -80.5zM186 123v1317h797v-123h-676v-438h623v-121h-623v-512h709v-123h-830z" />
    <glyph glyph-name="ebreve" unicode="&#x115;" 
d="M584 1147q-109 0 -172.5 80.5t-57.5 212.5h107q-5 -83 28.5 -131.5t94.5 -48.5t94.5 48.5t28.5 131.5h106q6 -132 -57 -212.5t-172 -80.5zM598 109q-170 0 -279.5 136.5t-109.5 348.5q0 207 107 345t268 138q157 0 256.5 -123t99.5 -317v-80h-614q9 -156 81.5 -245
t190.5 -89q40 0 74.5 12.5t57 29t45.5 45.5t33.5 47t27.5 48l1.5 3t1.5 2.5t1.5 3t1.5 2.5l100 -54q-23 -40 -36.5 -62.5t-47.5 -64t-66.5 -65t-84 -42.5t-109.5 -19zM584 963q-101 0 -169 -78t-85 -213h491q-8 137 -70.5 214t-166.5 77z" />
    <glyph glyph-name="Edotaccent" unicode="&#x116;" 
d="M584 1597q-43 0 -71 31t-28 78t28 78t71 31q44 0 72 -31t28 -78t-28 -78t-72 -31zM186 123v1317h797v-123h-676v-438h623v-121h-623v-512h709v-123h-830z" />
    <glyph glyph-name="edotaccent" unicode="&#x117;" 
d="M584 1206q-43 0 -71 31t-28 78t28 78.5t71 31.5q44 0 72 -30.5t28 -79.5q0 -47 -28 -78t-72 -31zM598 109q-170 0 -279.5 136.5t-109.5 348.5q0 207 107 345t268 138q157 0 256.5 -123t99.5 -317v-80h-614q9 -156 81.5 -245t190.5 -89q40 0 74.5 12.5t57 29t45.5 45.5
t33.5 47t27.5 48l1.5 3t1.5 2.5t1.5 3t1.5 2.5l100 -54q-23 -40 -36.5 -62.5t-47.5 -64t-66.5 -65t-84 -42.5t-109.5 -19zM584 963q-101 0 -169 -78t-85 -213h491q-8 137 -70.5 214t-166.5 77z" />
    <glyph glyph-name="Eogonek" unicode="&#x118;" 
d="M186 123v1317h797v-123h-676v-438h623v-121h-623v-512h709v-123h-135q-133 -88 -133 -186q0 -91 110 -91h62v-114h-66q-103 0 -161 50.5t-58 139.5q0 109 102 201h-551z" />
    <glyph glyph-name="eogonek" unicode="&#x119;" 
d="M842 416l100 -54q-39 -78 -83 -128.5t-103 -83.5q-178 -109 -178 -213q0 -91 112 -91h60v-114h-66q-103 0 -161 50.5t-58 139.5q0 103 92 189q-154 17 -251 150.5t-97 332.5q0 207 107 345t268 138q157 0 256.5 -123t99.5 -317v-80h-614q9 -156 81.5 -245t190.5 -89
q40 0 74.5 12.5t57 29t45.5 45.5t33.5 47t27.5 48l1.5 3t1.5 2.5t1.5 3t1.5 2.5zM584 963q-101 0 -169 -78t-85 -213h491q-8 137 -70.5 214t-166.5 77z" />
    <glyph glyph-name="Ecaron" unicode="&#x11a;" 
d="M518 1538l-285 299h154l199 -209l198 209h152l-289 -299h-129zM186 123v1317h797v-123h-676v-438h623v-121h-623v-512h709v-123h-830z" />
    <glyph glyph-name="ecaron" unicode="&#x11b;" 
d="M518 1147l-285 299h154l199 -209l198 209h152l-289 -299h-129zM598 109q-170 0 -279.5 136.5t-109.5 348.5q0 207 107 345t268 138q157 0 256.5 -123t99.5 -317v-80h-614q9 -156 81.5 -245t190.5 -89q40 0 74.5 12.5t57 29t45.5 45.5t33.5 47t27.5 48l1.5 3t1.5 2.5
t1.5 3t1.5 2.5l100 -54q-23 -40 -36.5 -62.5t-47.5 -64t-66.5 -65t-84 -42.5t-109.5 -19zM584 963q-101 0 -169 -78t-85 -213h491q-8 137 -70.5 214t-166.5 77z" />
    <glyph glyph-name="Gcircumflex" unicode="&#x11c;" 
d="M788 1538l-198 209l-201 -209h-149l286 299h129l287 -299h-154zM590 676v123h485v-676h-121v174q-122 -188 -344 -188q-230 0 -376 187.5t-146 483.5q0 193 64.5 347t179 240.5t258.5 86.5q174 0 301.5 -114.5t165.5 -305.5l-121 -22q-26 144 -121.5 231.5t-224.5 87.5
q-164 0 -271.5 -156t-107.5 -395q0 -243 112 -397t287 -154q149 0 246.5 114t97.5 288v45h-364z" />
    <glyph glyph-name="gcircumflex" unicode="&#x11d;" 
d="M793 1163l-201 207l-199 -207h-151l288 299h129l285 -299h-151zM836 940v123h116v-1008q0 -155 -92.5 -239t-261.5 -84q-132 0 -231 66t-150 188l96 61q14 -36 36.5 -69t56.5 -64t84 -49.5t108 -18.5q238 0 238 209v191q-92 -137 -254 -137q-169 0 -278 136.5t-109 348.5
q0 211 109 347t278 136q162 0 254 -137zM584 223q112 0 180.5 95.5t71.5 256.5v19q0 169 -68.5 269t-183.5 100q-120 0 -196.5 -103t-76.5 -266t76.5 -267t196.5 -104z" />
    <glyph glyph-name="Gbreve" unicode="&#x11e;" 
d="M590 1538q-108 0 -172 81.5t-58 211.5h109q-5 -83 28 -132.5t93 -49.5q61 0 94.5 49.5t28.5 132.5h108q6 -132 -57.5 -212.5t-173.5 -80.5zM590 676v123h485v-676h-121v174q-122 -188 -344 -188q-230 0 -376 187.5t-146 483.5q0 193 64.5 347t179 240.5t258.5 86.5
q174 0 301.5 -114.5t165.5 -305.5l-121 -22q-26 144 -121.5 231.5t-224.5 87.5q-164 0 -271.5 -156t-107.5 -395q0 -243 112 -397t287 -154q149 0 246.5 114t97.5 288v45h-364z" />
    <glyph glyph-name="gbreve" unicode="&#x11f;" 
d="M594 1163q-109 0 -172 80t-57 211h108q-4 -83 28.5 -131.5t92.5 -48.5q61 0 94.5 48.5t28.5 131.5h106q6 -132 -56.5 -211.5t-172.5 -79.5zM836 940v123h116v-1008q0 -155 -92.5 -239t-261.5 -84q-132 0 -231 66t-150 188l96 61q14 -36 36.5 -69t56.5 -64t84 -49.5
t108 -18.5q238 0 238 209v191q-92 -137 -254 -137q-169 0 -278 136.5t-109 348.5q0 211 109 347t278 136q162 0 254 -137zM584 223q112 0 180.5 95.5t71.5 256.5v19q0 169 -68.5 269t-183.5 100q-120 0 -196.5 -103t-76.5 -266t76.5 -267t196.5 -104z" />
    <glyph glyph-name="Gdotaccent" unicode="&#x120;" 
d="M590 1597q-43 0 -72 31.5t-29 77.5t29 77.5t72 31.5q44 0 73 -31t29 -78t-29 -78t-73 -31zM590 676v123h485v-676h-121v174q-122 -188 -344 -188q-230 0 -376 187.5t-146 483.5q0 193 64.5 347t179 240.5t258.5 86.5q174 0 301.5 -114.5t165.5 -305.5l-121 -22
q-26 144 -121.5 231.5t-224.5 87.5q-164 0 -271.5 -156t-107.5 -395q0 -243 112 -397t287 -154q149 0 246.5 114t97.5 288v45h-364z" />
    <glyph glyph-name="gdotaccent" unicode="&#x121;" 
d="M571 1237q-44 0 -73 31t-29 78t29 77.5t73 30.5t72.5 -30.5t28.5 -77.5t-28.5 -78t-72.5 -31zM836 940v123h116v-1008q0 -155 -92.5 -239t-261.5 -84q-132 0 -231 66t-150 188l96 61q14 -36 36.5 -69t56.5 -64t84 -49.5t108 -18.5q238 0 238 209v191q-92 -137 -254 -137
q-169 0 -278 136.5t-109 348.5q0 211 109 347t278 136q162 0 254 -137zM584 223q112 0 180.5 95.5t71.5 256.5v19q0 169 -68.5 269t-183.5 100q-120 0 -196.5 -103t-76.5 -266t76.5 -267t196.5 -104z" />
    <glyph glyph-name="uni0122" unicode="&#x122;" 
d="M590 676v123h485v-676h-121v174q-122 -188 -344 -188q-230 0 -376 187.5t-146 483.5q0 193 64.5 347t179 240.5t258.5 86.5q174 0 301.5 -114.5t165.5 -305.5l-121 -22q-26 144 -121.5 231.5t-224.5 87.5q-164 0 -271.5 -156t-107.5 -395q0 -243 112 -397t287 -154
q149 0 246.5 114t97.5 288v45h-364zM606 39q52 0 83.5 -46.5t31.5 -121.5q0 -157 -119 -295l-86 66q77 86 86 196q-40 6 -64 33.5t-24 65.5q0 44 26 73t66 29z" />
    <glyph glyph-name="uni0123" unicode="&#x123;" 
d="M582 1163q-52 0 -82.5 45t-30.5 123t31 155.5t86 137.5l86 -65q-75 -82 -88 -195q41 -6 66.5 -33t25.5 -67q0 -41 -28 -71t-66 -30zM836 940v123h116v-1008q0 -155 -92.5 -239t-261.5 -84q-132 0 -231 66t-150 188l96 61q14 -36 36.5 -69t56.5 -64t84 -49.5t108 -18.5
q238 0 238 209v191q-92 -137 -254 -137q-169 0 -278 136.5t-109 348.5q0 211 109 347t278 136q162 0 254 -137zM584 223q112 0 180.5 95.5t71.5 256.5v19q0 169 -68.5 269t-183.5 100q-120 0 -196.5 -103t-76.5 -266t76.5 -267t196.5 -104z" />
    <glyph glyph-name="Hcircumflex" unicode="&#x124;" 
d="M229 1538l287 299h129l287 -299h-154l-198 209l-199 -209h-152zM922 123v622h-682v-622h-121v1317h121v-572h682v572h120v-1317h-120z" />
    <glyph glyph-name="hcircumflex" unicode="&#x125;" 
d="M651 1516h-151l-201 208l-199 -208h-151l287 299h131zM639 1077q141 0 222 -84t81 -231v-639h-117v633q0 101 -50.5 154t-147.5 53q-116 0 -191.5 -96t-75.5 -244v-500h-118v1317h118v-514q102 151 279 151z" />
    <glyph glyph-name="Hbar" unicode="&#x126;" 
d="M-20 1100v114h139v226h121v-226h682v226h120v-226h140v-114h-140v-977h-120v622h-682v-622h-121v977h-139zM240 1100v-232h682v232h-682z" />
    <glyph glyph-name="hbar" unicode="&#x127;" 
d="M639 1077q141 0 222 -84t81 -231v-639h-117v633q0 101 -50.5 154t-147.5 53q-116 0 -191.5 -96t-75.5 -244v-500h-118v1083h-162v111h162v123h118v-123h185v-111h-185v-280q102 151 279 151z" />
    <glyph glyph-name="Itilde" unicode="&#x128;" 
d="M696 1593q-28 0 -59 14t-43.5 23.5t-44.5 34.5q-57 47 -80 47q-28 0 -39 -27t-8 -88h-111q-3 109 37.5 169.5t116.5 60.5q28 0 59 -14t43.5 -23.5t44.5 -34.5q57 -47 80 -47q28 0 39 27t8 88h111q3 -109 -37.5 -169.5t-116.5 -60.5zM193 1321v119h778v-119h-330v-1079
h330v-119h-778v119h327v1079h-327z" />
    <glyph glyph-name="itilde" unicode="&#x129;" 
d="M741 1219q-27 0 -56.5 12t-47 24t-43.5 33q-57 47 -82 47q-51 0 -45 -114h-111q-3 108 37 168.5t115 60.5q28 0 58.5 -12.5t47.5 -25t45 -34.5q55 -45 80 -45q51 0 45 113h111q3 -108 -37.5 -167.5t-116.5 -59.5zM270 123v115h297v710h-264v115h381v-825h291v-115h-705z
" />
    <glyph glyph-name="Imacron" unicode="&#x12a;" 
d="M338 1645v114h485v-114h-485zM193 1321v119h778v-119h-330v-1079h330v-119h-778v119h327v1079h-327z" />
    <glyph glyph-name="imacron" unicode="&#x12b;" 
d="M383 1270v114h485v-114h-485zM270 123v115h297v710h-264v115h381v-825h291v-115h-705z" />
    <glyph glyph-name="Ibreve" unicode="&#x12c;" 
d="M582 1538q-109 0 -172.5 80.5t-57.5 212.5h107q-4 -85 28.5 -133.5t94.5 -48.5q60 0 92.5 49.5t27.5 132.5h107q6 -132 -56 -212.5t-171 -80.5zM193 1321v119h778v-119h-330v-1079h330v-119h-778v119h327v1079h-327z" />
    <glyph glyph-name="ibreve" unicode="&#x12d;" 
d="M625 1163q-109 0 -172.5 80.5t-57.5 210.5h109q-5 -82 28 -131t93 -49q61 0 94.5 48.5t28.5 131.5h108q6 -130 -58 -210.5t-173 -80.5zM270 123v115h297v710h-264v115h381v-825h291v-115h-705z" />
    <glyph glyph-name="Iogonek" unicode="&#x12e;" 
d="M657 -268h-67q-103 0 -161 50.5t-58 139.5q0 110 104 201h-282v119h327v1079h-327v119h778v-119h-330v-1079h330v-119h-353q-133 -88 -133 -186q0 -91 113 -91h59v-114z" />
    <glyph glyph-name="iogonek" unicode="&#x12f;" 
d="M606 1237q-43 0 -71.5 31.5t-28.5 77.5t28.5 77t71.5 31q44 0 73.5 -30.5t29.5 -77.5t-29.5 -78t-73.5 -31zM270 123v115h297v710h-264v115h381v-825h291v-115h-303q-133 -88 -133 -186q0 -91 112 -91h60v-114h-68q-103 0 -161 50.5t-58 139.5q0 110 104 201h-258z" />
    <glyph glyph-name="Idotaccent" unicode="&#x130;" 
d="M582 1597q-44 0 -72.5 31t-28.5 78t28.5 78t72.5 31q43 0 70.5 -31t27.5 -78t-27.5 -78t-70.5 -31zM193 1321v119h778v-119h-330v-1079h330v-119h-778v119h327v1079h-327z" />
    <glyph glyph-name="dotlessi" unicode="&#x131;" 
d="M270 123v115h297v710h-264v115h381v-825h291v-115h-705z" />
    <glyph glyph-name="IJ" unicode="&#x132;" 
d="M221 588v852h123v-852h-123zM606 109q-311 0 -381 333l119 35q20 -121 87.5 -184.5t174.5 -63.5q101 0 157 66.5t56 187.5v957h121v-957q0 -173 -89.5 -273.5t-244.5 -100.5z" />
    <glyph glyph-name="ij" unicode="&#x133;" 
d="M324 1237q-44 0 -72.5 31t-28.5 78t28.5 77.5t72.5 30.5t72 -30.5t28 -77.5t-28 -78t-72 -31zM840 1237q-44 0 -73.5 31t-29.5 78t29.5 77.5t73.5 30.5q43 0 70.5 -30.5t27.5 -77.5t-27.5 -78t-70.5 -31zM266 123v940h115v-940h-115zM614 -268q-230 0 -331 239l114 41
q35 -86 87.5 -126t129.5 -40t121.5 46.5t44.5 125.5v1045h117v-1045q0 -133 -75.5 -209.5t-207.5 -76.5z" />
    <glyph glyph-name="Jcircumflex" unicode="&#x134;" 
d="M512 1538l285 299h131l286 -299h-153l-201 209l-196 -209h-152zM530 109q-183 0 -292 94t-150 289l121 30q25 -145 106 -219t215 -74q132 0 201.5 75.5t69.5 221.5v914h123v-914q0 -197 -104 -307t-290 -110z" />
    <glyph glyph-name="jcircumflex" unicode="&#x135;" 
d="M391 1163l287 299h129l285 -299h-152l-201 207l-198 -207h-150zM518 -268q-118 0 -205 57t-127 160l115 31q49 -134 217 -134q86 0 126 45t40 142v1030h117v-1030q0 -148 -72.5 -224.5t-210.5 -76.5z" />
    <glyph glyph-name="uni0136" unicode="&#x136;" 
d="M983 123l-539 659l-137 -135v-524h-121v1317h121v-637l651 637h160l-586 -574l609 -743h-158zM598 -387l-86 65q79 95 88 197q-40 6 -65 33t-25 65q0 44 26.5 73.5t67.5 29.5q51 0 82 -46t31 -122q0 -157 -119 -295z" />
    <glyph glyph-name="uni0137" unicode="&#x137;" 
d="M881 123l-385 536l-134 -127v-409h-116v1317h116v-754l386 377h163l-325 -320l442 -620h-147zM573 -387l-86 65q76 91 88 197q-40 6 -64 33t-24 65q0 44 26.5 73.5t66.5 29.5q52 0 83 -46t31 -122q0 -77 -31.5 -155t-89.5 -140z" />
    <glyph glyph-name="kgreenlandic" unicode="&#x138;" 
d="M864 123l-327 479l-152 -151v-328h-117v940h117v-455l449 455h157l-375 -379l394 -561h-146z" />
    <glyph glyph-name="Lacute" unicode="&#x139;" 
d="M141 1516l13 110l421 172l-16 -145zM211 123v1317h121v-1194h700v-123h-821z" />
    <glyph glyph-name="lacute" unicode="&#x13a;" 
d="M430 1516l10 106l424 176l-22 -145zM252 123v115h301v1087h-287v115h404v-1202h305v-115h-723z" />
    <glyph glyph-name="uni013B" unicode="&#x13b;" 
d="M211 123v1317h121v-1194h700v-123h-821zM604 -387l-86 65q76 85 88 197q-40 6 -64 33t-24 65q0 44 26 73.5t66 29.5q52 0 83.5 -46.5t31.5 -121.5q0 -77 -31.5 -155t-89.5 -140z" />
    <glyph glyph-name="uni013C" unicode="&#x13c;" 
d="M252 123v115h301v1087h-287v115h404v-1202h305v-115h-723zM592 -387l-86 65q76 91 88 197q-40 6 -65 33t-25 65q0 44 26.5 73.5t67.5 29.5q52 0 82.5 -45.5t30.5 -122.5t-31 -154.5t-88 -140.5z" />
    <glyph glyph-name="Lcaron" unicode="&#x13d;" 
d="M211 123v1317h121v-1194h700v-123h-821zM461 1122l49 318h133l-80 -318h-102z" />
    <glyph glyph-name="lcaron" unicode="&#x13e;" 
d="M252 123v115h301v1087h-287v115h404v-1202h305v-115h-723zM756 1122l49 318h133l-80 -318h-102z" />
    <glyph glyph-name="Ldot" unicode="&#x13f;" 
d="M211 123v1317h121v-1194h700v-123h-821zM623 672q-44 0 -72.5 30.5t-28.5 77.5q0 49 28.5 80t72.5 31t72 -31t28 -80q0 -47 -28 -77.5t-72 -30.5z" />
    <glyph glyph-name="ldot" unicode="&#x140;" 
d="M252 123v115h301v1087h-287v115h404v-1202h305v-115h-723zM848 672q-43 0 -71.5 31t-28.5 77q0 47 28.5 79t71.5 32q44 0 72 -31t28 -80q0 -47 -28 -77.5t-72 -30.5z" />
    <glyph glyph-name="Lslash" unicode="&#x141;" 
d="M88 520l-47 103l170 98v719h121v-649l313 178l47 -105l-360 -207v-411h700v-123h-821v467z" />
    <glyph glyph-name="lslash" unicode="&#x142;" 
d="M348 498l-65 92l270 211v524h-287v115h404v-553l204 162l64 -91l-268 -213v-507h305v-115h-723v115h301v424z" />
    <glyph glyph-name="Nacute" unicode="&#x143;" 
d="M412 1626l422 172l-17 -145l-418 -137zM922 305v1135h120v-1317h-149l-631 1085l-2 2l-20 45v-1132h-121v1317h155l623 -1084h2z" />
    <glyph glyph-name="nacute" unicode="&#x144;" 
d="M414 1247l424 174l-17 -143l-418 -139zM651 1077q129 0 207 -82t78 -217v-655h-117v647q0 92 -45.5 142.5t-130.5 50.5q-92 0 -160 -69.5t-99.5 -175t-31.5 -229.5v-366h-116v940h116v-182q50 94 127 145t172 51z" />
    <glyph glyph-name="uni0145" unicode="&#x145;" 
d="M922 305v1135h120v-1317h-149l-631 1085l-2 2l-20 45v-1132h-121v1317h155l623 -1084h2zM565 76q52 0 82.5 -45.5t30.5 -122.5q0 -162 -117 -295l-86 65q77 86 86 197q-40 6 -65 33t-25 65q0 43 27 73t67 30z" />
    <glyph glyph-name="uni0146" unicode="&#x146;" 
d="M651 1077q129 0 207 -82t78 -217v-655h-117v647q0 92 -45.5 142.5t-130.5 50.5q-92 0 -160 -69.5t-99.5 -175t-31.5 -229.5v-366h-116v940h116v-182q50 94 127 145t172 51zM569 76q52 0 82.5 -45.5t30.5 -122.5t-31 -154.5t-88 -140.5l-84 65q74 86 86 197q-40 6 -65 33
t-25 65q0 44 26.5 73.5t67.5 29.5z" />
    <glyph glyph-name="Ncaron" unicode="&#x147;" 
d="M932 1837l-287 -299h-129l-287 299h154l199 -209l198 209h152zM922 305v1135h120v-1317h-149l-631 1085l-2 2l-20 45v-1132h-121v1317h155l623 -1084h2z" />
    <glyph glyph-name="ncaron" unicode="&#x148;" 
d="M936 1462l-289 -299h-129l-285 299h154l199 -211l198 211h152zM651 1077q129 0 207 -82t78 -217v-655h-117v647q0 92 -45.5 142.5t-130.5 50.5q-92 0 -160 -69.5t-99.5 -175t-31.5 -229.5v-366h-116v940h116v-182q50 94 127 145t172 51z" />
    <glyph glyph-name="napostrophe" unicode="&#x149;" 
d="M113 1454q52 0 83 -46t31 -122q0 -77 -31.5 -155t-89.5 -140l-86 66q77 87 89 196q-40 6 -64.5 33.5t-24.5 65.5q0 44 26.5 73t66.5 29zM651 1077q129 0 207 -82t78 -217v-655h-117v647q0 92 -45.5 142.5t-130.5 50.5q-92 0 -160 -69.5t-99.5 -175t-31.5 -229.5v-366
h-116v940h116v-182q50 94 127 145t172 51z" />
    <glyph glyph-name="napostrophe" unicode="&#x2bc;" 
d="M113 1454q52 0 83 -46t31 -122q0 -77 -31.5 -155t-89.5 -140l-86 66q77 87 89 196q-40 6 -64.5 33.5t-24.5 65.5q0 44 26.5 73t66.5 29zM651 1077q129 0 207 -82t78 -217v-655h-117v647q0 92 -45.5 142.5t-130.5 50.5q-92 0 -160 -69.5t-99.5 -175t-31.5 -229.5v-366
h-116v940h116v-182q50 94 127 145t172 51z" />
    <glyph glyph-name="Eng" unicode="&#x14a;" 
d="M922 342v1098h120v-1334q0 -175 -82 -274.5t-227 -99.5q-142 0 -232.5 87t-119.5 253l121 30q20 -120 78 -183.5t149 -63.5q93 0 143 65t50 186v5l-656 1103l-26 50v-1141h-121v1317h155l621 -1049z" />
    <glyph glyph-name="eng" unicode="&#x14b;" 
d="M651 1077q129 0 207 -82t78 -217v-768q0 -134 -64 -206t-182 -72q-67 0 -131 29t-113 83l64 103q88 -101 180 -101q63 0 96 42t33 122v760q0 92 -45.5 142.5t-130.5 50.5q-92 0 -160 -69.5t-99.5 -175t-31.5 -229.5v-366h-116v940h116v-182q50 94 127 145t172 51z" />
    <glyph glyph-name="Omacron" unicode="&#x14c;" 
d="M338 1645v114h485v-114h-485zM582 109q-147 0 -265 86.5t-184.5 240t-66.5 344.5q0 192 66 346t184.5 241t265.5 87t264.5 -87t183.5 -241t66 -346t-66 -345.5t-183.5 -239.5t-264.5 -86zM582 229q167 0 280 158t113 393q0 155 -51 281.5t-141 198t-201 71.5
q-169 0 -282.5 -157.5t-113.5 -393.5q0 -154 51.5 -280.5t142.5 -198.5t202 -72z" />
    <glyph glyph-name="omacron" unicode="&#x14d;" 
d="M338 1270v114h485v-114h-485zM582 109q-179 0 -293.5 136.5t-114.5 348.5q0 211 115 347t293 136q177 0 291 -136t114 -347t-114 -348t-291 -137zM582 223q126 0 206 104t80 267t-80 266t-206 103q-127 0 -208 -103t-81 -266q0 -164 80.5 -267.5t208.5 -103.5z" />
    <glyph glyph-name="Obreve" unicode="&#x14e;" 
d="M582 1538q-109 0 -172.5 80.5t-57.5 212.5h107q-4 -85 28.5 -133.5t94.5 -48.5q60 0 92.5 49.5t27.5 132.5h107q6 -132 -56 -212.5t-171 -80.5zM582 109q-147 0 -265 86.5t-184.5 240t-66.5 344.5q0 192 66 346t184.5 241t265.5 87t264.5 -87t183.5 -241t66 -346
t-66 -345.5t-183.5 -239.5t-264.5 -86zM582 229q167 0 280 158t113 393q0 155 -51 281.5t-141 198t-201 71.5q-169 0 -282.5 -157.5t-113.5 -393.5q0 -154 51.5 -280.5t142.5 -198.5t202 -72z" />
    <glyph glyph-name="obreve" unicode="&#x14f;" 
d="M582 1163q-110 0 -173 79.5t-57 211.5h107q-5 -83 28.5 -131.5t94.5 -48.5q60 0 92 48.5t28 131.5h107q6 -130 -57 -210.5t-170 -80.5zM582 109q-179 0 -293.5 136.5t-114.5 348.5q0 211 115 347t293 136q177 0 291 -136t114 -347t-114 -348t-291 -137zM582 223
q126 0 206 104t80 267t-80 266t-206 103q-127 0 -208 -103t-81 -266q0 -164 80.5 -267.5t208.5 -103.5z" />
    <glyph glyph-name="Ohungarumlaut" unicode="&#x150;" 
d="M387 1532l178 299h152l-207 -299h-123zM623 1532l206 299h154l-238 -299h-122zM582 109q-147 0 -265 86.5t-184.5 240t-66.5 344.5q0 192 66 346t184.5 241t265.5 87t264.5 -87t183.5 -241t66 -346t-66 -345.5t-183.5 -239.5t-264.5 -86zM582 229q167 0 280 158t113 393
q0 155 -51 281.5t-141 198t-201 71.5q-169 0 -282.5 -157.5t-113.5 -393.5q0 -154 51.5 -280.5t142.5 -198.5t202 -72z" />
    <glyph glyph-name="ohungarumlaut" unicode="&#x151;" 
d="M387 1155l178 299h152l-207 -299h-123zM623 1155l206 299h154l-238 -299h-122zM582 109q-179 0 -293.5 136.5t-114.5 348.5q0 211 115 347t293 136q177 0 291 -136t114 -347t-114 -348t-291 -137zM582 223q126 0 206 104t80 267t-80 266t-206 103q-127 0 -208 -103
t-81 -266q0 -164 80.5 -267.5t208.5 -103.5z" />
    <glyph glyph-name="OE" unicode="&#x152;" 
d="M1141 123h-531q-241 0 -385.5 179.5t-144.5 477.5q0 300 144.5 480t385.5 180h498v-123h-371v-438h320v-121h-320v-512h404v-123zM199 780q0 -250 109.5 -392t301.5 -142h6v1071h-6q-193 0 -302 -142.5t-109 -394.5z" />
    <glyph glyph-name="oe" unicode="&#x153;" 
d="M1116 637v-80h-452q6 -157 57.5 -245.5t136.5 -88.5q58 0 97.5 39.5t64.5 122.5l96 -53q-34 -106 -102 -164.5t-158 -58.5q-83 0 -147.5 50t-102.5 144q-40 -94 -103.5 -144t-144.5 -50q-136 0 -220.5 134t-84.5 351q0 215 84.5 349t220.5 134q167 0 248 -194
q35 94 96.5 144t139.5 50q126 0 200 -119.5t74 -320.5zM358 223q83 0 136 104t53 267q0 166 -52 267.5t-137 101.5t-136.5 -101.5t-51.5 -267.5t51.5 -268.5t136.5 -102.5zM666 672h333q-6 136 -47.5 213.5t-109.5 77.5q-71 0 -118.5 -78t-57.5 -213z" />
    <glyph glyph-name="Racute" unicode="&#x154;" 
d="M393 1516l10 106l424 176l-22 -145zM946 123l-297 598h-350v-598h-121v1317h473q169 0 271 -99t102 -262q0 -128 -66.5 -218.5t-183.5 -121.5l307 -616h-135zM651 1317h-352v-475h352q114 0 182 65t68 172q0 108 -68 173t-182 65z" />
    <glyph glyph-name="racute" unicode="&#x155;" 
d="M461 1251l422 170l-17 -143l-417 -139zM696 1077q134 0 209 -88.5t78 -249.5l-115 -16q-2 123 -45 181.5t-133 58.5q-76 0 -141.5 -54.5t-104 -146.5t-38.5 -199v-440h-119v940h119v-166q110 180 290 180z" />
    <glyph glyph-name="uni0156" unicode="&#x156;" 
d="M946 123l-297 598h-350v-598h-121v1317h473q169 0 271 -99t102 -262q0 -128 -66.5 -218.5t-183.5 -121.5l307 -616h-135zM651 1317h-352v-475h352q114 0 182 65t68 172q0 108 -68 173t-182 65zM582 -387l-86 65q76 91 88 197q-40 6 -65 33t-25 65q0 44 26.5 73.5
t67.5 29.5q51 0 81.5 -46t30.5 -122q0 -158 -118 -295z" />
    <glyph glyph-name="uni0157" unicode="&#x157;" 
d="M696 1077q134 0 209 -88.5t78 -249.5l-115 -16q-2 123 -45 181.5t-133 58.5q-76 0 -141.5 -54.5t-104 -146.5t-38.5 -199v-440h-119v940h119v-166q110 180 290 180zM334 76q52 0 82 -45.5t30 -122.5t-31 -155t-87 -140l-86 65q76 85 88 197q-40 6 -65 33t-25 65
q0 44 26.5 73.5t67.5 29.5z" />
    <glyph glyph-name="Rcaron" unicode="&#x158;" 
d="M510 1538l-287 299h154l198 -209l201 209h150l-287 -299h-129zM946 123l-297 598h-350v-598h-121v1317h473q169 0 271 -99t102 -262q0 -128 -66.5 -218.5t-183.5 -121.5l307 -616h-135zM651 1317h-352v-475h352q114 0 182 65t68 172q0 108 -68 173t-182 65z" />
    <glyph glyph-name="rcaron" unicode="&#x159;" 
d="M981 1462l-285 -299h-131l-286 299h153l201 -211l198 211h150zM696 1077q134 0 209 -88.5t78 -249.5l-115 -16q-2 123 -45 181.5t-133 58.5q-76 0 -141.5 -54.5t-104 -146.5t-38.5 -199v-440h-119v940h119v-166q110 180 290 180z" />
    <glyph glyph-name="Sacute" unicode="&#x15a;" 
d="M391 1516l10 106l424 176l-22 -145zM643 109q-438 0 -567 434l114 26q57 -172 168.5 -256t284.5 -84q138 0 224.5 78t86.5 201q0 110 -70.5 167.5t-228.5 74.5l-149 14q-203 20 -298 95t-95 216q0 167 124 273t320 106q187 0 315 -102.5t156 -274.5l-119 -22
q-23 129 -117 202.5t-235 73.5q-147 0 -235.5 -67t-88.5 -177q0 -94 64 -137.5t227 -62.5l152 -15q198 -20 298.5 -109t100.5 -243q0 -181 -120.5 -296t-311.5 -115z" />
    <glyph glyph-name="sacute" unicode="&#x15b;" 
d="M403 1139l11 108l424 174l-17 -143zM631 109q-188 0 -300 84.5t-143 250.5l115 7q22 -112 105 -170t223 -58q106 0 170.5 48t64.5 126q0 144 -202 156l-134 6q-305 18 -305 248q0 120 92 195t240 75q337 0 383 -299l-115 -6q-17 99 -81.5 145t-186.5 46q-98 0 -157.5 -42
t-59.5 -110q0 -66 45.5 -96t159.5 -37l131 -6q146 -9 224.5 -79t78.5 -192q0 -129 -97 -210.5t-251 -81.5z" />
    <glyph glyph-name="Scircumflex" unicode="&#x15c;" 
d="M219 1538l287 299h129l287 -299h-154l-199 209l-200 -209h-150zM643 109q-438 0 -567 434l114 26q57 -172 168.5 -256t284.5 -84q138 0 224.5 78t86.5 201q0 110 -70.5 167.5t-228.5 74.5l-149 14q-203 20 -298 95t-95 216q0 167 124 273t320 106q187 0 315 -102.5
t156 -274.5l-119 -22q-23 129 -117 202.5t-235 73.5q-147 0 -235.5 -67t-88.5 -177q0 -94 64 -137.5t227 -62.5l152 -15q198 -20 298.5 -109t100.5 -243q0 -181 -120.5 -296t-311.5 -115z" />
    <glyph glyph-name="scircumflex" unicode="&#x15d;" 
d="M233 1163l285 299h129l289 -299h-156l-198 207l-199 -207h-150zM631 109q-188 0 -300 84.5t-143 250.5l115 7q22 -112 105 -170t223 -58q106 0 170.5 48t64.5 126q0 144 -202 156l-134 6q-305 18 -305 248q0 120 92 195t240 75q337 0 383 -299l-115 -6q-17 99 -81.5 145
t-186.5 46q-98 0 -157.5 -42t-59.5 -110q0 -66 45.5 -96t159.5 -37l131 -6q146 -9 224.5 -79t78.5 -192q0 -129 -97 -210.5t-251 -81.5z" />
    <glyph glyph-name="Scedilla" unicode="&#x15e;" 
d="M518 -268v114h113q78 0 78 66q0 63 -78 63h-62v136q-376 35 -493 432l114 26q57 -172 168.5 -256t284.5 -84q138 0 224.5 78t86.5 201q0 110 -70.5 167.5t-228.5 74.5l-149 14q-203 20 -298 95t-95 216q0 167 124 273t320 106q187 0 315 -102.5t156 -274.5l-119 -22
q-23 129 -117 202.5t-235 73.5q-147 0 -235.5 -67t-88.5 -177q0 -94 64 -137.5t227 -62.5l152 -15q198 -20 298.5 -109t100.5 -243q0 -172 -111 -286.5t-288 -124.5v-31q70 -12 108.5 -55t38.5 -109q0 -82 -51.5 -132t-136.5 -50h-117z" />
    <glyph glyph-name="scedilla" unicode="&#x15f;" 
d="M489 -268v114h115q80 0 80 66q0 63 -80 63h-61v140q-299 35 -355 329l115 7q22 -112 105 -170t223 -58q106 0 170.5 48t64.5 126q0 144 -202 156l-134 6q-305 18 -305 248q0 120 92 195t240 75q337 0 383 -299l-115 -6q-17 99 -81.5 145t-186.5 46q-98 0 -157.5 -42
t-59.5 -110q0 -66 45.5 -96t159.5 -37l131 -6q146 -9 224.5 -79t78.5 -192q0 -124 -91 -205t-237 -87v-31q69 -12 107.5 -55t38.5 -109q0 -83 -52 -132.5t-139 -49.5h-117z" />
    <glyph glyph-name="Scaron" unicode="&#x160;" 
d="M506 1538l-287 299h154l200 -209l199 209h150l-287 -299h-129zM643 109q-438 0 -567 434l114 26q57 -172 168.5 -256t284.5 -84q138 0 224.5 78t86.5 201q0 110 -70.5 167.5t-228.5 74.5l-149 14q-203 20 -298 95t-95 216q0 167 124 273t320 106q187 0 315 -102.5
t156 -274.5l-119 -22q-23 129 -117 202.5t-235 73.5q-147 0 -235.5 -67t-88.5 -177q0 -94 64 -137.5t227 -62.5l152 -15q198 -20 298.5 -109t100.5 -243q0 -181 -120.5 -296t-311.5 -115z" />
    <glyph glyph-name="scaron" unicode="&#x161;" 
d="M518 1163l-285 299h154l199 -211l198 211h152l-289 -299h-129zM631 109q-188 0 -300 84.5t-143 250.5l115 7q22 -112 105 -170t223 -58q106 0 170.5 48t64.5 126q0 144 -202 156l-134 6q-305 18 -305 248q0 120 92 195t240 75q337 0 383 -299l-115 -6q-17 99 -81.5 145
t-186.5 46q-98 0 -157.5 -42t-59.5 -110q0 -66 45.5 -96t159.5 -37l131 -6q146 -9 224.5 -79t78.5 -192q0 -129 -97 -210.5t-251 -81.5z" />
    <glyph glyph-name="uni0162" unicode="&#x162;" 
d="M473 -268v114h115q80 0 80 66q0 63 -80 63h-62v148h-6v1194h-395v123h911v-123h-395v-1194h-6v-45q69 -12 107 -55t38 -109q0 -83 -52 -132.5t-138 -49.5h-117z" />
    <glyph glyph-name="uni0163" unicode="&#x163;" 
d="M567 -268v114h113q80 0 80 66q0 63 -80 63h-62v140q-96 13 -150 83t-54 181v569h-242v115h242v280h116v-280h400v-115h-400v-561q0 -164 146 -164q63 0 119 37.5t94 104.5l74 -84q-37 -60 -96.5 -107t-139.5 -59v-37q70 -12 108.5 -55t38.5 -109q0 -83 -52 -132.5
t-138 -49.5h-117z" />
    <glyph glyph-name="Tcaron" unicode="&#x164;" 
d="M516 1538l-287 299h154l199 -209l198 209h152l-287 -299h-129zM125 1317v123h911v-123h-395v-1194h-121v1194h-395z" />
    <glyph glyph-name="tcaron" unicode="&#x165;" 
d="M612 1122l52 318h131l-78 -318h-105zM172 948v115h242v280h116v-280h400v-115h-400v-561q0 -164 146 -164q63 0 119 37.5t94 104.5l74 -84q-52 -83 -127 -127.5t-162 -44.5q-121 0 -190.5 72t-69.5 198v569h-242z" />
    <glyph glyph-name="Tbar" unicode="&#x166;" 
d="M125 1317v123h911v-123h-395v-449h315v-114h-315v-631h-121v631h-315v114h315v449h-395z" />
    <glyph glyph-name="tbar" unicode="&#x167;" 
d="M172 948v115h242v280h116v-280h400v-115h-400v-260h400v-113h-400v-188q0 -164 146 -164q63 0 119 37.5t94 104.5l74 -84q-52 -83 -127 -127.5t-162 -44.5q-121 0 -190.5 72t-69.5 198v196h-242v113h242v260h-242z" />
    <glyph glyph-name="Utilde" unicode="&#x168;" 
d="M696 1593q-28 0 -59 14t-43.5 23.5t-44.5 34.5q-57 47 -80 47q-28 0 -39 -27t-8 -88h-111q-3 109 37.5 169.5t116.5 60.5q28 0 59 -14t43.5 -23.5t44.5 -34.5q57 -47 80 -47q28 0 39 27t8 88h111q3 -109 -37.5 -169.5t-116.5 -60.5zM582 109q-217 0 -343 121.5
t-126 332.5v877h120v-877q0 -157 93 -245.5t256 -88.5t255.5 88.5t92.5 245.5v877h119v-877q0 -211 -125 -332.5t-342 -121.5z" />
    <glyph glyph-name="utilde" unicode="&#x169;" 
d="M420 1221h-111q-3 109 37.5 169t116.5 60q27 0 57 -12.5t46.5 -24t43.5 -33.5q57 -47 82 -47q51 0 45 113h111q3 -108 -37.5 -167.5t-116.5 -59.5q-27 0 -57 13t-44.5 22.5t-45.5 33.5q-57 47 -80 47q-28 0 -39 -26.5t-8 -87.5zM813 696v367h117v-940h-117v186
q-51 -97 -127.5 -148.5t-171.5 -51.5q-129 0 -207 82.5t-78 218.5v653h115v-647q0 -92 46.5 -142.5t131.5 -50.5q90 0 158 69t100.5 175t32.5 229z" />
    <glyph glyph-name="Umacron" unicode="&#x16a;" 
d="M338 1645v114h485v-114h-485zM582 109q-217 0 -343 121.5t-126 332.5v877h120v-877q0 -157 93 -245.5t256 -88.5t255.5 88.5t92.5 245.5v877h119v-877q0 -211 -125 -332.5t-342 -121.5z" />
    <glyph glyph-name="umacron" unicode="&#x16b;" 
d="M338 1384h485v-114h-485v114zM813 696v367h117v-940h-117v186q-51 -97 -127.5 -148.5t-171.5 -51.5q-129 0 -207 82.5t-78 218.5v653h115v-647q0 -92 46.5 -142.5t131.5 -50.5q90 0 158 69t100.5 175t32.5 229z" />
    <glyph glyph-name="Ubreve" unicode="&#x16c;" 
d="M582 1538q-109 0 -172.5 80.5t-57.5 212.5h107q-4 -85 28.5 -133.5t94.5 -48.5q60 0 92.5 49.5t27.5 132.5h107q6 -132 -56 -212.5t-171 -80.5zM582 109q-217 0 -343 121.5t-126 332.5v877h120v-877q0 -157 93 -245.5t256 -88.5t255.5 88.5t92.5 245.5v877h119v-877
q0 -211 -125 -332.5t-342 -121.5z" />
    <glyph glyph-name="ubreve" unicode="&#x16d;" 
d="M580 1163q-110 0 -173 79.5t-57 211.5h107q-5 -83 28.5 -131.5t94.5 -48.5t94 48.5t28 131.5h107q6 -132 -56.5 -211.5t-172.5 -79.5zM813 696v367h117v-940h-117v186q-51 -97 -127.5 -148.5t-171.5 -51.5q-129 0 -207 82.5t-78 218.5v653h115v-647q0 -92 46.5 -142.5
t131.5 -50.5q90 0 158 69t100.5 175t32.5 229z" />
    <glyph glyph-name="Uring" unicode="&#x16e;" 
d="M582 1534q-91 0 -152 65t-61 162t61 162.5t152 65.5q89 0 150 -66t61 -162q0 -95 -61 -161t-150 -66zM582 1638q44 0 76 36t32 87t-32 87t-76 36q-46 0 -77.5 -35.5t-31.5 -87.5t31.5 -87.5t77.5 -35.5zM582 109q-217 0 -343 121.5t-126 332.5v877h120v-877
q0 -157 93 -245.5t256 -88.5t255.5 88.5t92.5 245.5v877h119v-877q0 -211 -125 -332.5t-342 -121.5z" />
    <glyph glyph-name="uring" unicode="&#x16f;" 
d="M580 1159q-89 0 -151 66t-62 161q0 94 62 160t151 66q91 0 152 -65.5t61 -160.5q0 -97 -61 -162t-152 -65zM580 1509q-44 0 -76.5 -36t-32.5 -87q0 -54 31.5 -89t77.5 -35t77 35t31 89q0 51 -32 87t-76 36zM813 696v367h117v-940h-117v186q-51 -97 -127.5 -148.5
t-171.5 -51.5q-129 0 -207 82.5t-78 218.5v653h115v-647q0 -92 46.5 -142.5t131.5 -50.5q90 0 158 69t100.5 175t32.5 229z" />
    <glyph glyph-name="Uhungarumlaut" unicode="&#x170;" 
d="M387 1532l178 299h152l-207 -299h-123zM623 1532l206 299h154l-238 -299h-122zM582 109q-217 0 -343 121.5t-126 332.5v877h120v-877q0 -157 93 -245.5t256 -88.5t255.5 88.5t92.5 245.5v877h119v-877q0 -211 -125 -332.5t-342 -121.5z" />
    <glyph glyph-name="uhungarumlaut" unicode="&#x171;" 
d="M563 1454h152l-207 -299h-121zM981 1454l-238 -299h-122l206 299h154zM813 696v367h117v-940h-117v186q-51 -97 -127.5 -148.5t-171.5 -51.5q-129 0 -207 82.5t-78 218.5v653h115v-647q0 -92 46.5 -142.5t131.5 -50.5q90 0 158 69t100.5 175t32.5 229z" />
    <glyph glyph-name="Uogonek" unicode="&#x172;" 
d="M930 563v877h119v-877q0 -304 -271 -426q-75 -32 -124.5 -89t-49.5 -111q0 -91 113 -91h59v-114h-65q-103 0 -162.5 50.5t-59.5 139.5q0 99 91 187q-216 0 -341.5 122t-125.5 332v877h120v-877q0 -157 93 -245.5t256 -88.5t255.5 88.5t92.5 245.5z" />
    <glyph glyph-name="uogonek" unicode="&#x173;" 
d="M883 -154h59v-114h-65q-103 0 -162.5 50.5t-59.5 139.5q0 71 42 129t116 113v145q-51 -97 -127.5 -148.5t-171.5 -51.5q-129 0 -207 82.5t-78 218.5v653h115v-647q0 -92 46.5 -142.5t131.5 -50.5q90 0 158 69t100.5 175t32.5 229v367h117v-932q-160 -86 -160 -194
q0 -91 113 -91z" />
    <glyph glyph-name="Wcircumflex" unicode="&#x174;" 
d="M778 1538l-198 209l-199 -209h-152l287 299h129l287 -299h-154zM834 530l112 910h121l-174 -1317h-145l-162 835l-6 54l-9 -54l-159 -835h-142l-174 1317h123l113 -914l16 -174l29 178l141 732h125l141 -732l31 -190z" />
    <glyph glyph-name="wcircumflex" unicode="&#x175;" 
d="M780 1163l-198 207l-199 -207h-152l287 299h129l287 -299h-154zM825 457l129 606h119l-207 -940h-123l-149 606l-12 68l-15 -68l-149 -606h-123l-207 940h121l131 -606l22 -142l25 142l131 518h129l129 -518l27 -144z" />
    <glyph glyph-name="Ycircumflex" unicode="&#x176;" 
d="M229 1538l287 299h129l287 -299h-154l-198 209l-199 -209h-152zM520 123v620l-436 697h137l361 -580l360 580h137l-438 -697v-620h-121z" />
    <glyph glyph-name="ycircumflex" unicode="&#x177;" 
d="M301 1163l287 299h129l287 -299h-154l-199 207l-200 -207h-150zM406 -268q-54 0 -105 21t-88 54.5t-62.5 66.5t-41.5 65l98 57q34 -72 86.5 -111t112.5 -39t90 30t61 120l53 143l-360 924h123l252 -639l45 -125l39 125l221 639h123l-381 -1090q-25 -66 -46.5 -106.5
t-52 -73.5t-71 -47t-96.5 -14z" />
    <glyph glyph-name="Ydieresis" unicode="&#x178;" 
d="M406 1546q-40 0 -67.5 29t-27.5 72q0 44 27 73t68 29q40 0 66 -29t26 -73q0 -43 -26 -72t-66 -29zM756 1546q-40 0 -66 29t-26 72q0 44 26 73t66 29q41 0 67.5 -29t26.5 -73q0 -43 -27 -72t-67 -29zM520 123v620l-436 697h137l361 -580l360 580h137l-438 -697v-620h-121z
" />
    <glyph glyph-name="Zacute" unicode="&#x179;" 
d="M397 1516l11 106l421 176l-16 -145zM66 123v102l702 963l100 131l-125 -2h-618v123h903v-103l-700 -962l-101 -133l125 4h744v-123h-1030z" />
    <glyph glyph-name="zacute" unicode="&#x17a;" 
d="M381 1139l10 108l422 174l-16 -143zM193 123v94l454 617l90 116l-119 -2h-393v115h672v-94l-457 -617l-92 -119l123 5h492v-115h-770z" />
    <glyph glyph-name="Zdotaccent" unicode="&#x17b;" 
d="M578 1597q-44 0 -72.5 31t-28.5 78t28.5 78t72.5 31q43 0 70.5 -31t27.5 -78t-27.5 -78t-70.5 -31zM66 123v102l702 963l100 131l-125 -2h-618v123h903v-103l-700 -962l-101 -133l125 4h744v-123h-1030z" />
    <glyph glyph-name="zdotaccent" unicode="&#x17c;" 
d="M561 1221q-44 0 -72 30.5t-28 79.5q0 47 28 78t72 31q43 0 70.5 -31t27.5 -78t-27.5 -78.5t-70.5 -31.5zM193 123v94l454 617l90 116l-119 -2h-393v115h672v-94l-457 -617l-92 -119l123 5h492v-115h-770z" />
    <glyph glyph-name="Zcaron" unicode="&#x17d;" 
d="M514 1538l-289 299h156l199 -209l198 209h150l-285 -299h-129zM66 123v102l702 963l100 131l-125 -2h-618v123h903v-103l-700 -962l-101 -133l125 4h744v-123h-1030z" />
    <glyph glyph-name="zcaron" unicode="&#x17e;" 
d="M498 1163l-289 299h156l198 -211l199 211h149l-284 -299h-129zM193 123v94l454 617l90 116l-119 -2h-393v115h672v-94l-457 -617l-92 -119l123 5h492v-115h-770z" />
    <glyph glyph-name="longs" unicode="&#x17f;" 
d="M178 948v115h217v98q0 133 79.5 213t213.5 80q130 0 221.5 -63t128.5 -177l-112 -30q-22 74 -84 114.5t-154 40.5q-178 0 -178 -186v-1030h-115v825h-217z" />
    <glyph glyph-name="uni018F" unicode="&#x18f;" 
d="M571 109q-212 0 -341.5 174t-129.5 458v78h842q-12 230 -119.5 371t-271.5 141q-116 0 -197 -70.5t-133 -216.5l-106 58q124 352 436 352q151 0 267.5 -84.5t180.5 -238t64 -351.5q0 -194 -62.5 -347t-174.5 -238.5t-255 -85.5zM571 229q149 0 249 127.5t120 341.5h-721
q8 -212 104 -340.5t248 -128.5z" />
    <glyph glyph-name="uni0190" unicode="&#x190;" 
d="M651 109q-112 0 -201 33.5t-142.5 90t-81 125.5t-27.5 146q0 117 56.5 201t160.5 122q-69 46 -107.5 120t-38.5 163q0 158 101 251t272 93q81 0 154 -18t106 -35v-107l-14 -10l-17 6q-16 5 -25.5 8t-30 8.5t-38 9t-40.5 7.5t-47 6t-48 2q-123 0 -186.5 -56t-63.5 -165
q0 -114 66.5 -175t191.5 -61h133v-120h-200q-123 0 -194 -66.5t-71 -183.5q0 -129 87.5 -202t244.5 -73q113 0 258 50l15 -11v-112q-2 0 -21 -6t-34 -10t-43 -10.5t-53 -10.5t-58 -7t-64 -3z" />
    <glyph glyph-name="florin" unicode="&#x192;" 
d="M291 897v115h227l17 131q19 151 89 231t185 80q58 0 113.5 -18.5t89.5 -49.5l-74 -116q-1 23 -42.5 42t-86.5 19q-69 0 -104.5 -46t-49.5 -150l-16 -123h258v-115h-276l-86 -684q-22 -153 -92.5 -232t-184.5 -79q-58 0 -111.5 18t-87.5 49l66 111q20 -25 57 -40t76 -15
q69 0 106 45.5t50 150.5l86 676h-209z" />
    <glyph glyph-name="uni0194" unicode="&#x194;" 
d="M582 -268q-94 0 -152.5 71t-58.5 185q0 24 2 46.5t8.5 48.5t10.5 43t16 46.5t16.5 41.5t21.5 45.5t20.5 41t23.5 45t22 41.5l-428 1053h123l274 -672l101 -262l102 262l272 672h121l-428 -1053q5 -9 22.5 -42t23.5 -44.5t21 -41.5t21 -44.5t17 -42t15.5 -46t11 -43.5
t8.5 -48t2 -47q0 -114 -57.5 -185t-151.5 -71zM582 -150q41 0 65.5 36.5t24.5 99.5q0 65 -21 128t-69 167q-49 -103 -71 -166t-22 -129q0 -64 25 -100t68 -36z" />
    <glyph glyph-name="uni0197" unicode="&#x197;" 
d="M193 1321v119h778v-119h-330v-453h315v-114h-315v-512h330v-119h-778v119h327v512h-315v114h315v453h-327z" />
    <glyph glyph-name="uni019D" unicode="&#x19d;" 
d="M922 305v1135h120v-1317h-149l-631 1085l-2 2l-20 45v-1149q0 -175 -82.5 -274.5t-227.5 -99.5q-142 0 -232.5 87t-119.5 253l119 30q20 -121 78.5 -184t150.5 -63q93 0 143 65t50 186v1334h155l623 -1084h2z" />
    <glyph glyph-name="uni01CD" unicode="&#x1cd;" 
d="M932 1837l-287 -299h-129l-287 299h154l199 -209l198 209h152zM518 1440h125l467 -1317h-131l-139 395h-521l-141 -395h-127zM545 1153l-185 -514h437l-183 514l-34 107z" />
    <glyph glyph-name="uni01CE" unicode="&#x1ce;" 
d="M915 1462l-286 -299h-129l-287 299h154l198 -211l199 211h151zM1032 289l15 -2l59 -74q-16 -32 -63 -65t-107 -33q-70 0 -118.5 37.5t-65.5 103.5q-104 -147 -287 -147q-131 0 -215 78.5t-84 199.5q0 106 53.5 169.5t167.5 94.5l281 74q41 10 58 32t17 64q0 74 -43 108
t-137 34q-108 0 -173 -51t-75 -144l-110 23q23 138 115.5 212t242.5 74q140 0 218.5 -67.5t78.5 -188.5v-489q0 -105 78 -105q48 0 82 49zM471 223q112 0 189 79.5t83 201.5v135q-17 -13 -49 -23l-266 -69q-79 -20 -112 -57t-33 -103q0 -74 51.5 -119t136.5 -45z" />
    <glyph glyph-name="uni01CF" unicode="&#x1cf;" 
d="M516 1538l-287 299h154l199 -209l198 209h152l-287 -299h-129zM193 1321v119h778v-119h-330v-1079h330v-119h-778v119h327v1079h-327z" />
    <glyph glyph-name="uni01D0" unicode="&#x1d0;" 
d="M526 1163l-286 299h153l199 -211l201 211h149l-287 -299h-129zM270 123v115h297v710h-264v115h381v-825h291v-115h-705z" />
    <glyph glyph-name="uni01D1" unicode="&#x1d1;" 
d="M516 1538l-287 299h154l199 -209l198 209h152l-287 -299h-129zM582 109q-147 0 -265 86.5t-184.5 240t-66.5 344.5q0 192 66 346t184.5 241t265.5 87t264.5 -87t183.5 -241t66 -346t-66 -345.5t-183.5 -239.5t-264.5 -86zM582 229q167 0 280 158t113 393q0 155 -51 281.5
t-141 198t-201 71.5q-169 0 -282.5 -157.5t-113.5 -393.5q0 -154 51.5 -280.5t142.5 -198.5t202 -72z" />
    <glyph glyph-name="uni01D2" unicode="&#x1d2;" 
d="M516 1163l-287 299h154l199 -211l198 211h152l-287 -299h-129zM582 109q-179 0 -293.5 136.5t-114.5 348.5q0 211 115 347t293 136q177 0 291 -136t114 -347t-114 -348t-291 -137zM582 223q126 0 206 104t80 267t-80 266t-206 103q-127 0 -208 -103t-81 -266
q0 -164 80.5 -267.5t208.5 -103.5z" />
    <glyph glyph-name="uni01D3" unicode="&#x1d3;" 
d="M516 1538l-287 299h154l199 -209l198 209h152l-287 -299h-129zM582 109q-217 0 -343 121.5t-126 332.5v877h120v-877q0 -157 93 -245.5t256 -88.5t255.5 88.5t92.5 245.5v877h119v-877q0 -211 -125 -332.5t-342 -121.5z" />
    <glyph glyph-name="uni01D4" unicode="&#x1d4;" 
d="M930 1462l-285 -299h-129l-289 299h156l199 -211l198 211h150zM813 696v367h117v-940h-117v186q-51 -97 -127.5 -148.5t-171.5 -51.5q-129 0 -207 82.5t-78 218.5v653h115v-647q0 -92 46.5 -142.5t131.5 -50.5q90 0 158 69t100.5 175t32.5 229z" />
    <glyph glyph-name="Gcaron" unicode="&#x1e6;" 
d="M942 1837l-287 -299h-129l-286 299h153l199 -209l201 209h149zM590 676v123h485v-676h-121v174q-122 -188 -344 -188q-230 0 -376 187.5t-146 483.5q0 193 64.5 347t179 240.5t258.5 86.5q174 0 301.5 -114.5t165.5 -305.5l-121 -22q-26 144 -121.5 231.5t-224.5 87.5
q-164 0 -271.5 -156t-107.5 -395q0 -243 112 -397t287 -154q149 0 246.5 114t97.5 288v45h-364z" />
    <glyph glyph-name="gcaron" unicode="&#x1e7;" 
d="M932 1462l-287 -299h-129l-287 299h154l199 -211l198 211h152zM836 940v123h116v-1008q0 -155 -92.5 -239t-261.5 -84q-132 0 -231 66t-150 188l96 61q14 -36 36.5 -69t56.5 -64t84 -49.5t108 -18.5q238 0 238 209v191q-92 -137 -254 -137q-169 0 -278 136.5t-109 348.5
q0 211 109 347t278 136q162 0 254 -137zM584 223q112 0 180.5 95.5t71.5 256.5v19q0 169 -68.5 269t-183.5 100q-120 0 -196.5 -103t-76.5 -266t76.5 -267t196.5 -104z" />
    <glyph glyph-name="uni01E8" unicode="&#x1e8;" 
d="M547 1538l-289 299h156l198 -209l201 209h150l-287 -299h-129zM983 123l-539 659l-137 -135v-524h-121v1317h121v-637l651 637h160l-586 -574l609 -743h-158z" />
    <glyph glyph-name="uni01E9" unicode="&#x1e9;" 
d="M629 1516l-287 299h156l196 -209l201 209h149l-286 -299h-129zM881 123l-385 536l-134 -127v-409h-116v1317h116v-754l386 377h163l-325 -320l442 -620h-147z" />
    <glyph glyph-name="uni01EA" unicode="&#x1ea;" 
d="M582 1454q147 0 264.5 -87t183.5 -241t66 -346q0 -226 -91 -396.5t-253 -246.5q-174 -80 -174 -200q0 -91 112 -91h60v-114h-66q-103 0 -161 50.5t-58 139.5q0 105 88 187q-213 14 -350 202t-137 469q0 192 66 346t184.5 241t265.5 87zM582 229q167 0 280 158t113 393
q0 155 -51 281.5t-141 198t-201 71.5q-169 0 -282.5 -157.5t-113.5 -393.5q0 -154 51.5 -280.5t142.5 -198.5t202 -72z" />
    <glyph glyph-name="uni01EB" unicode="&#x1eb;" 
d="M582 1077q177 0 291 -136t114 -347q0 -307 -246 -457q-39 -23 -62 -39t-53.5 -42.5t-45.5 -56t-15 -62.5q0 -91 111 -91h61v-114h-65q-103 0 -162 50.5t-59 139.5q0 108 102 191q-167 9 -273 143.5t-106 337.5q0 211 115 347t293 136zM582 223q126 0 206 104t80 267
t-80 266t-206 103q-127 0 -208 -103t-81 -266q0 -164 80.5 -267.5t208.5 -103.5z" />
    <glyph glyph-name="uni01F8" unicode="&#x1f8;" 
d="M750 1626l12 -110l-418 137l-16 145zM922 305v1135h120v-1317h-149l-631 1085l-2 2l-20 45v-1132h-121v1317h155l623 -1084h2z" />
    <glyph glyph-name="uni01F9" unicode="&#x1f9;" 
d="M821 1247l4 -108l-411 139l-17 143zM651 1077q129 0 207 -82t78 -217v-655h-117v647q0 92 -45.5 142.5t-130.5 50.5q-92 0 -160 -69.5t-99.5 -175t-31.5 -229.5v-366h-116v940h116v-182q50 94 127 145t172 51z" />
    <glyph glyph-name="AEacute" unicode="&#x1fc;" 
d="M594 1612l422 172l-17 -146l-417 -137zM731 758v-512h391v-123h-512v395h-293l-163 -395h-123l538 1317h521v-123h-359v-438h305v-121h-305zM584 1167l-217 -528h243v598z" />
    <glyph glyph-name="aeacute" unicode="&#x1fd;" 
d="M393 1139l10 108l424 174l-22 -143zM332 109q-117 0 -191.5 78t-74.5 200q0 135 87 210t244 75h121v149q0 69 -34 105.5t-99 36.5q-130 0 -160 -166l-110 22q61 258 276 258q74 0 131 -32.5t88 -92.5q77 125 199 125q127 0 201.5 -119t74.5 -321v-80h-454
q6 -156 57.5 -245t136.5 -89q60 0 99 38t67 124l94 -53q-32 -104 -101.5 -163.5t-158.5 -59.5q-163 0 -245 174q-74 -174 -248 -174zM809 963q-69 0 -117.5 -79t-58.5 -212h334q-3 136 -45 213.5t-113 77.5zM340 223q83 0 130.5 63.5t47.5 174.5v96h-121q-110 0 -162.5 -41
t-52.5 -129q0 -75 43 -119.5t115 -44.5z" />
    <glyph glyph-name="Oslashacute" unicode="&#x1fe;" 
d="M399 1516l13 110l422 172l-17 -145zM137 78l-92 76l139 184q-118 177 -118 442q0 192 66 346t184.5 241t265.5 87q187 0 321 -137l121 168l92 -76l-139 -186q119 -189 119 -443q0 -192 -66 -345.5t-183.5 -239.5t-264.5 -86q-187 0 -322 135zM186 780q0 -190 76 -336
l569 775q-112 112 -249 112q-169 0 -282.5 -157.5t-113.5 -393.5zM582 229q167 0 280 158t113 393q0 194 -78 338l-565 -776q113 -113 250 -113z" />
    <glyph glyph-name="oslashacute" unicode="&#x1ff;" 
d="M399 1139l13 112l422 170l-17 -143zM236 33l-86 69l122 164q-98 134 -98 328q0 211 115 347t293 136q131 0 231 -80l113 156l86 -70l-125 -163q100 -136 100 -326q0 -211 -114 -348t-291 -137q-139 0 -234 77zM293 594q0 -135 51 -229l399 540q-67 58 -161 58
q-127 0 -208 -103t-81 -266zM582 223q126 0 206 104t80 267q0 130 -53 225l-395 -536q66 -60 162 -60z" />
    <glyph glyph-name="uni0218" unicode="&#x218;" 
d="M643 109q-438 0 -567 434l114 26q57 -172 168.5 -256t284.5 -84q138 0 224.5 78t86.5 201q0 110 -70.5 167.5t-228.5 74.5l-149 14q-203 20 -298 95t-95 216q0 167 124 273t320 106q187 0 315 -102.5t156 -274.5l-119 -22q-23 129 -117 202.5t-235 73.5
q-147 0 -235.5 -67t-88.5 -177q0 -94 64 -137.5t227 -62.5l152 -15q198 -20 298.5 -109t100.5 -243q0 -181 -120.5 -296t-311.5 -115zM618 -387l-86 65q77 86 86 197q-40 6 -64 33t-24 65q0 44 26.5 73.5t66.5 29.5q52 0 83 -46t31 -122q0 -157 -119 -295z" />
    <glyph glyph-name="uni0219" unicode="&#x219;" 
d="M631 109q-188 0 -300 84.5t-143 250.5l115 7q22 -112 105 -170t223 -58q106 0 170.5 48t64.5 126q0 144 -202 156l-134 6q-305 18 -305 248q0 120 92 195t240 75q337 0 383 -299l-115 -6q-17 99 -81.5 145t-186.5 46q-98 0 -157.5 -42t-59.5 -110q0 -66 45.5 -96
t159.5 -37l131 -6q146 -9 224.5 -79t78.5 -192q0 -129 -97 -210.5t-251 -81.5zM608 -387l-86 65q76 91 88 197q-40 6 -65 33t-25 65q0 44 26.5 73.5t67.5 29.5q52 0 82.5 -45.5t30.5 -122.5t-31 -154.5t-88 -140.5z" />
    <glyph glyph-name="uni021A" unicode="&#x21a;" 
d="M125 1317v123h911v-123h-395v-1194h-121v1194h-395zM565 -387l-86 65q76 91 88 197q-40 6 -65 33t-25 65q0 44 26.5 73.5t67.5 29.5q51 0 82 -46t31 -122q0 -157 -119 -295z" />
    <glyph glyph-name="uni021B" unicode="&#x21b;" 
d="M172 948v115h242v280h116v-280h400v-115h-400v-561q0 -164 146 -164q63 0 119 37.5t94 104.5l74 -84q-52 -83 -127 -127.5t-162 -44.5q-121 0 -190.5 72t-69.5 198v569h-242zM651 -387l-86 65q79 95 88 197q-40 6 -65 33t-25 65q0 43 27 73t65 30q54 0 84.5 -45.5
t30.5 -122.5t-31 -154.5t-88 -140.5z" />
    <glyph glyph-name="uni021E" unicode="&#x21e;" 
d="M520 1538l-284 299h151l201 -209l198 209h152l-289 -299h-129zM922 123v622h-682v-622h-121v1317h121v-572h682v572h120v-1317h-120z" />
    <glyph glyph-name="uni021F" unicode="&#x21f;" 
d="M500 1815h151l-284 -299h-131l-287 299h153l201 -209zM639 1077q141 0 222 -84t81 -231v-639h-117v633q0 101 -50.5 154t-147.5 53q-116 0 -191.5 -96t-75.5 -244v-500h-118v1317h118v-514q102 151 279 151z" />
    <glyph glyph-name="uni022E" unicode="&#x22e;" 
d="M582 1538q-44 0 -72.5 31t-28.5 78q0 49 28 79.5t73 30.5q43 0 70.5 -31.5t27.5 -78.5t-27.5 -78t-70.5 -31zM582 109q-147 0 -265 86.5t-184.5 240t-66.5 344.5q0 192 66 346t184.5 241t265.5 87t264.5 -87t183.5 -241t66 -346t-66 -345.5t-183.5 -239.5t-264.5 -86z
M582 229q167 0 280 158t113 393q0 155 -51 281.5t-141 198t-201 71.5q-169 0 -282.5 -157.5t-113.5 -393.5q0 -154 51.5 -280.5t142.5 -198.5t202 -72z" />
    <glyph glyph-name="uni022F" unicode="&#x22f;" 
d="M582 1237q-44 0 -72.5 31t-28.5 78t28.5 77.5t72.5 30.5q43 0 70.5 -30.5t27.5 -77.5t-27.5 -78t-70.5 -31zM582 109q-179 0 -293.5 136.5t-114.5 348.5q0 211 115 347t293 136q177 0 291 -136t114 -347t-114 -348t-291 -137zM582 223q126 0 206 104t80 267t-80 266
t-206 103q-127 0 -208 -103t-81 -266q0 -164 80.5 -267.5t208.5 -103.5z" />
    <glyph glyph-name="uni0232" unicode="&#x232;" 
d="M338 1630v115h485v-115h-485zM520 123v620l-436 697h137l361 -580l360 580h137l-438 -697v-620h-121z" />
    <glyph glyph-name="uni0233" unicode="&#x233;" 
d="M410 1288v115h485v-115h-485zM406 -268q-54 0 -105 21t-88 54.5t-62.5 66.5t-41.5 65l98 57q34 -72 86.5 -111t112.5 -39t90 30t61 120l53 143l-360 924h123l252 -639l45 -125l39 125l221 639h123l-381 -1090q-25 -66 -46.5 -106.5t-52 -73.5t-71 -47t-96.5 -14z" />
    <glyph glyph-name="uni0237" unicode="&#x237;" 
d="M518 -268q-118 0 -205 57t-127 160l115 31q49 -134 217 -134q86 0 126 45t40 142v1030h117v-1030q0 -148 -72.5 -224.5t-210.5 -76.5z" />
    <glyph glyph-name="uni0244" unicode="&#x244;" 
d="M20 754v114h93v572h120v-572h697v572h119v-572h92v-114h-92v-191q0 -211 -125 -332.5t-342 -121.5t-343 121.5t-126 332.5v191h-93zM582 229q163 0 255.5 88.5t92.5 245.5v191h-697v-191q0 -157 93 -245.5t256 -88.5z" />
    <glyph glyph-name="uni0259" unicode="&#x259;" 
d="M563 109q-156 0 -255 123t-99 317v80h612q-8 154 -80.5 244t-189.5 90q-40 0 -74.5 -12.5t-57 -29t-45.5 -45.5t-33.5 -47t-27.5 -48q-4 -7 -6 -11l-100 55q15 27 24.5 43.5t30 46t38.5 49t46 43t57 37.5t67.5 23.5t80.5 9.5q170 0 279.5 -136t109.5 -347
q0 -209 -107 -347t-270 -138zM563 223q101 0 168 77.5t84 213.5h-489q8 -137 70.5 -214t166.5 -77z" />
    <glyph glyph-name="uni025B" unicode="&#x25b;" 
d="M618 109q-163 0 -257.5 76t-94.5 208q0 83 39 144t111 90q-97 69 -97 198q0 115 83 183.5t221 68.5q69 0 132.5 -15.5t86.5 -29.5v-102l-17 -8q-13 11 -74 26t-128 15q-92 0 -139.5 -36.5t-47.5 -105.5t47.5 -107t134.5 -38h125v-115h-165q-90 0 -143.5 -45.5
t-53.5 -122.5q0 -82 61.5 -126t175.5 -44q43 0 84 6t62.5 11.5t51 15.5t34.5 12v-118q-6 -1 -35 -10t-51 -14.5t-63 -11t-83 -5.5z" />
    <glyph glyph-name="uni0263" unicode="&#x263;" 
d="M582 -268q-83 0 -135 64t-52 167q0 27 6 56t13 50.5t22.5 53.5t24 47t28.5 48.5t25 43.5l-334 801h127l207 -502l68 -184l69 184l207 502h125l-336 -801q5 -8 30 -51t35 -62t26.5 -55.5t23 -67.5t6.5 -63q0 -101 -52 -166t-134 -65zM582 -154q32 0 51.5 30.5t19.5 82.5
q0 86 -71 205q-72 -121 -72 -205q0 -54 19 -83.5t53 -29.5z" />
    <glyph glyph-name="uni0268" unicode="&#x268;" 
d="M606 1237q-43 0 -71.5 31.5t-28.5 77.5t28.5 77t71.5 31q44 0 73.5 -30.5t29.5 -77.5t-29.5 -78t-73.5 -31zM393 573v111h174v264h-264v115h381v-379h176v-111h-176v-335h291v-115h-705v115h297v335h-174z" />
    <glyph glyph-name="uni0272" unicode="&#x272;" 
d="M651 1077q129 0 207 -82t78 -217v-655h-117v647q0 92 -45.5 142.5t-130.5 50.5q-92 0 -160 -69.5t-99.5 -175t-31.5 -229.5v-479q0 -134 -64 -206t-182 -72q-68 0 -133 30t-110 84l63 101q88 -101 180 -101q62 0 96 43t34 121v1053h116v-182q50 94 127 145t172 51z" />
    <glyph glyph-name="uni0289" unicode="&#x289;" 
d="M930 1063v-375h106v-113h-106v-452h-117v186q-51 -97 -127.5 -148.5t-171.5 -51.5q-129 0 -207 82.5t-78 218.5v165h-110v113h110v375h115v-375h475l-2 2l-4 6v367h117zM522 223q104 0 180.5 97t98.5 255h-457v-159q0 -92 46.5 -142.5t131.5 -50.5z" />
    <glyph glyph-name="circumflex" unicode="&#x2c6;" 
d="M229 1163l287 299h129l287 -299h-154l-198 207l-199 -207h-152z" />
    <glyph glyph-name="caron" unicode="&#x2c7;" 
d="M498 1163l-289 299h156l198 -211l199 211h149l-284 -299h-129z" />
    <glyph glyph-name="uni02C9" unicode="&#x2c9;" 
d="M338 1288v115h485v-115h-485z" />
    <glyph glyph-name="breve" unicode="&#x2d8;" 
d="M582 1163q-110 0 -173 79.5t-57 211.5h107q-5 -83 28.5 -131.5t94.5 -48.5q60 0 92 48.5t28 131.5h107q6 -130 -57 -210.5t-170 -80.5z" />
    <glyph glyph-name="dotaccent" unicode="&#x2d9;" 
d="M606 1237q-43 0 -71.5 31.5t-28.5 77.5t28.5 77t71.5 31q44 0 73.5 -30.5t29.5 -77.5t-29.5 -78t-73.5 -31z" />
    <glyph glyph-name="ring" unicode="&#x2da;" 
d="M582 1159q-91 0 -152 65t-61 162q0 95 61 160.5t152 65.5q89 0 150 -65.5t61 -160.5t-61 -161t-150 -66zM582 1262q45 0 76.5 36t31.5 88q0 51 -32 87t-76 36t-76.5 -36t-32.5 -87q0 -54 31.5 -89t77.5 -35z" />
    <glyph glyph-name="ogonek" unicode="&#x2db;" 
d="M750 -268h-66q-103 0 -161 50.5t-58 139.5q0 78 44.5 136.5t119.5 113.5h96l10 -33q-82 -51 -119.5 -99.5t-37.5 -102.5q0 -91 112 -91h60v-114z" />
    <glyph glyph-name="tilde" unicode="&#x2dc;" 
d="M696 1219q-41 0 -74.5 19t-72.5 52q-3 2 -9.5 7t-9.5 7t-8.5 6.5t-8.5 6.5t-8 5l-7.5 4.5t-7 3.5t-7.5 3t-7 1.5t-7 0.5q-28 0 -39 -26.5t-8 -87.5h-111q-3 109 37.5 169t116.5 60q28 0 57.5 -12.5t46.5 -25t43 -34.5q3 -2 9.5 -7t9.5 -7t8.5 -6.5t8.5 -6.5t8 -5
l7.5 -4.5t7 -3.5t7.5 -3t7 -1.5t7 -0.5q28 0 39 26.5t8 86.5h111q3 -108 -37.5 -167.5t-116.5 -59.5z" />
    <glyph glyph-name="hungarumlaut" unicode="&#x2dd;" 
d="M387 1155l178 299h152l-207 -299h-123zM623 1155l206 299h154l-238 -299h-122z" />
    <glyph glyph-name="gravecomb" unicode="&#x300;" horiz-adv-x="0" 
d="M-399 1139l-418 139l-17 143l422 -170z" />
    <glyph glyph-name="acutecomb" unicode="&#x301;" horiz-adv-x="0" 
d="M-762 1139l12 112l422 170l-16 -143z" />
    <glyph glyph-name="uni0302" unicode="&#x302;" horiz-adv-x="0" 
d="M-932 1163l287 299h129l287 -299h-154l-199 207l-198 -207h-152z" />
    <glyph glyph-name="tildecomb" unicode="&#x303;" horiz-adv-x="0" 
d="M-465 1219q-41 0 -74.5 19t-72.5 52q-3 2 -9.5 7t-9.5 7t-8.5 6.5t-8.5 6.5t-8 5l-7.5 4.5t-7 3.5t-7.5 3t-7 1.5t-7 0.5q-28 0 -39 -26.5t-8 -87.5h-111q-3 109 37.5 169t116.5 60q28 0 57.5 -12.5t46.5 -25t43 -34.5q3 -2 9.5 -7t9.5 -7t8.5 -6.5t8.5 -6.5t8 -5
l7.5 -4.5t7 -3.5t7.5 -3t7 -1.5t7 -0.5q28 0 39 26.5t8 86.5h111q3 -108 -37.5 -167.5t-116.5 -59.5z" />
    <glyph glyph-name="uni0304" unicode="&#x304;" horiz-adv-x="0" 
d="M-823 1288v115h485v-115h-485z" />
    <glyph glyph-name="uni0306" unicode="&#x306;" horiz-adv-x="0" 
d="M-580 1163q-110 0 -172.5 79.5t-56.5 211.5h107q-5 -83 28 -131.5t94 -48.5q60 0 92.5 48.5t28.5 131.5h107q6 -130 -57.5 -210.5t-170.5 -80.5z" />
    <glyph glyph-name="uni0307" unicode="&#x307;" horiz-adv-x="0" 
d="M-555 1237q-43 0 -71.5 31.5t-28.5 77.5t28.5 77t71.5 31q44 0 73 -30.5t29 -77.5t-29 -78t-73 -31z" />
    <glyph glyph-name="uni0308" unicode="&#x308;" horiz-adv-x="0" 
d="M-756 1169q-41 0 -67.5 29.5t-26.5 73.5q0 43 27 71.5t67 28.5t66 -28.5t26 -71.5q0 -44 -26 -73.5t-66 -29.5zM-406 1169q-40 0 -66 29.5t-26 73.5q0 43 26 71.5t66 28.5t67.5 -28.5t27.5 -71.5q0 -44 -27 -73.5t-68 -29.5z" />
    <glyph glyph-name="uni030A" unicode="&#x30a;" horiz-adv-x="0" 
d="M-580 1159q-91 0 -152 65t-61 162q0 95 61 160.5t152 65.5q89 0 150 -65.5t61 -160.5t-61 -161t-150 -66zM-580 1262q45 0 77 36t32 88q0 51 -32.5 87t-76.5 36t-76 -36t-32 -87q0 -54 31 -89t77 -35z" />
    <glyph glyph-name="uni030B" unicode="&#x30b;" horiz-adv-x="0" 
d="M-774 1155l178 299h152l-207 -299h-123zM-539 1155l207 299h154l-238 -299h-123z" />
    <glyph glyph-name="uni030C" unicode="&#x30c;" horiz-adv-x="0" 
d="M-664 1163l-288 299h155l199 -211l199 211h149l-285 -299h-129z" />
    <glyph glyph-name="uni0312" unicode="&#x312;" horiz-adv-x="0" 
d="M-571 1163q-51 0 -82 46t-31 122t31 153t88 140l88 -65q-78 -88 -90 -195q40 -6 65 -33.5t25 -66.5q0 -43 -27 -72t-67 -29z" />
    <glyph glyph-name="uni0313" unicode="&#x313;" horiz-adv-x="0" 
d="M-596 991l-86 66q76 92 88 196q-40 6 -65 33.5t-25 65.5q0 44 26.5 73t67.5 29q51 0 82 -46t31 -122q0 -157 -119 -295z" />
    <glyph glyph-name="dotbelowcomb" unicode="&#x323;" horiz-adv-x="0" 
d="M-555 -197q-43 0 -71.5 31.5t-28.5 77.5q0 47 28.5 79t71.5 32q46 0 74 -30.5t28 -80.5q0 -47 -29 -78t-73 -31z" />
    <glyph glyph-name="uni0326" unicode="&#x326;" horiz-adv-x="0" 
d="M-557 -387l-88 65q79 91 88 197q-40 6 -64 33t-24 65q0 44 26 73.5t66 29.5q52 0 83.5 -46.5t31.5 -121.5t-31 -153t-88 -142z" />
    <glyph glyph-name="uni0327" unicode="&#x327;" horiz-adv-x="0" 
d="M-688 -268v114h115q79 0 79 66q0 63 -79 63h-62v197h109v-94q69 -12 107 -55t38 -109q0 -83 -52 -132.5t-138 -49.5h-117z" />
    <glyph glyph-name="uni0328" unicode="&#x328;" horiz-adv-x="0" 
d="M-412 -268h-65q-103 0 -161 50.5t-58 139.5q0 78 44.5 136.5t119.5 113.5h96l10 -33q-82 -51 -120 -99.5t-38 -102.5q0 -91 113 -91h59v-114z" />
    <glyph glyph-name="uni032E" unicode="&#x32e;" horiz-adv-x="0" 
d="M-580 -233q-109 0 -172 80t-57 212h107q-5 -85 28 -133.5t94 -48.5q60 0 93 49.5t28 132.5h107q6 -132 -56.5 -212t-171.5 -80z" />
    <glyph glyph-name="uni0331" unicode="&#x331;" horiz-adv-x="0" 
d="M-823 -145v114h485v-114h-485z" />
    <glyph glyph-name="anoteleia" unicode="&#x387;" 
d="M582 492q-46 0 -75.5 31.5t-29.5 80.5t29.5 81t75.5 32q44 0 73 -32t29 -81t-29 -80.5t-73 -31.5z" />
    <glyph glyph-name="uni03BC" unicode="&#x39c;" 
d="M817 696v367h117v-940h-117v182q-47 -94 -123 -145t-168 -51q-104 0 -182 63q4 -98 4 -139v-287h-117v1317h117v-625q0 -101 48 -158t134 -57q87 0 153.5 69t100 175.5t33.5 228.5z" />
    <glyph glyph-name="uni03BC" unicode="&#x3bc;" 
d="M817 696v367h117v-940h-117v182q-47 -94 -123 -145t-168 -51q-104 0 -182 63q4 -98 4 -139v-287h-117v1317h117v-625q0 -101 48 -158t134 -57q87 0 153.5 69t100 175.5t33.5 228.5z" />
    <glyph glyph-name="pi" unicode="&#x3a0;" 
d="M1016 123h-58q-98 0 -148 55.5t-50 163.5v606h-359v-825h-116v825h-152v115h895v-115h-151v-602q0 -52 22.5 -80t63.5 -28h53v-115z" />
    <glyph glyph-name="pi" unicode="&#x3c0;" 
d="M1016 123h-58q-98 0 -148 55.5t-50 163.5v606h-359v-825h-116v825h-152v115h895v-115h-151v-602q0 -52 22.5 -80t63.5 -28h53v-115z" />
    <glyph glyph-name="uni1E02" unicode="&#x1e02;" 
d="M553 1538q-43 0 -71.5 31.5t-28.5 77.5q0 47 28.5 78.5t71.5 31.5q44 0 72 -30.5t28 -79.5q0 -47 -28 -78t-72 -31zM172 123v1317h446q160 0 256.5 -93.5t96.5 -248.5q0 -87 -34.5 -157t-100.5 -112q97 -43 148.5 -128t51.5 -203q0 -172 -101 -273.5t-271 -101.5h-492z
M618 1317h-325v-445h325q107 0 169.5 59.5t62.5 162.5q0 104 -61.5 163.5t-170.5 59.5zM664 750h-371v-504h371q117 0 184 67.5t67 184.5t-67 184.5t-184 67.5z" />
    <glyph glyph-name="uni1E03" unicode="&#x1e03;" 
d="M623 1237q-43 0 -71 31t-28 78t28 77.5t71 30.5q44 0 73 -30.5t29 -77.5t-29 -78t-73 -31zM618 1077q172 0 285 -137t113 -346q0 -210 -113 -347.5t-285 -137.5q-85 0 -156 38.5t-118 110.5v-135h-119v1317h119v-512q98 149 274 149zM614 223q125 0 205 104t80 267
q0 161 -80 265t-205 104q-120 0 -194 -97.5t-76 -255.5v-35q2 -158 76 -255t194 -97z" />
    <glyph glyph-name="uni1E0A" unicode="&#x1e0a;" 
d="M563 1552q-43 0 -70.5 31.5t-27.5 79.5q0 47 27.5 78t70.5 31q44 0 72.5 -31t28.5 -78q0 -49 -28.5 -80t-72.5 -31zM145 123v1317h418q251 0 392 -175t141 -485q0 -311 -140.5 -484t-392.5 -173h-418zM563 1317h-297v-1071h297q203 0 307.5 135t104.5 399
q0 265 -104.5 401t-307.5 136z" />
    <glyph glyph-name="uni1E0B" unicode="&#x1e0b;" 
d="M539 1237q-44 0 -73.5 31t-29.5 78t29.5 77.5t73.5 30.5q43 0 71.5 -31t28.5 -77t-28.5 -77.5t-71.5 -31.5zM819 924v516h117v-1317h-117v139q-50 -74 -120.5 -113.5t-153.5 -39.5q-173 0 -286.5 137t-113.5 348q0 209 113.5 346t286.5 137q171 0 274 -153zM547 223
q123 0 197.5 102t74.5 269v16q-5 159 -79.5 256t-192.5 97q-125 0 -205 -104t-80 -265q0 -163 80 -267t205 -104z" />
    <glyph glyph-name="uni1E0C" unicode="&#x1e0c;" 
d="M145 123v1317h418q251 0 392 -175t141 -485q0 -311 -140.5 -484t-392.5 -173h-418zM563 1317h-297v-1071h297q203 0 307.5 135t104.5 399q0 265 -104.5 401t-307.5 136zM563 -197q-43 0 -70.5 31t-27.5 78q0 48 27.5 79.5t70.5 31.5q44 0 72.5 -31t28.5 -80
q0 -47 -28.5 -78t-72.5 -31z" />
    <glyph glyph-name="uni1E0D" unicode="&#x1e0d;" 
d="M819 924v516h117v-1317h-117v139q-50 -74 -120.5 -113.5t-153.5 -39.5q-173 0 -286.5 137t-113.5 348q0 209 113.5 346t286.5 137q171 0 274 -153zM547 223q123 0 197.5 102t74.5 269v16q-5 159 -79.5 256t-192.5 97q-125 0 -205 -104t-80 -265q0 -163 80 -267t205 -104z
M545 23q43 0 70.5 -31.5t27.5 -79.5q0 -47 -27.5 -78t-70.5 -31q-44 0 -72.5 31t-28.5 78q0 49 28.5 80t72.5 31z" />
    <glyph glyph-name="uni1E0E" unicode="&#x1e0e;" 
d="M145 123v1317h418q251 0 392 -175t141 -485q0 -311 -140.5 -484t-392.5 -173h-418zM563 1317h-297v-1071h297q203 0 307.5 135t104.5 399q0 265 -104.5 401t-307.5 136zM322 -145v114h485v-114h-485z" />
    <glyph glyph-name="uni1E0F" unicode="&#x1e0f;" 
d="M819 924v516h117v-1317h-117v139q-50 -74 -120.5 -113.5t-153.5 -39.5q-173 0 -286.5 137t-113.5 348q0 209 113.5 346t286.5 137q171 0 274 -153zM547 223q123 0 197.5 102t74.5 269v16q-5 159 -79.5 256t-192.5 97q-125 0 -205 -104t-80 -265q0 -163 80 -267t205 -104z
M786 -145h-483v114h483v-114z" />
    <glyph glyph-name="uni1E10" unicode="&#x1e10;" 
d="M145 123v1317h418q251 0 392 -175t141 -485q0 -311 -140.5 -484t-392.5 -173h-418zM563 1317h-297v-1071h297q203 0 307.5 135t104.5 399q0 265 -104.5 401t-307.5 136zM551 -424l-86 66q79 91 88 196q-40 6 -64 33.5t-24 65.5q0 44 26 73t66 29q52 0 83.5 -46.5
t31.5 -121.5q0 -77 -31.5 -155t-89.5 -140z" />
    <glyph glyph-name="uni1E11" unicode="&#x1e11;" 
d="M819 924v516h117v-1317h-117v139q-50 -74 -120.5 -113.5t-153.5 -39.5q-173 0 -286.5 137t-113.5 348q0 209 113.5 346t286.5 137q171 0 274 -153zM547 223q123 0 197.5 102t74.5 269v16q-5 159 -79.5 256t-192.5 97q-125 0 -205 -104t-80 -265q0 -163 80 -267t205 -104z
M526 76q54 0 84.5 -45.5t30.5 -122.5t-31 -154.5t-88 -140.5l-86 65q76 91 88 197q-41 4 -65.5 31t-24.5 67q0 43 27 73t65 30z" />
    <glyph glyph-name="uni1E1E" unicode="&#x1e1e;" 
d="M621 1538q-44 0 -72.5 31t-28.5 78q0 49 28 79.5t73 30.5q44 0 72 -30.5t28 -79.5q0 -47 -28 -78t-72 -31zM211 123v1317h825v-123h-704v-438h624v-121h-624v-635h-121z" />
    <glyph glyph-name="uni1E1F" unicode="&#x1e1f;" 
d="M688 1606q-44 0 -73 30.5t-29 77.5t29 78t73 31q43 0 70.5 -31t27.5 -78t-27.5 -77.5t-70.5 -30.5zM178 948v115h217v98q0 133 79.5 213t213.5 80q130 0 221.5 -63t128.5 -177l-112 -30q-22 74 -84 114.5t-154 40.5q-178 0 -178 -186v-90h299v-115h-299v-825h-115v825
h-217z" />
    <glyph glyph-name="uni1E20" unicode="&#x1e20;" 
d="M348 1745h486v-115h-486v115zM590 676v123h485v-676h-121v174q-122 -188 -344 -188q-230 0 -376 187.5t-146 483.5q0 193 64.5 347t179 240.5t258.5 86.5q174 0 301.5 -114.5t165.5 -305.5l-121 -22q-26 144 -121.5 231.5t-224.5 87.5q-164 0 -271.5 -156t-107.5 -395
q0 -243 112 -397t287 -154q149 0 246.5 114t97.5 288v45h-364z" />
    <glyph glyph-name="uni1E21" unicode="&#x1e21;" 
d="M338 1403h485v-115h-485v115zM836 940v123h116v-1008q0 -155 -92.5 -239t-261.5 -84q-132 0 -231 66t-150 188l96 61q14 -36 36.5 -69t56.5 -64t84 -49.5t108 -18.5q238 0 238 209v191q-92 -137 -254 -137q-169 0 -278 136.5t-109 348.5q0 211 109 347t278 136
q162 0 254 -137zM584 223q112 0 180.5 95.5t71.5 256.5v19q0 169 -68.5 269t-183.5 100q-120 0 -196.5 -103t-76.5 -266t76.5 -267t196.5 -104z" />
    <glyph glyph-name="uni1E22" unicode="&#x1e22;" 
d="M586 1538q-43 0 -71 31t-28 78t28 78.5t71 31.5q44 0 72 -30.5t28 -79.5q0 -47 -28 -78t-72 -31zM922 123v622h-682v-622h-121v1317h121v-572h682v572h120v-1317h-120z" />
    <glyph glyph-name="uni1E23" unicode="&#x1e23;" 
d="M608 1589q-43 0 -71.5 32t-28.5 79q0 46 28.5 77t71.5 31q44 0 73.5 -30.5t29.5 -77.5t-29.5 -79t-73.5 -32zM639 1077q141 0 222 -84t81 -231v-639h-117v633q0 101 -50.5 154t-147.5 53q-116 0 -191.5 -96t-75.5 -244v-500h-118v1317h118v-514q102 151 279 151z" />
    <glyph glyph-name="uni1E24" unicode="&#x1e24;" 
d="M922 123v622h-682v-622h-121v1317h121v-572h682v572h120v-1317h-120zM586 -197q-43 0 -71 31t-28 78t28 79t71 32q44 0 72 -31t28 -80q0 -47 -28 -78t-72 -31z" />
    <glyph glyph-name="uni1E25" unicode="&#x1e25;" 
d="M639 1077q141 0 222 -84t81 -231v-639h-117v633q0 101 -50.5 154t-147.5 53q-116 0 -191.5 -96t-75.5 -244v-500h-118v1317h118v-514q102 151 279 151zM592 23q44 0 73 -32t29 -79t-29 -78t-73 -31t-72 31t-28 78q0 49 28 80t72 31z" />
    <glyph glyph-name="uni1E2A" unicode="&#x1e2a;" 
d="M922 123v622h-682v-622h-121v1317h121v-572h682v572h120v-1317h-120zM586 -233q-109 0 -172.5 80t-57.5 212h107q-5 -83 28.5 -132.5t94.5 -49.5q62 0 94.5 48.5t28.5 133.5h106q6 -130 -57.5 -211t-171.5 -81z" />
    <glyph glyph-name="uni1E2B" unicode="&#x1e2b;" 
d="M639 1077q141 0 222 -84t81 -231v-639h-117v633q0 101 -50.5 154t-147.5 53q-116 0 -191.5 -96t-75.5 -244v-500h-118v1317h118v-514q102 151 279 151zM715 59h108q6 -132 -57.5 -212t-173.5 -80q-108 0 -172 81t-58 211h109q-5 -83 28 -132.5t93 -49.5q61 0 94.5 49.5
t28.5 132.5z" />
    <glyph glyph-name="uni1E36" unicode="&#x1e36;" 
d="M211 123v1317h121v-1194h700v-123h-821zM621 -197q-44 0 -72.5 31t-28.5 78q0 49 28.5 80t72.5 31t72 -31t28 -80q0 -47 -28 -78t-72 -31z" />
    <glyph glyph-name="uni1E37" unicode="&#x1e37;" 
d="M252 123v115h301v1087h-287v115h404v-1202h305v-115h-723zM614 -197q-44 0 -72 31t-28 78q0 49 28 80t72 31q43 0 71 -32t28 -79t-28 -78t-71 -31z" />
    <glyph glyph-name="uni1E38" unicode="&#x1e38;" 
d="M29 1645v114h485v-114h-485zM211 123v1317h121v-1194h700v-123h-821zM621 -197q-44 0 -72.5 31t-28.5 78q0 49 28.5 80t72.5 31t72 -31t28 -80q0 -47 -28 -78t-72 -31z" />
    <glyph glyph-name="uni1E39" unicode="&#x1e39;" 
d="M373 1642v115h487v-115h-487zM252 123v115h301v1087h-287v115h404v-1202h305v-115h-723zM614 -197q-44 0 -72 31t-28 78q0 49 28 80t72 31q43 0 71 -32t28 -79t-28 -78t-71 -31z" />
    <glyph glyph-name="uni1E3A" unicode="&#x1e3a;" 
d="M211 123v1317h121v-1194h700v-123h-821zM377 -145v114h485v-114h-485z" />
    <glyph glyph-name="uni1E3B" unicode="&#x1e3b;" 
d="M252 123v115h301v1087h-287v115h404v-1202h305v-115h-723zM371 -145v114h487v-114h-487z" />
    <glyph glyph-name="uni1E3E" unicode="&#x1e3e;" 
d="M412 1626l422 172l-17 -145l-418 -137zM623 586l270 854h164v-1317h-123l6 1096l-10 -43l-283 -897h-133l-283 901l-10 41l6 -1098h-123v1317h168l271 -858l39 -156z" />
    <glyph glyph-name="uni1E3F" unicode="&#x1e3f;" 
d="M440 1247l424 174l-22 -143l-412 -139zM817 1077q104 0 165.5 -71t61.5 -191v-692h-114v684q0 156 -121 156q-78 0 -126 -87.5t-48 -230.5v-522h-117v655q0 185 -121 185q-77 0 -123.5 -87t-46.5 -231v-522h-118v940h118v-80q66 94 179 94q67 0 118.5 -36t79.5 -101
q35 66 90.5 101.5t122.5 35.5z" />
    <glyph glyph-name="uni1E40" unicode="&#x1e40;" 
d="M582 1538q-44 0 -72.5 31t-28.5 78q0 49 28 79.5t73 30.5q43 0 70.5 -31.5t27.5 -78.5t-27.5 -78t-70.5 -31zM623 586l270 854h164v-1317h-123l6 1096l-10 -43l-283 -897h-133l-283 901l-10 41l6 -1098h-123v1317h168l271 -858l39 -156z" />
    <glyph glyph-name="uni1E41" unicode="&#x1e41;" 
d="M610 1237q-44 0 -72 31t-28 78t28 77.5t72 30.5q43 0 72 -31t29 -77t-29 -77.5t-72 -31.5zM817 1077q104 0 165.5 -71t61.5 -191v-692h-114v684q0 156 -121 156q-78 0 -126 -87.5t-48 -230.5v-522h-117v655q0 185 -121 185q-77 0 -123.5 -87t-46.5 -231v-522h-118v940
h118v-80q66 94 179 94q67 0 118.5 -36t79.5 -101q35 66 90.5 101.5t122.5 35.5z" />
    <glyph glyph-name="uni1E42" unicode="&#x1e42;" 
d="M623 586l270 854h164v-1317h-123l6 1096l-10 -43l-283 -897h-133l-283 901l-10 41l6 -1098h-123v1317h168l271 -858l39 -156zM582 23q43 0 70.5 -31.5t27.5 -79.5q0 -47 -27.5 -78t-70.5 -31q-44 0 -72.5 31t-28.5 78q0 49 28.5 80t72.5 31z" />
    <glyph glyph-name="uni1E43" unicode="&#x1e43;" 
d="M817 1077q104 0 165.5 -71t61.5 -191v-692h-114v684q0 156 -121 156q-78 0 -126 -87.5t-48 -230.5v-522h-117v655q0 185 -121 185q-77 0 -123.5 -87t-46.5 -231v-522h-118v940h118v-80q66 94 179 94q67 0 118.5 -36t79.5 -101q35 66 90.5 101.5t122.5 35.5zM578 23
q43 0 70.5 -31.5t27.5 -79.5q0 -47 -27.5 -78t-70.5 -31q-44 0 -72.5 31t-28.5 78q0 49 28.5 80t72.5 31z" />
    <glyph glyph-name="uni1E44" unicode="&#x1e44;" 
d="M582 1538q-44 0 -72.5 31t-28.5 78q0 49 28 79.5t73 30.5q43 0 70.5 -31.5t27.5 -78.5t-27.5 -78t-70.5 -31zM922 305v1135h120v-1317h-149l-631 1085l-2 2l-20 45v-1132h-121v1317h155l623 -1084h2z" />
    <glyph glyph-name="uni1E45" unicode="&#x1e45;" 
d="M651 1237q-44 0 -72 31t-28 78t28 77.5t72 30.5q43 0 71 -30.5t28 -77.5t-28 -78t-71 -31zM651 1077q129 0 207 -82t78 -217v-655h-117v647q0 92 -45.5 142.5t-130.5 50.5q-92 0 -160 -69.5t-99.5 -175t-31.5 -229.5v-366h-116v940h116v-182q50 94 127 145t172 51z" />
    <glyph glyph-name="uni1E46" unicode="&#x1e46;" 
d="M922 305v1135h120v-1317h-149l-631 1085l-2 2l-20 45v-1132h-121v1317h155l623 -1084h2zM575 23q44 0 72.5 -31t28.5 -80q0 -47 -28.5 -78t-72.5 -31t-72 31t-28 78q0 49 28 80t72 31z" />
    <glyph glyph-name="uni1E47" unicode="&#x1e47;" 
d="M651 1077q129 0 207 -82t78 -217v-655h-117v647q0 92 -45.5 142.5t-130.5 50.5q-92 0 -160 -69.5t-99.5 -175t-31.5 -229.5v-366h-116v940h116v-182q50 94 127 145t172 51zM586 23q44 0 72 -31t28 -80q0 -47 -28 -78t-72 -31q-43 0 -71 31t-28 78t28 79t71 32z" />
    <glyph glyph-name="uni1E48" unicode="&#x1e48;" 
d="M922 305v1135h120v-1317h-149l-631 1085l-2 2l-20 45v-1132h-121v1317h155l623 -1084h2zM819 -145h-485v114h485v-114z" />
    <glyph glyph-name="uni1E49" unicode="&#x1e49;" 
d="M651 1077q129 0 207 -82t78 -217v-655h-117v647q0 92 -45.5 142.5t-130.5 50.5q-92 0 -160 -69.5t-99.5 -175t-31.5 -229.5v-366h-116v940h116v-182q50 94 127 145t172 51zM827 -145h-485v114h485v-114z" />
    <glyph glyph-name="uni1E56" unicode="&#x1e56;" 
d="M588 1538q-44 0 -72.5 31t-28.5 78q0 49 28 79.5t73 30.5q44 0 72 -30.5t28 -79.5q0 -47 -28 -78t-72 -31zM211 123v1317h461q160 0 256 -96.5t96 -256.5t-96 -256t-256 -96h-340v-612h-121zM672 1317h-340v-461h340q104 0 166.5 62.5t62.5 168.5t-61.5 168t-167.5 62z
" />
    <glyph glyph-name="uni1E57" unicode="&#x1e57;" 
d="M618 1237q-44 0 -72 31t-28 78t28 77.5t72 30.5q43 0 71 -30.5t28 -77.5t-28 -78t-71 -31zM618 1077q172 0 285 -137t113 -346q0 -210 -113 -347.5t-285 -137.5q-85 0 -156 38.5t-118 110.5v-512h-119v1317h119v-135q98 149 274 149zM614 223q125 0 205 104t80 267
q0 161 -80 265t-205 104q-120 0 -194 -97.5t-76 -255.5v-35q2 -158 76 -255t194 -97z" />
    <glyph glyph-name="uni1E5A" unicode="&#x1e5a;" 
d="M946 123l-297 598h-350v-598h-121v1317h473q169 0 271 -99t102 -262q0 -128 -66.5 -218.5t-183.5 -121.5l307 -616h-135zM651 1317h-352v-475h352q114 0 182 65t68 172q0 108 -68 173t-182 65zM598 -197q-44 0 -72 31t-28 78q0 49 28 80t72 31q43 0 70.5 -31.5
t27.5 -79.5q0 -47 -27.5 -78t-70.5 -31z" />
    <glyph glyph-name="uni1E5B" unicode="&#x1e5b;" 
d="M696 1077q134 0 209 -88.5t78 -249.5l-115 -16q-2 123 -45 181.5t-133 58.5q-76 0 -141.5 -54.5t-104 -146.5t-38.5 -199v-440h-119v940h119v-166q110 180 290 180zM350 23q44 0 72.5 -31t28.5 -80q0 -47 -28.5 -78t-72.5 -31q-43 0 -71.5 31.5t-28.5 77.5q0 47 28.5 79
t71.5 32z" />
    <glyph glyph-name="uni1E5C" unicode="&#x1e5c;" 
d="M344 1630v115h485v-115h-485zM946 123l-297 598h-350v-598h-121v1317h473q169 0 271 -99t102 -262q0 -128 -66.5 -218.5t-183.5 -121.5l307 -616h-135zM651 1317h-352v-475h352q114 0 182 65t68 172q0 108 -68 173t-182 65zM598 -197q-44 0 -72 31t-28 78q0 49 28 80
t72 31q43 0 70.5 -31.5t27.5 -79.5q0 -47 -27.5 -78t-70.5 -31z" />
    <glyph glyph-name="uni1E5D" unicode="&#x1e5d;" 
d="M428 1403h485v-115h-485v115zM696 1077q134 0 209 -88.5t78 -249.5l-115 -16q-2 123 -45 181.5t-133 58.5q-76 0 -141.5 -54.5t-104 -146.5t-38.5 -199v-440h-119v940h119v-166q110 180 290 180zM350 23q44 0 72.5 -31t28.5 -80q0 -47 -28.5 -78t-72.5 -31
q-43 0 -71.5 31.5t-28.5 77.5q0 47 28.5 79t71.5 32z" />
    <glyph glyph-name="uni1E5E" unicode="&#x1e5e;" 
d="M946 123l-297 598h-350v-598h-121v1317h473q169 0 271 -99t102 -262q0 -128 -66.5 -218.5t-183.5 -121.5l307 -616h-135zM651 1317h-352v-475h352q114 0 182 65t68 172q0 108 -68 173t-182 65zM354 -145v114h488v-114h-488z" />
    <glyph glyph-name="uni1E5F" unicode="&#x1e5f;" 
d="M696 1077q134 0 209 -88.5t78 -249.5l-115 -16q-2 123 -45 181.5t-133 58.5q-76 0 -141.5 -54.5t-104 -146.5t-38.5 -199v-440h-119v940h119v-166q110 180 290 180zM594 -145h-488v114h488v-114z" />
    <glyph glyph-name="uni1E60" unicode="&#x1e60;" 
d="M557 1538q-44 0 -72 31t-28 78q0 49 28 79.5t72 30.5t72 -30.5t28 -79.5q0 -47 -28 -78t-72 -31zM643 109q-438 0 -567 434l114 26q57 -172 168.5 -256t284.5 -84q138 0 224.5 78t86.5 201q0 110 -70.5 167.5t-228.5 74.5l-149 14q-203 20 -298 95t-95 216q0 167 124 273
t320 106q187 0 315 -102.5t156 -274.5l-119 -22q-23 129 -117 202.5t-235 73.5q-147 0 -235.5 -67t-88.5 -177q0 -94 64 -137.5t227 -62.5l152 -15q198 -20 298.5 -109t100.5 -243q0 -181 -120.5 -296t-311.5 -115z" />
    <glyph glyph-name="uni1E61" unicode="&#x1e61;" 
d="M573 1237q-44 0 -72 31t-28 78t28 77.5t72 30.5t73.5 -30.5t29.5 -77.5t-29.5 -78t-73.5 -31zM631 109q-188 0 -300 84.5t-143 250.5l115 7q22 -112 105 -170t223 -58q106 0 170.5 48t64.5 126q0 144 -202 156l-134 6q-305 18 -305 248q0 120 92 195t240 75
q337 0 383 -299l-115 -6q-17 99 -81.5 145t-186.5 46q-98 0 -157.5 -42t-59.5 -110q0 -66 45.5 -96t159.5 -37l131 -6q146 -9 224.5 -79t78.5 -192q0 -129 -97 -210.5t-251 -81.5z" />
    <glyph glyph-name="uni1E62" unicode="&#x1e62;" 
d="M643 109q-438 0 -567 434l114 26q57 -172 168.5 -256t284.5 -84q138 0 224.5 78t86.5 201q0 110 -70.5 167.5t-228.5 74.5l-149 14q-203 20 -298 95t-95 216q0 167 124 273t320 106q187 0 315 -102.5t156 -274.5l-119 -22q-23 129 -117 202.5t-235 73.5
q-147 0 -235.5 -67t-88.5 -177q0 -94 64 -137.5t227 -62.5l152 -15q198 -20 298.5 -109t100.5 -243q0 -181 -120.5 -296t-311.5 -115zM621 -197q-44 0 -72.5 31t-28.5 78q0 49 28.5 80t72.5 31t72 -31t28 -80q0 -47 -28 -78t-72 -31z" />
    <glyph glyph-name="uni1E63" unicode="&#x1e63;" 
d="M631 109q-188 0 -300 84.5t-143 250.5l115 7q22 -112 105 -170t223 -58q106 0 170.5 48t64.5 126q0 144 -202 156l-134 6q-305 18 -305 248q0 120 92 195t240 75q337 0 383 -299l-115 -6q-17 99 -81.5 145t-186.5 46q-98 0 -157.5 -42t-59.5 -110q0 -66 45.5 -96
t159.5 -37l131 -6q146 -9 224.5 -79t78.5 -192q0 -129 -97 -210.5t-251 -81.5zM631 -197q-44 0 -72.5 31t-28.5 78q0 49 28.5 80t72.5 31q43 0 71.5 -32t28.5 -79q0 -46 -28.5 -77.5t-71.5 -31.5z" />
    <glyph glyph-name="uni1E6A" unicode="&#x1e6a;" 
d="M582 1538q-44 0 -72.5 31t-28.5 78q0 49 28 79.5t73 30.5q43 0 70.5 -31.5t27.5 -78.5t-27.5 -78t-70.5 -31zM125 1317v123h911v-123h-395v-1194h-121v1194h-395z" />
    <glyph glyph-name="uni1E6B" unicode="&#x1e6b;" 
d="M473 1589q-43 0 -70.5 31.5t-27.5 79.5q0 47 27.5 77.5t70.5 30.5q44 0 73 -30.5t29 -77.5q0 -50 -28 -80.5t-74 -30.5zM172 948v115h242v280h116v-280h400v-115h-400v-561q0 -164 146 -164q63 0 119 37.5t94 104.5l74 -84q-52 -83 -127 -127.5t-162 -44.5
q-121 0 -190.5 72t-69.5 198v569h-242z" />
    <glyph glyph-name="uni1E6C" unicode="&#x1e6c;" 
d="M125 1317v123h911v-123h-395v-1194h-121v1194h-395zM582 -197q-44 0 -72.5 31t-28.5 78q0 49 28.5 80t72.5 31q43 0 70.5 -31.5t27.5 -79.5q0 -47 -27.5 -78t-70.5 -31z" />
    <glyph glyph-name="uni1E6D" unicode="&#x1e6d;" 
d="M172 948v115h242v280h116v-280h400v-115h-400v-561q0 -164 146 -164q63 0 119 37.5t94 104.5l74 -84q-52 -83 -127 -127.5t-162 -44.5q-121 0 -190.5 72t-69.5 198v569h-242zM655 -197q-43 0 -70.5 31t-27.5 78q0 48 27.5 79.5t70.5 31.5q46 0 74.5 -31t28.5 -80
q0 -47 -29.5 -78t-73.5 -31z" />
    <glyph glyph-name="uni1E6E" unicode="&#x1e6e;" 
d="M125 1317v123h911v-123h-395v-1194h-121v1194h-395zM338 -145v114h485v-114h-485z" />
    <glyph glyph-name="uni1E6F" unicode="&#x1e6f;" 
d="M172 948v115h242v280h116v-280h400v-115h-400v-561q0 -164 146 -164q63 0 119 37.5t94 104.5l74 -84q-52 -83 -127 -127.5t-162 -44.5q-121 0 -190.5 72t-69.5 198v569h-242zM414 -145v114h485v-114h-485z" />
    <glyph glyph-name="uni1E7C" unicode="&#x1e7c;" 
d="M422 1597h-111q-3 109 37.5 169.5t116.5 60.5q28 0 59 -14t43.5 -23.5t44.5 -34.5q57 -47 80 -47q28 0 39 27t8 88h111q3 -109 -37.5 -169.5t-116.5 -60.5q-28 0 -59 14t-43.5 23.5t-44.5 34.5q-57 47 -80 47q-28 0 -39 -27t-8 -88zM623 455l323 985h125l-432 -1317h-117
l-430 1317h127l324 -989l39 -132z" />
    <glyph glyph-name="uni1E7D" unicode="&#x1e7d;" 
d="M422 1221h-111q-3 109 37.5 169t116.5 60q28 0 57.5 -12.5t46.5 -25t43 -34.5q3 -2 9.5 -7t9.5 -7t8.5 -6.5t8.5 -6.5t8 -5l7.5 -4.5t7 -3.5t7.5 -3t7 -1.5t7 -0.5q28 0 39 26.5t8 86.5h111q3 -108 -37.5 -167.5t-116.5 -59.5q-41 0 -74.5 19t-72.5 52q-3 2 -9.5 7
t-9.5 7t-8.5 6.5t-8.5 6.5t-8 5l-7.5 4.5t-7 3.5t-7.5 3t-7 1.5t-7 0.5q-28 0 -39 -26.5t-8 -87.5zM623 395l215 668h123l-308 -940h-145l-307 940h127l215 -672l39 -127z" />
    <glyph glyph-name="Wgrave" unicode="&#x1e80;" 
d="M750 1626l12 -110l-418 137l-16 145zM834 530l112 910h121l-174 -1317h-145l-162 835l-6 54l-9 -54l-159 -835h-142l-174 1317h123l113 -914l16 -174l29 178l141 732h125l141 -732l31 -190z" />
    <glyph glyph-name="wgrave" unicode="&#x1e81;" 
d="M752 1251l12 -112l-418 139l-16 143zM825 457l129 606h119l-207 -940h-123l-149 606l-12 68l-15 -68l-149 -606h-123l-207 940h121l131 -606l22 -142l25 142l131 518h129l129 -518l27 -144z" />
    <glyph glyph-name="Wacute" unicode="&#x1e82;" 
d="M412 1626l422 172l-17 -145l-418 -137zM834 530l112 910h121l-174 -1317h-145l-162 835l-6 54l-9 -54l-159 -835h-142l-174 1317h123l113 -914l16 -174l29 178l141 732h125l141 -732l31 -190z" />
    <glyph glyph-name="wacute" unicode="&#x1e83;" 
d="M414 1229l422 172l-17 -146l-418 -137zM825 457l129 606h119l-207 -940h-123l-149 606l-12 68l-15 -68l-149 -606h-123l-207 940h121l131 -606l22 -142l25 142l131 518h129l129 -518l27 -144z" />
    <glyph glyph-name="Wdieresis" unicode="&#x1e84;" 
d="M406 1546q-40 0 -67.5 29t-27.5 72q0 44 27 73t68 29q40 0 66 -29t26 -73q0 -43 -26 -72t-66 -29zM756 1546q-40 0 -66 29t-26 72q0 44 26 73t66 29q41 0 67.5 -29t26.5 -73q0 -43 -27 -72t-67 -29zM834 530l112 910h121l-174 -1317h-145l-162 835l-6 54l-9 -54
l-159 -835h-142l-174 1317h123l113 -914l16 -174l29 178l141 732h125l141 -732l31 -190z" />
    <glyph glyph-name="wdieresis" unicode="&#x1e85;" 
d="M408 1169q-41 0 -68 29.5t-27 73.5q0 43 27.5 71.5t67.5 28.5t66 -28.5t26 -71.5q0 -44 -26 -73.5t-66 -29.5zM758 1169q-40 0 -66 29.5t-26 73.5q0 43 26 71.5t66 28.5t67 -28.5t27 -71.5q0 -44 -26.5 -73.5t-67.5 -29.5zM825 457l129 606h119l-207 -940h-123l-149 606
l-12 68l-15 -68l-149 -606h-123l-207 940h121l131 -606l22 -142l25 142l131 518h129l129 -518l27 -144z" />
    <glyph glyph-name="uni1E92" unicode="&#x1e92;" 
d="M66 123v102l702 963l100 131l-125 -2h-618v123h903v-103l-700 -962l-101 -133l125 4h744v-123h-1030zM582 -197q-44 0 -72.5 31t-28.5 78q0 49 28.5 80t72.5 31q43 0 70.5 -31.5t27.5 -79.5q0 -47 -27.5 -78t-70.5 -31z" />
    <glyph glyph-name="uni1E93" unicode="&#x1e93;" 
d="M193 123v94l454 617l90 116l-119 -2h-393v115h672v-94l-457 -617l-92 -119l123 5h492v-115h-770zM578 -197q-44 0 -72.5 31t-28.5 78q0 49 28.5 80t72.5 31q43 0 70.5 -31.5t27.5 -79.5q0 -47 -27.5 -78t-70.5 -31z" />
    <glyph glyph-name="uni1E97" unicode="&#x1e97;" 
d="M299 1524q-40 0 -67 29.5t-27 72.5t27 71.5t67 28.5t67 -28.5t27 -71.5t-27 -72.5t-67 -29.5zM651 1524q-41 0 -67.5 29t-26.5 73q0 43 27 71.5t67 28.5q38 0 65 -29.5t27 -70.5q0 -43 -27 -72.5t-65 -29.5zM172 948v115h242v280h116v-280h400v-115h-400v-561
q0 -164 146 -164q63 0 119 37.5t94 104.5l74 -84q-52 -83 -127 -127.5t-162 -44.5q-121 0 -190.5 72t-69.5 198v569h-242z" />
    <glyph glyph-name="uni1EA0" unicode="&#x1ea0;" 
d="M518 1440h125l467 -1317h-131l-139 395h-521l-141 -395h-127zM545 1153l-185 -514h437l-183 514l-34 107zM582 23q43 0 70.5 -31.5t27.5 -79.5q0 -47 -27.5 -78t-70.5 -31q-44 0 -72.5 31t-28.5 78q0 49 28.5 80t72.5 31z" />
    <glyph glyph-name="uni1EA1" unicode="&#x1ea1;" 
d="M1032 289l15 -2l59 -74q-16 -32 -63 -65t-107 -33q-70 0 -118.5 37.5t-65.5 103.5q-104 -147 -287 -147q-131 0 -215 78.5t-84 199.5q0 106 53.5 169.5t167.5 94.5l281 74q41 10 58 32t17 64q0 74 -43 108t-137 34q-108 0 -173 -51t-75 -144l-110 23q23 138 115.5 212
t242.5 74q140 0 218.5 -67.5t78.5 -188.5v-489q0 -105 78 -105q48 0 82 49zM471 223q112 0 189 79.5t83 201.5v135q-17 -13 -49 -23l-266 -69q-79 -20 -112 -57t-33 -103q0 -74 51.5 -119t136.5 -45zM489 23q46 0 74.5 -31t28.5 -80q0 -47 -29.5 -78t-73.5 -31
q-43 0 -70.5 31t-27.5 78q0 48 27.5 79.5t70.5 31.5z" />
    <glyph glyph-name="uni1EB8" unicode="&#x1eb8;" 
d="M186 123v1317h797v-123h-676v-438h623v-121h-623v-512h709v-123h-830zM590 -197q-43 0 -72 31.5t-29 77.5q0 47 29 79t72 32q44 0 73 -32t29 -79t-29 -78t-73 -31z" />
    <glyph glyph-name="uni1EB9" unicode="&#x1eb9;" 
d="M598 109q-170 0 -279.5 136.5t-109.5 348.5q0 207 107 345t268 138q157 0 256.5 -123t99.5 -317v-80h-614q9 -156 81.5 -245t190.5 -89q40 0 74.5 12.5t57 29t45.5 45.5t33.5 47t27.5 48l1.5 3t1.5 2.5t1.5 3t1.5 2.5l100 -54q-23 -40 -36.5 -62.5t-47.5 -64t-66.5 -65
t-84 -42.5t-109.5 -19zM584 963q-101 0 -169 -78t-85 -213h491q-8 137 -70.5 214t-166.5 77zM598 -197q-44 0 -72 31t-28 78q0 49 28 80t72 31q43 0 70.5 -31.5t27.5 -79.5q0 -47 -27.5 -78t-70.5 -31z" />
    <glyph glyph-name="uni1EBC" unicode="&#x1ebc;" 
d="M711 1593q-11 0 -22.5 2t-20 4.5t-21.5 9t-18 8.5t-19 12t-16.5 11.5t-17.5 13.5l-15 11q-57 47 -80 47q-51 0 -45 -115h-112q-3 109 37 169.5t116 60.5q63 0 148 -72q57 -47 82 -47q51 0 45 115h110q3 -108 -36.5 -169t-114.5 -61zM186 123v1317h797v-123h-676v-438h623
v-121h-623v-512h709v-123h-830z" />
    <glyph glyph-name="uni1EBD" unicode="&#x1ebd;" 
d="M700 1219q-27 0 -56.5 12t-47 24t-43.5 33q-57 47 -82 47q-51 0 -45 -114h-111q-3 109 37.5 169t116.5 60q27 0 57.5 -13.5t43.5 -22.5t46 -34q57 -47 80 -47q28 0 39 26.5t8 86.5h111q3 -108 -37.5 -167.5t-116.5 -59.5zM598 109q-170 0 -279.5 136.5t-109.5 348.5
q0 207 107 345t268 138q157 0 256.5 -123t99.5 -317v-80h-614q9 -156 81.5 -245t190.5 -89q40 0 74.5 12.5t57 29t45.5 45.5t33.5 47t27.5 48l1.5 3t1.5 2.5t1.5 3t1.5 2.5l100 -54q-23 -40 -36.5 -62.5t-47.5 -64t-66.5 -65t-84 -42.5t-109.5 -19zM584 963q-101 0 -169 -78
t-85 -213h491q-8 137 -70.5 214t-166.5 77z" />
    <glyph glyph-name="uni1ECA" unicode="&#x1eca;" 
d="M193 1321v119h778v-119h-330v-1079h330v-119h-778v119h327v1079h-327zM582 -197q-44 0 -72.5 31t-28.5 78q0 49 28.5 80t72.5 31q43 0 70.5 -31.5t27.5 -79.5q0 -47 -27.5 -78t-70.5 -31z" />
    <glyph glyph-name="uni1ECB" unicode="&#x1ecb;" 
d="M606 1237q-43 0 -71.5 31.5t-28.5 77.5t28.5 77t71.5 31q44 0 73.5 -30.5t29.5 -77.5t-29.5 -78t-73.5 -31zM270 123v115h297v710h-264v115h381v-825h291v-115h-705zM623 -197q-43 0 -71 31t-28 78t28 79t71 32q46 0 74 -30.5t28 -80.5q0 -47 -29 -78t-73 -31z" />
    <glyph glyph-name="uni1ECC" unicode="&#x1ecc;" 
d="M582 109q-147 0 -265 86.5t-184.5 240t-66.5 344.5q0 192 66 346t184.5 241t265.5 87t264.5 -87t183.5 -241t66 -346t-66 -345.5t-183.5 -239.5t-264.5 -86zM582 229q167 0 280 158t113 393q0 155 -51 281.5t-141 198t-201 71.5q-169 0 -282.5 -157.5t-113.5 -393.5
q0 -154 51.5 -280.5t142.5 -198.5t202 -72zM582 -197q-44 0 -72.5 31t-28.5 78q0 49 28.5 80t72.5 31q43 0 70.5 -31.5t27.5 -79.5q0 -47 -27.5 -78t-70.5 -31z" />
    <glyph glyph-name="uni1ECD" unicode="&#x1ecd;" 
d="M582 109q-179 0 -293.5 136.5t-114.5 348.5q0 211 115 347t293 136q177 0 291 -136t114 -347t-114 -348t-291 -137zM582 223q126 0 206 104t80 267t-80 266t-206 103q-127 0 -208 -103t-81 -266q0 -164 80.5 -267.5t208.5 -103.5zM582 -197q-44 0 -72.5 31t-28.5 78
q0 49 28.5 80t72.5 31q43 0 70.5 -31.5t27.5 -79.5q0 -47 -27.5 -78t-70.5 -31z" />
    <glyph glyph-name="uni1EE4" unicode="&#x1ee4;" 
d="M582 109q-217 0 -343 121.5t-126 332.5v877h120v-877q0 -157 93 -245.5t256 -88.5t255.5 88.5t92.5 245.5v877h119v-877q0 -211 -125 -332.5t-342 -121.5zM582 -197q-44 0 -72.5 31t-28.5 78q0 49 28.5 80t72.5 31q43 0 70.5 -31.5t27.5 -79.5q0 -47 -27.5 -78t-70.5 -31
z" />
    <glyph glyph-name="uni1EE5" unicode="&#x1ee5;" 
d="M813 696v367h117v-940h-117v186q-51 -97 -127.5 -148.5t-171.5 -51.5q-129 0 -207 82.5t-78 218.5v653h115v-647q0 -92 46.5 -142.5t131.5 -50.5q90 0 158 69t100.5 175t32.5 229zM514 23q44 0 72 -31t28 -80q0 -47 -28 -78t-72 -31q-43 0 -71.5 31.5t-28.5 77.5
q0 47 28.5 79t71.5 32z" />
    <glyph glyph-name="Ygrave" unicode="&#x1ef2;" 
d="M762 1516l-418 137l-16 145l422 -172zM520 123v620l-436 697h137l361 -580l360 580h137l-438 -697v-620h-121z" />
    <glyph glyph-name="ygrave" unicode="&#x1ef3;" 
d="M827 1139l-411 139l-17 143l424 -174zM406 -268q-54 0 -105 21t-88 54.5t-62.5 66.5t-41.5 65l98 57q34 -72 86.5 -111t112.5 -39t90 30t61 120l53 143l-360 924h123l252 -639l45 -125l39 125l221 639h123l-381 -1090q-25 -66 -46.5 -106.5t-52 -73.5t-71 -47t-96.5 -14z
" />
    <glyph glyph-name="uni1EF8" unicode="&#x1ef8;" 
d="M696 1593q-28 0 -59 14t-43.5 23.5t-44.5 34.5q-57 47 -80 47q-28 0 -39 -27t-8 -88h-111q-3 109 37.5 169.5t116.5 60.5q28 0 59 -14t43.5 -23.5t44.5 -34.5q57 -47 80 -47q28 0 39 27t8 88h111q3 -109 -37.5 -169.5t-116.5 -60.5zM520 123v620l-436 697h137l361 -580
l360 580h137l-438 -697v-620h-121z" />
    <glyph glyph-name="uni1EF9" unicode="&#x1ef9;" 
d="M768 1219q-27 0 -57 13t-44.5 22.5t-45.5 33.5q-57 47 -80 47q-28 0 -39 -26.5t-8 -87.5h-111q-3 109 37.5 169t116.5 60q27 0 57 -12.5t46.5 -24t43.5 -33.5q57 -47 82 -47q51 0 45 113h111q3 -108 -37.5 -167.5t-116.5 -59.5zM406 -268q-54 0 -105 21t-88 54.5
t-62.5 66.5t-41.5 65l98 57q34 -72 86.5 -111t112.5 -39t90 30t61 120l53 143l-360 924h123l252 -639l45 -125l39 125l221 639h123l-381 -1090q-25 -66 -46.5 -106.5t-52 -73.5t-71 -47t-96.5 -14z" />
    <glyph glyph-name="uni2000" unicode="&#x2000;" 
 />
    <glyph glyph-name="uni2001" unicode="&#x2001;" 
 />
    <glyph glyph-name="uni2002" unicode="&#x2002;" 
 />
    <glyph glyph-name="uni2003" unicode="&#x2003;" 
 />
    <glyph glyph-name="uni2004" unicode="&#x2004;" 
 />
    <glyph glyph-name="uni2005" unicode="&#x2005;" 
 />
    <glyph glyph-name="uni2006" unicode="&#x2006;" 
 />
    <glyph glyph-name="uni2007" unicode="&#x2007;" 
 />
    <glyph glyph-name="uni2008" unicode="&#x2008;" 
 />
    <glyph glyph-name="uni2009" unicode="&#x2009;" 
 />
    <glyph glyph-name="uni200A" unicode="&#x200a;" 
 />
    <glyph glyph-name="uni200B" unicode="&#x200b;" 
 />
    <glyph glyph-name="figuredash" unicode="&#x2012;" 
d="M133 602v123h895v-123h-895z" />
    <glyph glyph-name="endash" unicode="&#x2013;" 
d="M133 602v123h895v-123h-895z" />
    <glyph glyph-name="emdash" unicode="&#x2014;" 
d="M-25 602v123h1211v-123h-1211z" />
    <glyph glyph-name="uni2015" unicode="&#x2015;" 
d="M-25 602v123h1211v-123h-1211z" />
    <glyph glyph-name="quoteleft" unicode="&#x2018;" 
d="M637 1462l68 -65q-115 -112 -121 -238q50 -5 79 -35t29 -77q0 -49 -29 -81t-73 -32q-57 0 -89 52t-32 144q0 187 168 332z" />
    <glyph glyph-name="quoteright" unicode="&#x2019;" 
d="M578 1454q57 0 87.5 -52t30.5 -145q0 -191 -166 -331l-69 65q117 108 123 238q-48 5 -77.5 35t-29.5 77q0 50 28.5 81.5t72.5 31.5z" />
    <glyph glyph-name="quotesinglbase" unicode="&#x201a;" 
d="M578 334q57 0 87.5 -52.5t30.5 -146.5q0 -192 -166 -330l-69 66q117 111 123 238q-48 5 -77.5 35t-29.5 77q0 50 28.5 81.5t72.5 31.5z" />
    <glyph glyph-name="quotereversed" unicode="&#x201b;" 
d="M584 1229q6 -126 121 -238l-68 -65q-168 145 -168 331q0 92 32 144.5t89 52.5q44 0 73 -32t29 -81q0 -47 -29 -77t-79 -35z" />
    <glyph glyph-name="quotedblleft" unicode="&#x201c;" 
d="M303 1130q0 187 168 332l68 -65q-115 -112 -121 -238q50 -5 79 -35t29 -77q0 -49 -29 -81t-73 -32q-57 0 -89 52t-32 144zM803 1462l67 -65q-114 -111 -120 -238q50 -5 79 -35t29 -77q0 -49 -29 -81t-73 -32q-57 0 -89 52t-32 144q0 187 168 332z" />
    <glyph glyph-name="quotedblright" unicode="&#x201d;" 
d="M412 1454q57 0 87.5 -52t30.5 -145q0 -192 -165 -331l-70 65q117 108 123 238q-48 5 -77.5 35t-29.5 77q0 50 28.5 81.5t72.5 31.5zM743 1454q57 0 88 -52t31 -145q0 -191 -166 -331l-69 65q117 108 123 238q-48 5 -77.5 35t-29.5 77q0 50 28 81.5t72 31.5z" />
    <glyph glyph-name="quotedblbase" unicode="&#x201e;" 
d="M412 334q57 0 87.5 -52.5t30.5 -146.5q0 -193 -165 -330l-70 66q117 111 123 238q-48 5 -77.5 35t-29.5 77q0 50 28.5 81.5t72.5 31.5zM743 334q57 0 88 -52.5t31 -146.5q0 -192 -166 -330l-69 66q117 111 123 238q-48 5 -77.5 35t-29.5 77q0 50 28 81.5t72 31.5z" />
    <glyph glyph-name="uni201F" unicode="&#x201f;" 
d="M418 1229q6 -126 121 -238l-68 -65q-168 145 -168 331q0 92 32 144.5t89 52.5q44 0 73 -32t29 -81q0 -47 -29 -77t-79 -35zM750 1229q6 -127 120 -238l-67 -65q-168 145 -168 331q0 92 32 144.5t89 52.5q44 0 73 -32t29 -81q0 -47 -29 -77t-79 -35z" />
    <glyph glyph-name="dagger" unicode="&#x2020;" 
d="M199 948v123h321v369h121v-369h322v-123h-322v-1024h-121v1024h-321z" />
    <glyph glyph-name="daggerdbl" unicode="&#x2021;" 
d="M199 948v123h321v369h121v-369h322v-123h-322v-534h322v-121h-322v-369h-121v369h-321v121h321v534h-321z" />
    <glyph glyph-name="bullet" unicode="&#x2022;" 
d="M582 389q-83 0 -140 62t-57 153q0 92 56 153.5t141 61.5q83 0 138.5 -61.5t55.5 -153.5t-55.5 -153.5t-138.5 -61.5z" />
    <glyph glyph-name="ellipsis" unicode="&#x2026;" 
d="M223 109q-44 0 -74 32.5t-30 79.5t30 80t74 33t73.5 -32t29.5 -81t-29 -80.5t-74 -31.5zM582 109q-46 0 -75.5 31.5t-29.5 80.5t29.5 81t75.5 32q44 0 73 -32t29 -81t-29 -80.5t-73 -31.5zM938 109q-44 0 -73 31.5t-29 80.5t29 81t73 32t74 -33t30 -80t-30 -79.5
t-74 -32.5z" />
    <glyph glyph-name="perthousand" unicode="&#x2030;" 
d="M266 926q-106 0 -176 75t-70 189t70 189t176 75q105 0 174.5 -75t69.5 -189t-69.5 -189t-174.5 -75zM266 1038q56 0 93.5 44t37.5 108q0 67 -37 110t-94 43t-95 -43.5t-38 -109.5q0 -65 38 -108.5t95 -43.5zM76 428l-72 92l705 615l69 -93zM895 109q-56 0 -105.5 25.5
t-82.5 70.5q-33 -45 -83 -70.5t-106 -25.5q-106 0 -177 75t-71 189t70.5 188t177.5 74q57 0 107 -25t82 -69q69 94 188 94q106 0 176 -74t70 -188q0 -115 -69.5 -189.5t-176.5 -74.5zM518 219q57 0 95 44t38 110q0 65 -38 108t-95 43t-95 -43t-38 -108q0 -66 38 -110t95 -44
zM895 219q57 0 95 44t38 110q0 65 -38 108t-95 43q-56 0 -93.5 -43.5t-37.5 -107.5q0 -67 37 -110.5t94 -43.5z" />
    <glyph glyph-name="minute" unicode="&#x2032;" 
d="M604 889h-47q-59 274 -59 434q0 62 22 96.5t62 34.5t61 -34t21 -97q0 -155 -60 -434z" />
    <glyph glyph-name="second" unicode="&#x2033;" 
d="M432 889h-47q-61 284 -61 434q0 62 22 96.5t62 34.5t62 -34.5t22 -96.5q0 -155 -60 -434zM776 889h-45q-61 269 -61 434q0 62 22 96.5t62 34.5t62 -34.5t22 -96.5q0 -146 -62 -434z" />
    <glyph glyph-name="guilsinglleft" unicode="&#x2039;" 
d="M700 205l-319 418l319 417l84 -71l-268 -344l268 -344z" />
    <glyph glyph-name="guilsinglright" unicode="&#x203a;" 
d="M461 205l-82 71l266 345l-268 348l84 71l319 -417z" />
    <glyph glyph-name="fraction" unicode="&#x2044;" 
d="M154 123l729 1317h125l-729 -1317h-125z" />
    <glyph glyph-name="uni2070" unicode="&#x2070;" 
d="M580 745q-104 0 -170 98t-66 255q0 156 66 254t170 98t168.5 -97.5t64.5 -254.5t-64.5 -255t-168.5 -98zM580 850q57 0 92 68t35 180t-35 181t-92 69t-92 -69t-35 -181q0 -109 35.5 -178.5t91.5 -69.5z" />
    <glyph glyph-name="uni2074" unicode="&#x2074;" 
d="M727 1440v-400h98v-102h-98v-180h-109v180h-282v84l252 418h139zM475 1063l-16 -23h159v265z" />
    <glyph glyph-name="uni2075" unicode="&#x2075;" 
d="M592 1245q91 0 146 -68t55 -180q0 -110 -61.5 -181t-156.5 -71q-177 0 -221 216l105 24q9 -66 39 -100.5t77 -34.5q50 0 80.5 40.5t30.5 106.5q0 64 -27.5 105t-70.5 41q-38 0 -63 -25t-29 -69l-111 6l31 385h356l-10 -103h-252l-12 -120q42 28 94 28z" />
    <glyph glyph-name="uni2076" unicode="&#x2076;" 
d="M590 1225q92 0 151.5 -68t59.5 -172t-58 -172t-149 -68q-107 0 -171.5 90.5t-64.5 241.5q0 169 66 271t176 102q124 0 199 -137l-94 -49q-22 44 -47 64t-60 20q-45 0 -78 -44.5t-45 -121.5q49 43 115 43zM594 850q44 0 71 37t27 98q0 63 -29.5 101t-78.5 38
q-46 0 -76.5 -38.5t-30.5 -96.5q0 -57 35 -98t82 -41z" />
    <glyph glyph-name="uni2077" unicode="&#x2077;" 
d="M487 758v26q0 172 44.5 301t127.5 252h-288v103h420v-88q-44 -60 -72.5 -107.5t-60.5 -118.5t-48 -156.5t-16 -185.5v-26h-107z" />
    <glyph glyph-name="uni2078" unicode="&#x2078;" 
d="M582 745q-95 0 -159.5 60t-64.5 149q0 53 24 97.5t67 70.5q-68 55 -68 142q0 80 57.5 133t143.5 53q85 0 141.5 -53t56.5 -133q0 -87 -67 -142q41 -28 64.5 -72.5t23.5 -95.5q0 -89 -62.5 -149t-156.5 -60zM582 1169q40 0 65 25.5t25 65.5q0 38 -25 63t-65 25
q-41 0 -67 -24t-26 -64t26 -65.5t67 -25.5zM582 850q47 0 78.5 32t31.5 79t-31.5 78.5t-78.5 31.5q-49 0 -82 -31.5t-33 -78.5t33 -79t82 -32z" />
    <glyph glyph-name="uni2079" unicode="&#x2079;" 
d="M567 1450q107 0 170.5 -90t63.5 -242q0 -180 -61.5 -276.5t-176.5 -96.5q-83 0 -137.5 51.5t-71.5 145.5h109q19 -92 104 -92q100 0 121 166q-48 -45 -117 -45q-94 0 -153.5 67.5t-59.5 171.5t59 172t150 68zM578 1073q46 0 76 37.5t30 95.5t-35 100t-82 42
q-44 0 -72 -38.5t-28 -99.5t30.5 -99t80.5 -38z" />
    <glyph glyph-name="uni2080" unicode="&#x2080;" 
d="M580 -209q-104 0 -170 98t-66 254q0 157 66 255t170 98t168.5 -98t64.5 -255t-64.5 -254.5t-168.5 -97.5zM580 -104q57 0 92 67.5t35 179.5t-35 180t-92 68t-92 -68.5t-35 -179.5q0 -110 35 -178.5t92 -68.5z" />
    <glyph glyph-name="uni2081" unicode="&#x2081;" 
d="M567 -199v465q-47 -33 -135 -33h-29v105h29q75 0 110 34.5t38 112.5h96v-684h-109z" />
    <glyph glyph-name="uni2082" unicode="&#x2082;" 
d="M375 -199v45q0 88 35.5 145t111.5 113l37 29q59 42 85 80.5t26 83.5q0 44 -23.5 69t-66.5 25q-93 0 -107 -133l-102 18q12 105 67 162.5t144 57.5q86 0 140 -54.5t54 -140.5q0 -133 -155 -250l-37 -26q-83 -63 -99 -121h308v-103h-418z" />
    <glyph glyph-name="uni2083" unicode="&#x2083;" 
d="M582 -209q-178 0 -232 195l99 34q24 -124 133 -124q48 0 76 28.5t28 77.5q0 107 -129 107h-70v100h54q112 0 112 96q0 40 -23 63t-63 23q-43 0 -70 -27.5t-30 -76.5l-100 24q12 84 67 134.5t135 50.5q86 0 139.5 -52t53.5 -135q0 -84 -66 -135q46 -23 71.5 -68.5
t25.5 -103.5q0 -91 -60 -151t-151 -60z" />
    <glyph glyph-name="uni2084" unicode="&#x2084;" 
d="M727 485v-401h98v-100h-98v-183h-109v183h-282v82l252 419h139zM475 109l-16 -25h159v266z" />
    <glyph glyph-name="uni2085" unicode="&#x2085;" 
d="M592 291q90 0 145.5 -68.5t55.5 -179.5q0 -110 -61.5 -181t-156.5 -71q-177 0 -221 209l105 31q18 -135 116 -135q50 0 80.5 40.5t30.5 106.5q0 64 -27.5 104.5t-70.5 40.5q-38 0 -63 -25t-29 -69l-111 6l31 385h356l-10 -102h-252l-12 -121q44 29 94 29z" />
    <glyph glyph-name="uni2086" unicode="&#x2086;" 
d="M590 270q92 0 151.5 -67.5t59.5 -171.5t-58 -172t-149 -68q-107 0 -171.5 90.5t-64.5 241.5q0 169 66 271t176 102q123 0 199 -138l-94 -49q-22 44 -47 63t-60 19q-46 0 -78.5 -44t-44.5 -122q48 45 115 45zM594 -104q44 0 71 37t27 98q0 63 -29.5 101t-78.5 38
q-46 0 -76.5 -38.5t-30.5 -96.5q0 -57 35 -98t82 -41z" />
    <glyph glyph-name="uni2087" unicode="&#x2087;" 
d="M487 -199v29q0 172 44.5 301t127.5 252h-288v102h420v-88q-44 -60 -72.5 -107.5t-60.5 -118t-48 -156t-16 -185.5v-29h-107z" />
    <glyph glyph-name="uni2088" unicode="&#x2088;" 
d="M582 -209q-97 0 -160.5 59t-63.5 150q0 111 91 168q-68 52 -68 141q0 80 57.5 133.5t143.5 53.5q85 0 141.5 -53.5t56.5 -133.5q0 -88 -67 -143q41 -28 64.5 -71.5t23.5 -94.5q0 -89 -62.5 -149t-156.5 -60zM582 215q40 0 65 25t25 63t-25 63t-65 25q-41 0 -67 -24
t-26 -64t26 -64t67 -24zM582 -104q50 0 80 30t30 80q0 48 -30.5 78.5t-79.5 30.5q-51 0 -83 -30.5t-32 -78.5q0 -49 32 -79.5t83 -30.5z" />
    <glyph glyph-name="uni2089" unicode="&#x2089;" 
d="M567 496q107 0 170.5 -90t63.5 -242q0 -180 -61.5 -276.5t-176.5 -96.5q-83 0 -137.5 51.5t-71.5 145.5h109q19 -92 104 -92q100 0 121 165q-48 -45 -117 -45q-93 0 -153 67.5t-60 172.5q0 104 59 172t150 68zM578 119q46 0 76 37.5t30 95.5q0 57 -35 98t-82 41
q-46 0 -73 -36t-27 -99q0 -61 30.5 -99t80.5 -38z" />
    <glyph glyph-name="colonmonetary" unicode="&#x20a1;" 
d="M465 -47l35 166q-82 13 -142 49l-43 -215h-114l61 291q-95 93 -145.5 232t-50.5 304q0 264 123 449.5t319 216.5l33 164h114l-32 -156q78 -9 143 -37l39 193h115l-52 -254q138 -117 179 -352l-121 -23q-24 141 -88 229l-201 -979q239 27 319 338l111 -45
q-47 -194 -164.5 -300.5t-290.5 -114.5l-32 -156h-115zM598 1331l-211 -1032q61 -46 137 -61l217 1054q-62 33 -143 39zM186 780q0 -232 105 -383l188 918q-131 -44 -212 -191.5t-81 -343.5z" />
    <glyph glyph-name="uni20A6" unicode="&#x20a6;" 
d="M1149 989v-115h-145v-180h145v-114h-145v-457h-150l-238 457h-337v-457h-121v457h-146v114h146v180h-146v115h146v451h157l228 -451h340v451h121v-451h145zM279 989h127l-95 178l-32 74v-252zM279 874v-180h278l-94 180h-184zM883 874h-281l92 -180h189v180zM754 580
l96 -185l33 -73v258h-129z" />
    <glyph glyph-name="Euro" unicode="&#x20ac;" 
d="M80 860v115h149q40 224 163 351.5t298 127.5q139 0 240.5 -76t154.5 -219l-102 -57q-38 112 -113 170.5t-180 58.5q-126 0 -215.5 -93.5t-126.5 -262.5h465l-20 -115h-459q-2 -25 -2 -80q0 -53 2 -78h434l-23 -114h-397q37 -170 126.5 -264.5t215.5 -94.5q104 0 179.5 59
t113.5 171l102 -58q-53 -141 -154.5 -216.5t-240.5 -75.5q-175 0 -298 127.5t-163 351.5h-149v114h135q-4 50 -4 78q0 30 4 80h-135z" />
    <glyph glyph-name="uni20B2" unicode="&#x20b2;" 
d="M672 1323v-524h403v-676h-121v172q-105 -161 -282 -182v-160h-115v158q-211 23 -340 207t-129 462q0 281 131.5 469.5t337.5 202.5v158h115v-164q145 -25 248 -135.5t137 -276.5l-121 -22q-22 119 -92.5 202t-171.5 109zM557 236v1095q-153 -19 -249.5 -172.5
t-96.5 -378.5q0 -223 95 -372t251 -172zM672 676v-440q126 22 204 131t78 264v45h-282z" />
    <glyph glyph-name="uni20B5" unicode="&#x20b5;" 
d="M541 -47v158q-211 22 -343 208t-132 461q0 278 133 465.5t342 206.5v158h114v-164q157 -20 258.5 -134.5t133.5 -307.5l-121 -23q-23 147 -93 235.5t-178 108.5v-1089q228 35 301 333l111 -45q-46 -183 -151.5 -288.5t-260.5 -122.5v-160h-114zM186 780q0 -219 99 -371.5
t256 -175.5v1096q-156 -20 -255.5 -173.5t-99.5 -375.5z" />
    <glyph glyph-name="uni20BA" unicode="&#x20ba;" 
d="M158 967v125l186 61v287h121v-248l364 119v-125l-364 -121v-168l364 119v-125l-364 -121v-528q59 -13 98 -13q172 0 260.5 142t85.5 411h119q3 -324 -117.5 -498.5t-347.5 -174.5q-121 0 -219 28v596l-186 -61v125l186 61v170z" />
    <glyph glyph-name="uni20BF" unicode="&#x20bf;" 
d="M618 -47v170h-143v-170h-115v170h-188v1317h188v170h115v-170h143v170h115v-187q113 -31 175.5 -116t62.5 -209q0 -87 -34.5 -157t-100.5 -112q97 -43 148.5 -128t51.5 -203q0 -152 -81 -251t-222 -118v-176h-115zM618 1317h-325v-445h325q107 0 169.5 59.5t62.5 162.5
q0 104 -61.5 163.5t-170.5 59.5zM664 750h-371v-504h371q117 0 184 67.5t67 184.5t-67 184.5t-184 67.5z" />
    <glyph glyph-name="uni2113" unicode="&#x2113;" 
d="M684 109q-219 0 -281 366q-30 -21 -172 -110v131q72 43 160 102q-6 89 -6 182q0 320 73 497t206 177q95 0 146.5 -76.5t51.5 -216.5q0 -181 -91.5 -327.5t-260.5 -278.5q38 -332 174 -332q79 0 135 115l92 -80q-21 -32 -39.5 -54t-46.5 -46t-63.5 -36.5t-77.5 -12.5z
M502 780q0 -63 2 -92q124 110 182.5 225t58.5 248q0 178 -90 178q-68 0 -110.5 -154.5t-42.5 -404.5z" />
    <glyph glyph-name="uni2117" unicode="&#x2117;" 
d="M582 109q-162 0 -294 87.5t-207 241t-75 342.5q0 142 44 267.5t120 214.5t183 140.5t229 51.5q162 0 293 -87.5t205.5 -242t74.5 -344.5q0 -189 -74.5 -342.5t-205.5 -241t-293 -87.5zM582 219q196 0 329 161.5t133 399.5q0 239 -133 401t-329 162q-130 0 -236.5 -73.5
t-167.5 -203t-61 -286.5q0 -156 61 -285t168 -202.5t236 -73.5zM371 410v741h276q100 0 161.5 -60.5t61.5 -158.5t-61.5 -158.5t-161.5 -60.5h-162v-303h-114zM643 1040h-158v-217h158q53 0 83 29t30 80t-30 79.5t-83 28.5z" />
    <glyph glyph-name="trademark" unicode="&#x2122;" 
d="M225 1339h-153v101h413v-101h-159v-419h-101v419zM817 1118l109 322h131v-520h-103l7 301l-105 -301h-106l-105 305l6 -305h-100v520h129l111 -326l12 -43z" />
    <glyph glyph-name="uni2126" unicode="&#x2126;" 
d="M96 123v123h244q-107 105 -175.5 255.5t-68.5 327.5t63 320t174 224t249 81q136 0 246.5 -81t173.5 -224.5t63 -319.5q0 -177 -69.5 -327t-176.5 -256h246v-123h-430v106q59 42 112.5 100t99 132.5t72.5 168t27 191.5q0 217 -104.5 363.5t-259.5 146.5q-157 0 -262 -146
t-105 -364q0 -189 92 -345.5t221 -246.5v-106h-432z" />
    <glyph glyph-name="estimated" unicode="&#x212e;" 
d="M582 100q-159 0 -291.5 90t-208.5 246t-76 344q0 189 76 345.5t208 246.5t292 90q158 0 290 -90t207.5 -245.5t75.5 -342.5v-49h-883v-373q57 -76 139.5 -118.5t170.5 -42.5q229 0 356 213h123q-68 -143 -198 -228.5t-281 -85.5zM272 1200v-364h617v364q-60 78 -140 120
t-167 42q-88 0 -170 -43t-140 -119z" />
    <glyph glyph-name="uni2150" unicode="&#x2150;" 
d="M203 758v463q-47 -33 -137 -33h-27v104h27q75 0 110.5 35t38.5 113h94v-682h-106zM109 123l735 1317h129l-735 -1317h-129zM848 123v29q0 172 45 300.5t129 252.5h-289v100h420v-88q-44 -59 -73 -106t-61 -117.5t-48.5 -156t-16.5 -185.5v-29h-106z" />
    <glyph glyph-name="uni2151" unicode="&#x2151;" 
d="M315 758h-106v463q-47 -33 -135 -33h-29v104h29q75 0 109.5 34.5t37.5 113.5h94v-682zM121 123l729 1317h129l-735 -1317h-123zM909 817q107 0 169.5 -89.5t62.5 -242.5q0 -180 -61 -276t-175 -96q-85 0 -138.5 50t-68.5 144h107q18 -92 104 -92q99 0 121 168
q-47 -47 -117 -47q-92 0 -151.5 68t-59.5 174q0 104 58 171.5t149 67.5zM920 438q46 0 75 37.5t29 97.5q0 57 -34.5 98.5t-80.5 41.5q-44 0 -72 -37.5t-28 -97.5q0 -63 30.5 -101.5t80.5 -38.5z" />
    <glyph glyph-name="uni2152" unicode="&#x2152;" 
d="M264 758h-108v463q-47 -33 -133 -33h-29v104h29q73 0 108.5 34t44.5 114h88v-682zM623 805h90v-682h-109v463q-51 -31 -133 -31h-29v72l-278 -504h-129l735 1317h123l-432 -783h10q72 0 108.5 35t43.5 113zM948 817q104 0 169 -97.5t65 -254.5t-65 -254.5t-169 -97.5
t-169.5 97.5t-65.5 254.5t65.5 254.5t169.5 97.5zM948 215q57 0 92 69t35 181q0 109 -35.5 178.5t-91.5 69.5t-91.5 -69.5t-35.5 -178.5q0 -112 35 -181t92 -69z" />
    <glyph glyph-name="uni2153" unicode="&#x2153;" 
d="M215 758v463q-47 -33 -135 -33h-27v104h27q73 0 109 35t44 113h91v-682h-109zM121 123l737 1317h129l-735 -1317h-131zM938 113q-88 0 -147.5 49.5t-85.5 144.5l96 33q35 -125 137 -125q47 0 74.5 28.5t27.5 78.5q0 55 -30.5 80.5t-98.5 25.5h-67v100h51q55 0 85 26
t30 73q0 40 -23.5 63t-64.5 23q-42 0 -69.5 -28t-31.5 -77l-98 25q12 86 66.5 135t134.5 49q88 0 141 -50.5t53 -135.5t-65 -137q96 -49 96 -172q0 -89 -60 -149t-151 -60z" />
    <glyph glyph-name="uni2154" unicode="&#x2154;" 
d="M12 758v43q0 87 36.5 144t113.5 114l35 28q59 44 84.5 82.5t25.5 81.5q0 46 -23.5 71.5t-66.5 25.5q-46 0 -71.5 -32t-34.5 -102l-103 17q12 104 67 161.5t144 57.5q86 0 141.5 -54t55.5 -139q0 -70 -37 -129t-119 -122l-39 -27q-46 -34 -67.5 -60.5t-28.5 -60.5h305
v-100h-418zM174 123l729 1317h125l-729 -1317h-125zM944 113q-88 0 -147 50t-84 144l96 33q35 -125 135 -125q48 0 76.5 29t28.5 78q0 106 -131 106h-66v100h49q55 0 86 26.5t31 72.5q0 38 -24 62t-64 24q-43 0 -71.5 -29t-31.5 -76l-98 25q12 84 67.5 134t135.5 50
q86 0 139 -51.5t53 -134.5q0 -86 -67 -137q98 -48 98 -172q0 -89 -60 -149t-151 -60z" />
    <glyph glyph-name="uni2155" unicode="&#x2155;" 
d="M309 758h-106v463q-47 -33 -137 -33h-27v104h27q75 0 110.5 35t38.5 113h94v-682zM109 123l735 1317h129l-735 -1317h-129zM934 612q90 0 146.5 -69.5t56.5 -180.5q0 -110 -61 -179.5t-158 -69.5q-179 0 -220 213l103 24q10 -66 40.5 -100.5t76.5 -34.5q49 0 79.5 40.5
t30.5 106.5t-27 106t-71 40q-77 0 -92 -94l-111 12l31 379h356l-10 -100h-252l-12 -125q38 32 94 32z" />
    <glyph glyph-name="uni2156" unicode="&#x2156;" 
d="M162 1059l35 28q59 44 84.5 82.5t25.5 81.5q0 46 -23.5 71.5t-66.5 25.5q-46 0 -71.5 -32t-34.5 -102l-103 17q12 104 67 161.5t144 57.5q86 0 141.5 -54t55.5 -139q0 -70 -37 -129t-119 -122l-39 -27q-46 -34 -67.5 -60.5t-28.5 -60.5h305v-100h-418v43q0 87 36.5 144
t113.5 114zM156 123l735 1317h129l-735 -1317h-129zM954 612q89 0 145 -70t56 -180t-60 -179.5t-157 -69.5q-177 0 -221 213l104 24q21 -135 117 -135q50 0 80.5 40.5t30.5 106.5t-27.5 106t-71.5 40q-76 0 -94 -94l-111 12l33 379h357l-11 -100h-252l-12 -123q40 30 94 30z
" />
    <glyph glyph-name="uni2157" unicode="&#x2157;" 
d="M453 956q0 -89 -61 -150t-150 -61q-87 0 -147.5 50.5t-86.5 144.5l96 33q30 -123 138 -123q47 0 74.5 28.5t27.5 77.5q0 107 -131 107h-66v100h50q56 0 86 25.5t30 71.5q0 40 -24 64t-64 24q-43 0 -70 -28.5t-30 -78.5l-100 25q12 86 66 135t136 49q86 0 139.5 -51.5
t53.5 -134.5t-66 -136q46 -23 72.5 -68.5t26.5 -103.5zM154 123l729 1317h125l-729 -1317h-125zM948 612q89 0 145 -70t56 -180t-60 -179.5t-157 -69.5q-180 0 -221 213l104 24q9 -66 39.5 -100.5t77.5 -34.5q50 0 79 40t29 107q0 66 -27 106t-71 40q-78 0 -90 -94l-113 12
l31 379h358l-10 -100h-254l-12 -125q38 32 96 32z" />
    <glyph glyph-name="uni2158" unicode="&#x2158;" 
d="M381 758h-107v180h-284v84l254 418h137v-400h102v-102h-102v-180zM162 123l735 1317h123l-729 -1317h-129zM125 1053l-8 -13h157v265l-149 -256v4zM948 612q89 0 145 -70t56 -180t-60 -179.5t-157 -69.5q-180 0 -221 213l104 24q9 -66 39.5 -100.5t77.5 -34.5q50 0 79 40
t29 107q0 66 -27 106t-71 40q-78 0 -90 -94l-113 12l31 379h358l-10 -100h-254l-12 -125q38 32 96 32z" />
    <glyph glyph-name="uni2159" unicode="&#x2159;" 
d="M315 758h-106v463q-47 -33 -135 -33h-29v104h29q75 0 109.5 34.5t37.5 113.5h94v-682zM121 123l729 1317h129l-735 -1317h-123zM920 592q91 0 149.5 -68t58.5 -172t-57.5 -171.5t-148.5 -67.5q-107 0 -170.5 89.5t-63.5 241.5q0 171 65 272t177 101q129 0 196 -137
l-92 -51q-22 46 -46.5 65t-61.5 19q-44 0 -77.5 -45t-45.5 -123q47 47 117 47zM922 215q44 0 72 38t28 99q0 63 -29.5 100t-79.5 37q-46 0 -76 -37.5t-30 -95.5q0 -57 34.5 -99t80.5 -42z" />
    <glyph glyph-name="uni215A" unicode="&#x215a;" 
d="M449 997q0 -110 -61.5 -181t-156.5 -71q-177 0 -221 216l105 24q9 -66 39 -100.5t77 -34.5q50 0 79.5 40t29.5 107q0 64 -27.5 105t-70.5 41q-78 0 -90 -94l-113 6l33 385h356l-10 -103h-254l-12 -125q39 33 96 33q90 0 145.5 -68.5t55.5 -179.5zM141 123l736 1317h129
l-736 -1317h-129zM932 592q91 0 150 -68t59 -172t-58 -171.5t-147 -67.5q-107 0 -170.5 89.5t-63.5 241.5q0 171 65 272t175 101q124 0 199 -137l-94 -51q-15 30 -26 45t-32 27t-51 12q-46 0 -77.5 -44t-43.5 -122q48 45 115 45zM936 215q44 0 71 37t27 100t-29 100t-79 37
q-46 0 -75.5 -37.5t-29.5 -95.5t34 -99.5t81 -41.5z" />
    <glyph glyph-name="oneeighth" unicode="&#x215b;" 
d="M203 758v463q-47 -33 -137 -33h-27v104h27q75 0 110.5 35t38.5 113h94v-682h-106zM109 123l735 1317h129l-735 -1317h-129zM909 113q-95 0 -158 58.5t-63 147.5q0 110 90 168q-69 54 -69 144q0 80 57 133t143 53q85 0 142 -53.5t57 -132.5q0 -92 -68 -144q88 -59 88 -168
q0 -88 -63.5 -147t-155.5 -59zM909 537q40 0 66 25t26 63t-26 63t-66 25q-41 0 -66.5 -24t-25.5 -64t25.5 -64t66.5 -24zM909 215q49 0 81 31.5t32 79.5q0 47 -32 78.5t-81 31.5t-81.5 -31.5t-32.5 -78.5t32.5 -79t81.5 -32z" />
    <glyph glyph-name="threeeighths" unicode="&#x215c;" 
d="M250 745q-88 0 -147.5 50.5t-84.5 144.5l99 35q12 -61 46 -93t87 -32q46 0 75 29.5t29 76.5q0 107 -131 107h-67v100h51q55 0 85 25.5t30 71.5q0 40 -24.5 64t-64.5 24q-41 0 -69 -30t-31 -77l-98 25q10 85 64.5 134.5t136.5 49.5q86 0 139 -51.5t53 -134.5
q0 -88 -66 -136q99 -52 99 -172q0 -89 -61 -150t-150 -61zM154 123l729 1317h125l-729 -1317h-125zM922 113q-94 0 -157 58.5t-63 147.5q0 113 89 168q-68 55 -68 144q0 79 57 132.5t142 53.5q86 0 143 -53t57 -133q0 -90 -69 -144q88 -59 88 -168q0 -89 -62.5 -147.5
t-156.5 -58.5zM922 537q41 0 67.5 25t26.5 63t-26.5 63t-67.5 25q-40 0 -66.5 -25t-26.5 -63t26.5 -63t66.5 -25zM922 215q51 0 81.5 30.5t30.5 80.5t-30.5 80t-81.5 30q-49 0 -81 -31.5t-32 -78.5q0 -48 32 -79.5t81 -31.5z" />
    <glyph glyph-name="fiveeighths" unicode="&#x215d;" 
d="M449 997q0 -110 -61.5 -181t-156.5 -71q-177 0 -221 216l105 24q9 -66 39 -100.5t77 -34.5q50 0 79.5 40t29.5 107q0 64 -27.5 105t-70.5 41q-78 0 -90 -94l-113 6l33 385h356l-10 -103h-254l-12 -125q39 33 96 33q90 0 145.5 -68.5t55.5 -179.5zM141 123l729 1317h129
l-735 -1317h-123zM1053 487q88 -59 88 -168q0 -89 -62.5 -147.5t-156.5 -58.5t-157 58.5t-63 147.5q0 113 89 168q-68 55 -68 144q0 79 57 132.5t142 53.5q86 0 143 -53t57 -133q0 -90 -69 -144zM922 713q-40 0 -66.5 -25t-26.5 -63t26.5 -63t66.5 -25q41 0 67.5 25t26.5 63
t-26.5 63t-67.5 25zM922 215q51 0 81.5 30.5t30.5 80.5t-30.5 80t-81.5 30q-49 0 -81 -31.5t-32 -78.5q0 -48 32 -79.5t81 -31.5z" />
    <glyph glyph-name="seveneighths" unicode="&#x215e;" 
d="M160 758v26q0 171 45.5 299.5t130.5 253.5h-291v103h420v-88q-44 -60 -72.5 -107.5t-60.5 -118.5t-48 -156.5t-16 -185.5v-26h-108zM102 123l736 1317h129l-736 -1317h-129zM915 113q-95 0 -158 58.5t-63 147.5q0 113 88 170q-65 53 -65 142q0 80 56.5 133t141.5 53
q86 0 143.5 -53t57.5 -133q0 -90 -69 -144q43 -26 66.5 -70.5t23.5 -97.5q0 -89 -63.5 -147.5t-158.5 -58.5zM915 537q41 0 67 24t26 64t-26 64t-67 24t-66.5 -24t-25.5 -64t25.5 -64t66.5 -24zM915 215q49 0 81 31.5t32 79.5q0 47 -32 78.5t-81 31.5t-80.5 -31t-31.5 -79
t31.5 -79.5t80.5 -31.5z" />
    <glyph glyph-name="uni215F" unicode="&#x215f;" 
d="M209 758v463q-47 -33 -135 -33h-29v104h29q75 0 109.5 34.5t37.5 113.5h94v-682h-106zM121 123l729 1317h129l-735 -1317h-123z" />
    <glyph glyph-name="uni2189" unicode="&#x2189;" 
d="M250 745q-103 0 -168.5 99t-65.5 254t65.5 253.5t168.5 98.5q105 0 170 -97.5t65 -254.5t-65 -255t-170 -98zM164 123l735 1317h123l-729 -1317h-129zM250 850q57 0 92 68t35 180t-35 181t-92 69t-92 -69t-35 -181q0 -109 35.5 -178.5t91.5 -69.5zM938 113
q-88 0 -147.5 49.5t-85.5 144.5l96 33q35 -125 137 -125q47 0 74.5 28.5t27.5 78.5q0 55 -30.5 80.5t-98.5 25.5h-67v100h51q55 0 85 26t30 73q0 40 -23.5 63t-64.5 23q-42 0 -69.5 -28t-31.5 -77l-98 25q12 86 66.5 135t134.5 49q88 0 141 -50.5t53 -135.5t-65 -137
q96 -49 96 -172q0 -89 -60 -149t-151 -60z" />
    <glyph glyph-name="arrowleft" unicode="&#x2190;" 
d="M557 207l-385 444v76l385 444l78 -88l-299 -338h653v-114h-653l299 -336z" />
    <glyph glyph-name="arrowup" unicode="&#x2191;" 
d="M223 639l-76 80l400 426h67l402 -426l-78 -80l-299 326v-732h-115v732z" />
    <glyph glyph-name="arrowright" unicode="&#x2192;" 
d="M172 631v114h653l-299 338l78 88l385 -444v-76l-385 -444l-78 88l299 336h-653z" />
    <glyph glyph-name="arrowdown" unicode="&#x2193;" 
d="M547 233l-400 426l76 80l301 -327v733h115v-733l299 327l78 -80l-402 -426h-67z" />
    <glyph glyph-name="uni2196" unicode="&#x2196;" 
d="M242 395v613l53 55h551v-115l-428 2l512 -561l-78 -84l-508 561l4 -471h-106z" />
    <glyph glyph-name="uni2197" unicode="&#x2197;" 
d="M307 303l-74 84l512 563l-430 -2v115h551l54 -55v-613h-107l2 475z" />
    <glyph glyph-name="uni2198" unicode="&#x2198;" 
d="M295 315l-53 56v612h106l-4 -477l510 569l74 -84l-514 -565l432 4v-115h-551z" />
    <glyph glyph-name="uni2199" unicode="&#x2199;" 
d="M315 315v115l428 -4l-512 563l78 88l506 -567l-2 473h107v-612l-54 -56h-551z" />
    <glyph glyph-name="partialdiff" unicode="&#x2202;" 
d="M598 1454q187 0 289 -152t102 -430q0 -372 -117.5 -567.5t-341.5 -195.5q-157 0 -257.5 113t-100.5 290q0 195 116.5 325t289.5 130q196 0 290 -160v65q0 218 -72 338.5t-202 120.5q-179 0 -246 -239l-106 49q44 154 134.5 233.5t221.5 79.5zM541 229q123 0 201.5 91.5
t78.5 236.5q0 134 -66.5 211.5t-181.5 77.5q-121 0 -200.5 -92.5t-79.5 -233.5q0 -134 67 -212.5t181 -78.5z" />
    <glyph glyph-name="uni2206" unicode="&#x2206;" 
d="M510 1440h141l381 -1219v-98h-903v98zM582 1251l-312 -1005h623z" />
    <glyph glyph-name="product" unicode="&#x220f;" 
d="M801 123v1194h-441v-1194h-122v1194h-185v123h1055v-123h-184v-1194h-123z" />
    <glyph glyph-name="summation" unicode="&#x2211;" 
d="M166 123v102l506 555l-506 557v103h829v-123h-645l484 -533l-492 -538h653v-123h-829z" />
    <glyph glyph-name="minus" unicode="&#x2212;" 
d="M145 707v118h871v-118h-871z" />
    <glyph glyph-name="uni2215" unicode="&#x2215;" 
d="M-299 123l735 1317h123l-729 -1317h-129z" />
    <glyph glyph-name="uni2219" unicode="&#x2219;" 
d="M582 492q-46 0 -75.5 31.5t-29.5 80.5t29.5 81t75.5 32q44 0 73 -32t29 -81t-29 -80.5t-73 -31.5z" />
    <glyph glyph-name="radical" unicode="&#x221a;" 
d="M446 315l433 1397h323v-123h-233l-459 -1466h-135l-279 971h129z" />
    <glyph glyph-name="infinity" unicode="&#x221e;" 
d="M340 510q-106 0 -173 71t-67 185t67 185t173 71q137 0 244 -150q54 70 108 110t129 40q107 0 174.5 -71t67.5 -185q0 -112 -68 -184t-174 -72q-136 0 -243 149q-51 -69 -106.5 -109t-131.5 -40zM340 629q89 0 176 137q-88 139 -176 139q-59 0 -93 -37.5t-34 -101.5
q0 -63 34.5 -100t92.5 -37zM821 629q58 0 92.5 37t34.5 100q0 64 -34 101.5t-93 37.5q-88 0 -176 -139q87 -137 176 -137z" />
    <glyph glyph-name="integral" unicode="&#x222b;" 
d="M319 -201v121h46q178 0 178 201q0 77 -23 612l-12 299q-10 260 -10 314q0 155 77 238t222 83h45v-121h-45q-179 0 -179 -200q0 -78 23 -613l12 -299q11 -286 11 -313q0 -157 -76.5 -239.5t-222.5 -82.5h-46z" />
    <glyph glyph-name="approxequal" unicode="&#x2248;" 
d="M764 831q-34 0 -76 12.5t-64.5 23t-70.5 34.5q-101 55 -156 55q-46 0 -79 -27.5t-74 -99.5l-86 76q52 82 103.5 124t135.5 42q34 0 76 -12.5t64.5 -23t70.5 -34.5q101 -55 156 -55q52 0 83.5 29t70.5 96l86 -76q-51 -81 -103.5 -122.5t-136.5 -41.5zM764 463
q-34 0 -75 12t-65.5 23t-70.5 34q-103 56 -156 56q-46 0 -79 -27.5t-74 -99.5l-86 76q52 82 103.5 123.5t135.5 41.5q34 0 75 -12t65.5 -23t70.5 -34q101 -55 156 -55q53 0 84 28.5t70 95.5l86 -75q-51 -81 -103.5 -122.5t-136.5 -41.5z" />
    <glyph glyph-name="notequal" unicode="&#x2260;" 
d="M145 891v119h533l170 241l94 -67l-123 -174h197v-119h-277l-176 -250h453v-119h-533l-170 -241l-94 69l121 172h-195v119h277l176 250h-453z" />
    <glyph glyph-name="equivalence" unicode="&#x2261;" 
d="M145 1047v118h871v-118h-871zM145 707v118h871v-118h-871zM145 369v118h871v-118h-871z" />
    <glyph glyph-name="lessequal" unicode="&#x2264;" 
d="M1016 399l-871 375v103l871 374v-127l-713 -297l713 -297v-131zM145 123v119h871v-119h-871z" />
    <glyph glyph-name="greaterequal" unicode="&#x2265;" 
d="M145 399v127l713 297l-713 297v131l871 -374v-103zM145 123v119h871v-119h-871z" />
    <glyph glyph-name="triagup" unicode="&#x25b2;" 
d="M20 123l562 1075l559 -1075h-1121z" />
    <glyph glyph-name="triagrt" unicode="&#x25ba;" 
d="M166 106v1246l967 -627z" />
    <glyph glyph-name="triagdn" unicode="&#x25bc;" 
d="M582 98l-562 1076h1121z" />
    <glyph glyph-name="triaglf" unicode="&#x25c4;" 
d="M995 106l-966 619l966 627v-1246z" />
    <glyph glyph-name="lozenge" unicode="&#x25ca;" 
d="M514 123l-422 657l422 660h133l422 -660l-422 -657h-133zM238 784l344 -540l344 534l-348 539z" />
    <glyph glyph-name="fi" unicode="&#xfb01;" 
d="M819 123v825h-426v-825h-119v825h-188v115h188v98q0 133 80 213t213 80q131 0 223.5 -63t129.5 -177l-111 -30q-23 74 -86.5 114.5t-155.5 40.5q-174 0 -174 -186v-90h543v-940h-117z" />
    <glyph glyph-name="fl" unicode="&#xfb02;" 
d="M86 948v115h188v67q0 145 77 227.5t212 82.5h373v-1317h-117v1202h-248q-91 0 -134.5 -49t-43.5 -152v-61h271v-115h-271v-825h-119v825h-188z" />
    <glyph glyph-name="uniFEFF" unicode="&#xfeff;" 
 />
    <glyph glyph-name="Ldot.latn_CAT" 
d="M211 123v1317h121v-1194h700v-123h-821zM623 672q-44 0 -72.5 30.5t-28.5 77.5q0 49 28.5 80t72.5 31t72 -31t28 -80q0 -47 -28 -77.5t-72 -30.5z" />
    <glyph glyph-name="ldot.latn_CAT" 
d="M252 123v115h301v1087h-287v115h404v-1202h305v-115h-723zM848 672q-43 0 -71.5 31t-28.5 77q0 47 28.5 79t71.5 32q44 0 72 -31t28 -80q0 -47 -28 -77.5t-72 -30.5z" />
    <glyph glyph-name="i.latn_TRK" 
d="M606 1237q-43 0 -71.5 31.5t-28.5 77.5t28.5 77t71.5 31q44 0 73.5 -30.5t29.5 -77.5t-29.5 -78t-73.5 -31zM270 123v115h297v710h-264v115h381v-825h291v-115h-705z" />
    <glyph glyph-name="gbreve.ss01" 
d="M543 1163q-110 0 -173 79.5t-57 211.5h107q-5 -83 28.5 -131.5t94.5 -48.5t94.5 48.5t28.5 131.5h106q6 -132 -56.5 -211.5t-172.5 -79.5zM567 432q-106 0 -196 72q-64 -40 -64 -107q0 -96 117 -96h360q125 0 191.5 -60.5t66.5 -174.5q0 -151 -115 -242.5t-304 -91.5
q-182 0 -293 78.5t-111 207.5q0 111 82 187q-51 25 -79.5 71t-28.5 103q0 117 120 192q-55 83 -55 185q0 134 90 227.5t219 93.5q77 0 142 -35q71 117 178 117q52 0 96.5 -21.5t69.5 -58.5l-70 -92q-37 57 -100 57q-31 0 -51 -14.5t-44 -48.5q89 -92 89 -225
q0 -135 -90.5 -229.5t-219.5 -94.5zM567 547q83 0 138 59t55 150q0 89 -55 148t-138 59t-136.5 -58t-53.5 -149q0 -92 52.5 -150.5t137.5 -58.5zM770 182h-356q-78 -61 -78 -149t76 -137.5t211 -49.5q136 0 219.5 57.5t83.5 151.5q0 127 -156 127z" />
    <glyph glyph-name="gcaron.ss01" 
d="M479 1163l-286 299h153l199 -211l198 211h150l-285 -299h-129zM567 432q-106 0 -196 72q-64 -40 -64 -107q0 -96 117 -96h360q125 0 191.5 -60.5t66.5 -174.5q0 -151 -115 -242.5t-304 -91.5q-182 0 -293 78.5t-111 207.5q0 111 82 187q-51 25 -79.5 71t-28.5 103
q0 117 120 192q-55 83 -55 185q0 134 90 227.5t219 93.5q77 0 142 -35q71 117 178 117q52 0 96.5 -21.5t69.5 -58.5l-70 -92q-37 57 -100 57q-31 0 -51 -14.5t-44 -48.5q89 -92 89 -225q0 -135 -90.5 -229.5t-219.5 -94.5zM567 547q83 0 138 59t55 150q0 89 -55 148t-138 59
t-136.5 -58t-53.5 -149q0 -92 52.5 -150.5t137.5 -58.5zM770 182h-356q-78 -61 -78 -149t76 -137.5t211 -49.5q136 0 219.5 57.5t83.5 151.5q0 127 -156 127z" />
    <glyph glyph-name="gcircumflex.ss01" 
d="M193 1163l286 299h129l285 -299h-154l-198 207l-199 -207h-149zM567 432q-106 0 -196 72q-64 -40 -64 -107q0 -96 117 -96h360q125 0 191.5 -60.5t66.5 -174.5q0 -151 -115 -242.5t-304 -91.5q-182 0 -293 78.5t-111 207.5q0 111 82 187q-51 25 -79.5 71t-28.5 103
q0 117 120 192q-55 83 -55 185q0 134 90 227.5t219 93.5q77 0 142 -35q71 117 178 117q52 0 96.5 -21.5t69.5 -58.5l-70 -92q-37 57 -100 57q-31 0 -51 -14.5t-44 -48.5q89 -92 89 -225q0 -135 -90.5 -229.5t-219.5 -94.5zM567 547q83 0 138 59t55 150q0 89 -55 148t-138 59
t-136.5 -58t-53.5 -149q0 -92 52.5 -150.5t137.5 -58.5zM770 182h-356q-78 -61 -78 -149t76 -137.5t211 -49.5q136 0 219.5 57.5t83.5 151.5q0 127 -156 127z" />
    <glyph glyph-name="uni0123.ss01" 
d="M553 1163q-52 0 -83.5 46.5t-31.5 121.5q0 74 32 151.5t89 141.5l86 -65q-76 -82 -88 -195q40 -6 64 -33t24 -67q0 -43 -26 -72t-66 -29zM567 432q-106 0 -196 72q-64 -40 -64 -107q0 -96 117 -96h360q125 0 191.5 -60.5t66.5 -174.5q0 -151 -115 -242.5t-304 -91.5
q-182 0 -293 78.5t-111 207.5q0 111 82 187q-51 25 -79.5 71t-28.5 103q0 117 120 192q-55 83 -55 185q0 134 90 227.5t219 93.5q77 0 142 -35q71 117 178 117q52 0 96.5 -21.5t69.5 -58.5l-70 -92q-37 57 -100 57q-31 0 -51 -14.5t-44 -48.5q89 -92 89 -225
q0 -135 -90.5 -229.5t-219.5 -94.5zM567 547q83 0 138 59t55 150q0 89 -55 148t-138 59t-136.5 -58t-53.5 -149q0 -92 52.5 -150.5t137.5 -58.5zM770 182h-356q-78 -61 -78 -149t76 -137.5t211 -49.5q136 0 219.5 57.5t83.5 151.5q0 127 -156 127z" />
    <glyph glyph-name="gdotaccent.ss01" 
d="M541 1237q-44 0 -72.5 31t-28.5 78t28.5 77.5t72.5 30.5t72 -30.5t28 -77.5t-28 -78t-72 -31zM567 432q-106 0 -196 72q-64 -40 -64 -107q0 -96 117 -96h360q125 0 191.5 -60.5t66.5 -174.5q0 -151 -115 -242.5t-304 -91.5q-182 0 -293 78.5t-111 207.5q0 111 82 187
q-51 25 -79.5 71t-28.5 103q0 117 120 192q-55 83 -55 185q0 134 90 227.5t219 93.5q77 0 142 -35q71 117 178 117q52 0 96.5 -21.5t69.5 -58.5l-70 -92q-37 57 -100 57q-31 0 -51 -14.5t-44 -48.5q89 -92 89 -225q0 -135 -90.5 -229.5t-219.5 -94.5zM567 547q83 0 138 59
t55 150q0 89 -55 148t-138 59t-136.5 -58t-53.5 -149q0 -92 52.5 -150.5t137.5 -58.5zM770 182h-356q-78 -61 -78 -149t76 -137.5t211 -49.5q136 0 219.5 57.5t83.5 151.5q0 127 -156 127z" />
    <glyph glyph-name="uni1E21.ss01" 
d="M301 1288v115h485v-115h-485zM567 432q-106 0 -196 72q-64 -40 -64 -107q0 -96 117 -96h360q125 0 191.5 -60.5t66.5 -174.5q0 -151 -115 -242.5t-304 -91.5q-182 0 -293 78.5t-111 207.5q0 111 82 187q-51 25 -79.5 71t-28.5 103q0 117 120 192q-55 83 -55 185
q0 134 90 227.5t219 93.5q77 0 142 -35q71 117 178 117q52 0 96.5 -21.5t69.5 -58.5l-70 -92q-37 57 -100 57q-31 0 -51 -14.5t-44 -48.5q89 -92 89 -225q0 -135 -90.5 -229.5t-219.5 -94.5zM567 547q83 0 138 59t55 150q0 89 -55 148t-138 59t-136.5 -58t-53.5 -149
q0 -92 52.5 -150.5t137.5 -58.5zM770 182h-356q-78 -61 -78 -149t76 -137.5t211 -49.5q136 0 219.5 57.5t83.5 151.5q0 127 -156 127z" />
    <glyph glyph-name="g.ss02" 
d="M567 432q-106 0 -196 72q-64 -40 -64 -107q0 -96 117 -96h360q125 0 191.5 -60.5t66.5 -174.5q0 -151 -115 -242.5t-304 -91.5q-182 0 -293 78.5t-111 207.5q0 111 82 187q-51 25 -79.5 71t-28.5 103q0 117 120 192q-55 83 -55 185q0 134 90 227.5t219 93.5q77 0 142 -35
q71 117 178 117q52 0 96.5 -21.5t69.5 -58.5l-70 -92q-37 57 -100 57q-31 0 -51 -14.5t-44 -48.5q89 -92 89 -225q0 -135 -90.5 -229.5t-219.5 -94.5zM567 547q83 0 138 59t55 150q0 89 -55 148t-138 59t-136.5 -58t-53.5 -149q0 -92 52.5 -150.5t137.5 -58.5zM770 182h-356
q-78 -61 -78 -149t76 -137.5t211 -49.5q136 0 219.5 57.5t83.5 151.5q0 127 -156 127z" />
    <glyph glyph-name="uni0394.001" 
d="M510 1440h141l381 -1219v-98h-903v98zM582 1251l-312 -1005h623z" />
    <glyph glyph-name="uni03A9.001" 
d="M96 123v123h244q-107 105 -175.5 255.5t-68.5 327.5t63 320t174 224t249 81q136 0 246.5 -81t173.5 -224.5t63 -319.5q0 -177 -69.5 -327t-176.5 -256h246v-123h-430v106q59 42 112.5 100t99 132.5t72.5 168t27 191.5q0 217 -104.5 363.5t-259.5 146.5q-157 0 -262 -146
t-105 -364q0 -189 92 -345.5t221 -246.5v-106h-432z" />
    <glyph glyph-name="zero.zero" 
d="M582 109q-120 0 -213 84.5t-145 237.5t-52 349q0 197 51.5 350.5t144.5 238.5t214 85q181 0 294 -188t113 -486q0 -297 -113 -484t-294 -187zM293 780q0 -171 39 -299l440 723q-74 127 -190 127q-128 0 -208.5 -153.5t-80.5 -397.5zM582 229q126 0 206 154t80 397
q0 169 -39 297l-442 -719q77 -129 195 -129z" />
    <glyph glyph-name="zero.dnom" 
d="M582 113q-104 0 -170 98t-66 254t66 254t170 98t168.5 -97.5t64.5 -254.5t-64.5 -254.5t-168.5 -97.5zM582 215q57 0 92 69t35 181t-35 180t-92 68t-92 -68t-35 -180t35 -181t92 -69z" />
    <glyph glyph-name="one.dnom" 
d="M608 123v463q-51 -31 -135 -31h-27v102h27q75 0 110 34.5t38 113.5h94v-682h-107z" />
    <glyph glyph-name="two.dnom" 
d="M371 123v45q0 86 36 142.5t111 115.5l37 27q60 44 86.5 82t26.5 81q0 46 -24.5 71.5t-68.5 25.5q-92 0 -106 -133l-102 18q12 104 67 161.5t144 57.5q88 0 142 -54t54 -140q0 -69 -37 -128t-119 -122l-38 -29q-47 -34 -68.5 -60t-30.5 -59h307v-102h-417z" />
    <glyph glyph-name="three.dnom" 
d="M590 113q-88 0 -148 49.5t-86 144.5l97 33q35 -125 137 -125q47 0 74.5 28.5t27.5 78.5q0 55 -30.5 80.5t-98.5 25.5h-67v100h49q57 0 87 26t30 73q0 40 -24 63t-65 23q-42 0 -69 -28t-31 -77l-100 25q12 84 67 134t135 50q88 0 140.5 -50.5t52.5 -135.5q0 -84 -66 -137
q47 -23 73 -68t26 -104q0 -89 -60 -149t-151 -60z" />
    <glyph glyph-name="four.dnom" 
d="M727 805v-399h98v-103h-98v-180h-109v180h-282v84l252 418h139zM475 430l-16 -24h159v266z" />
    <glyph glyph-name="five.dnom" 
d="M596 612q89 0 145 -70t56 -180t-60 -179.5t-157 -69.5q-178 0 -222 213l105 24q9 -66 39.5 -100.5t77.5 -34.5q49 0 79.5 40.5t30.5 106.5q0 65 -28 105.5t-72 40.5q-78 0 -90 -94l-113 12l33 379h356l-10 -100h-254l-12 -125q43 32 96 32z" />
    <glyph glyph-name="six.dnom" 
d="M590 592q92 0 151.5 -68t59.5 -172t-58 -171.5t-149 -67.5q-107 0 -171.5 90t-64.5 241q0 169 66 271t176 102q124 0 199 -137l-94 -51q-22 44 -47 64t-60 20q-46 0 -78.5 -44t-44.5 -122q48 45 115 45zM594 215q44 0 71 37t27 100t-29 100t-79 37q-46 0 -76.5 -37.5
t-30.5 -95.5t34.5 -99.5t82.5 -41.5z" />
    <glyph glyph-name="seven.dnom" 
d="M487 123v29q0 172 44.5 301t127.5 252h-288v100h420v-88q-44 -58 -73 -105.5t-60.5 -118t-47.5 -156t-16 -185.5v-29h-107z" />
    <glyph glyph-name="eight.dnom" 
d="M582 113q-95 0 -159.5 59t-64.5 147q0 109 91 168q-68 55 -68 144q0 80 57.5 133t143.5 53q85 0 141.5 -53t56.5 -133q0 -86 -67 -144q41 -26 64.5 -70.5t23.5 -97.5q0 -88 -63.5 -147t-155.5 -59zM582 537q40 0 65 25t25 63t-25 63t-65 25q-41 0 -67 -24t-26 -64t26 -64
t67 -24zM582 215q47 0 78.5 32t31.5 79t-31.5 78.5t-78.5 31.5q-49 0 -82 -31.5t-33 -78.5t33 -79t82 -32z" />
    <glyph glyph-name="nine.dnom" 
d="M567 817q107 0 170.5 -90t63.5 -242q0 -180 -61.5 -276t-176.5 -96q-83 0 -137.5 50t-71.5 144h109q19 -92 104 -92q100 0 121 166q-48 -45 -117 -45q-94 0 -153.5 68t-59.5 174q0 104 59 171.5t150 67.5zM578 438q46 0 76 38.5t30 96.5q0 57 -35 98.5t-82 41.5
q-46 0 -73 -36t-27 -99t30.5 -101.5t80.5 -38.5z" />
    <glyph glyph-name="zero.numr" 
d="M580 745q-104 0 -170 98t-66 255q0 156 66 254t170 98t168.5 -97.5t64.5 -254.5t-64.5 -255t-168.5 -98zM580 850q57 0 92 68t35 180t-35 181t-92 69t-92 -69t-35 -181q0 -109 35.5 -178.5t91.5 -69.5z" />
    <glyph glyph-name="one.numr" 
d="M567 758v463q-47 -33 -135 -33h-29v104h29q75 0 110 35t38 113h96v-682h-109z" />
    <glyph glyph-name="two.numr" 
d="M375 758v43q0 88 35.5 145t111.5 113l37 28q59 44 85 82.5t26 81.5q0 46 -23.5 71.5t-66.5 25.5q-46 0 -72 -32t-35 -102l-102 17q12 104 67 161.5t144 57.5q86 0 140 -54t54 -139q0 -70 -36.5 -129t-118.5 -122l-37 -27q-46 -34 -68 -60.5t-31 -60.5h308v-100h-418z" />
    <glyph glyph-name="three.numr" 
d="M582 745q-175 0 -232 195l99 35q12 -61 46 -93t87 -32q48 0 76 28.5t28 77.5q0 107 -129 107h-70v100h54q112 0 112 97q0 41 -23 64.5t-63 23.5q-41 0 -69 -30t-31 -77l-100 25q12 86 66 135t136 49q86 0 139.5 -51.5t53.5 -134.5q0 -88 -66 -136q97 -52 97 -172
q0 -91 -60 -151t-151 -60z" />
    <glyph glyph-name="four.numr" 
d="M727 1440v-400h98v-102h-98v-180h-109v180h-282v84l252 418h139zM475 1063l-16 -23h159v265z" />
    <glyph glyph-name="five.numr" 
d="M592 1245q91 0 146 -68t55 -180q0 -110 -61.5 -181t-156.5 -71q-177 0 -221 216l105 24q9 -66 39 -100.5t77 -34.5q50 0 80.5 40.5t30.5 106.5q0 64 -27.5 105t-70.5 41q-38 0 -63 -25t-29 -69l-111 6l31 385h356l-10 -103h-252l-12 -120q42 28 94 28z" />
    <glyph glyph-name="six.numr" 
d="M590 1225q92 0 151.5 -68t59.5 -172t-58 -172t-149 -68q-107 0 -171.5 90.5t-64.5 241.5q0 169 66 271t176 102q124 0 199 -137l-94 -49q-22 44 -47 64t-60 20q-45 0 -78 -44.5t-45 -121.5q49 43 115 43zM594 850q44 0 71 37t27 98q0 63 -29.5 101t-78.5 38
q-46 0 -76.5 -38.5t-30.5 -96.5q0 -57 35 -98t82 -41z" />
    <glyph glyph-name="seven.numr" 
d="M487 758v26q0 172 44.5 301t127.5 252h-288v103h420v-88q-44 -60 -72.5 -107.5t-60.5 -118.5t-48 -156.5t-16 -185.5v-26h-107z" />
    <glyph glyph-name="eight.numr" 
d="M582 745q-95 0 -159.5 60t-64.5 149q0 53 24 97.5t67 70.5q-68 55 -68 142q0 80 57.5 133t143.5 53q85 0 141.5 -53t56.5 -133q0 -87 -67 -142q41 -28 64.5 -72.5t23.5 -95.5q0 -89 -62.5 -149t-156.5 -60zM582 1169q40 0 65 25.5t25 65.5q0 38 -25 63t-65 25
q-41 0 -67 -24t-26 -64t26 -65.5t67 -25.5zM582 850q47 0 78.5 32t31.5 79t-31.5 78.5t-78.5 31.5q-49 0 -82 -31.5t-33 -78.5t33 -79t82 -32z" />
    <glyph glyph-name="nine.numr" 
d="M567 1450q107 0 170.5 -90t63.5 -242q0 -180 -61.5 -276.5t-176.5 -96.5q-83 0 -137.5 51.5t-71.5 145.5h109q19 -92 104 -92q100 0 121 166q-48 -45 -117 -45q-94 0 -153.5 67.5t-59.5 171.5t59 172t150 68zM578 1073q46 0 76 37.5t30 95.5t-35 100t-82 42
q-44 0 -72 -38.5t-28 -99.5t30.5 -99t80.5 -38z" />
    <glyph glyph-name="asterisk.ss04" 
d="M700 635v-2l-73 61l8 -94v-477h-109v477l9 94l-74 -61v2l-346 -221l-49 102l344 223l2 2l84 39l-80 41h-2l-348 226l49 102l346 -221v2l74 -62l-9 95v477h109v-477l-8 -95l73 62v-2l347 221l49 -102l-348 -226h-3l-77 -41l77 -39h3l348 -225l-49 -102z" />
    <glyph glyph-name="parenleft.case" 
d="M766 2h-123q-135 209 -196.5 397.5t-61.5 388.5t62 389.5t196 397.5h123q-134 -214 -195 -401.5t-61 -385.5t61 -385t195 -401z" />
    <glyph glyph-name="parenright.case" 
d="M518 2h-123q134 214 195 401t61 385t-61 385.5t-195 401.5h123q134 -208 196 -397.5t62 -389.5t-61.5 -388.5t-196.5 -397.5z" />
    <glyph glyph-name="braceleft.case" 
d="M809 2h-80q-117 0 -178.5 63.5t-61.5 184.5v317q0 154 -131 172v99q131 18 131 172v317q0 121 61.5 184.5t178.5 63.5h80v-115h-72q-66 0 -96.5 -34t-30.5 -107v-309q0 -156 -96 -222q96 -66 96 -221v-309q0 -73 30.5 -107t96.5 -34h72v-115z" />
    <glyph glyph-name="braceright.case" 
d="M352 2v115h72q66 0 96.5 34t30.5 107v309q0 155 96 221q-96 66 -96 222v309q0 73 -30.5 107t-96.5 34h-72v115h80q117 0 178.5 -63.5t61.5 -184.5v-317q0 -150 133 -172v-99q-133 -22 -133 -172v-317q0 -121 -61.5 -184.5t-178.5 -63.5h-80z" />
    <glyph glyph-name="bracketleft.case" 
d="M391 2v1573h359v-115h-240v-1343h240v-115h-359z" />
    <glyph glyph-name="bracketright.case" 
d="M412 1460v115h358v-1573h-358v115h239v1343h-239z" />
    <glyph glyph-name="hyphen.case" 
d="M238 727v123h686v-123h-686z" />
    <glyph glyph-name="uni00AD.case" 
d="M238 727v123h686v-123h-686z" />
    <glyph glyph-name="endash.case" 
d="M133 727v123h895v-123h-895z" />
    <glyph glyph-name="emdash.case" 
d="M-25 602v123h1211v-123h-1211z" />
    <glyph glyph-name="guillemotleft.case" 
d="M518 367l-297 421l297 422l84 -75l-246 -344l246 -347zM860 418l-274 370l274 371l82 -67l-223 -301l225 -304z" />
    <glyph glyph-name="guillemotright.case" 
d="M643 367l-82 75l244 344l-246 349l84 75l297 -422zM301 418l-82 67l223 301l-225 304l84 69l274 -371z" />
    <glyph glyph-name="guilsinglleft.case" 
d="M700 371l-319 417l319 418l84 -71l-268 -344l268 -345z" />
    <glyph glyph-name="guilsinglright.case" 
d="M461 371l-82 71l266 344l-268 349l84 71l319 -418z" />
    <glyph glyph-name="space.frac" 
 />
    <glyph glyph-name="uni030C.alt001" horiz-adv-x="0" 
d="M-637 1122l51 318h131l-77 -318h-105z" />
    <glyph glyph-name="uni0308.case" horiz-adv-x="0" 
d="M-756 1546q-40 0 -67 29t-27 72q0 44 26.5 73t67.5 29q40 0 66 -29t26 -73q0 -43 -26 -72t-66 -29zM-406 1546q-40 0 -66 29t-26 72q0 44 26 73t66 29q41 0 68 -29t27 -73q0 -43 -27.5 -72t-67.5 -29z" />
    <glyph glyph-name="uni0307.case" horiz-adv-x="0" 
d="M-555 1538q-43 0 -71.5 31.5t-28.5 77.5q0 47 28.5 78.5t71.5 31.5q46 0 74 -30.5t28 -79.5q0 -47 -29 -78t-73 -31z" />
    <glyph glyph-name="gravecomb.case" horiz-adv-x="0" 
d="M-399 1516l-418 137l-17 145l422 -172z" />
    <glyph glyph-name="acutecomb.case" horiz-adv-x="0" 
d="M-762 1516l12 110l422 172l-16 -145z" />
    <glyph glyph-name="uni030B.case" horiz-adv-x="0" 
d="M-774 1532l178 299h152l-207 -299h-123zM-539 1532l207 299h154l-238 -299h-123z" />
    <glyph glyph-name="uni0302.case" horiz-adv-x="0" 
d="M-932 1538l287 299h129l287 -299h-154l-199 209l-198 -209h-152z" />
    <glyph glyph-name="uni030C.case" horiz-adv-x="0" 
d="M-647 1538l-289 299h156l198 -209l199 209h150l-285 -299h-129z" />
    <glyph glyph-name="uni0306.case" horiz-adv-x="0" 
d="M-580 1538q-109 0 -172 80.5t-57 212.5h107q-5 -85 28 -133.5t94 -48.5q60 0 93 49.5t28 132.5h107q6 -132 -56.5 -212.5t-171.5 -80.5z" />
    <glyph glyph-name="uni030A.case" horiz-adv-x="0" 
d="M-580 1534q-91 0 -152 65t-61 162t61 162.5t152 65.5q89 0 150 -66t61 -162q0 -95 -61 -161t-150 -66zM-580 1638q44 0 76.5 36t32.5 87t-32.5 87t-76.5 36q-46 0 -77 -35.5t-31 -87.5t31 -87.5t77 -35.5z" />
    <glyph glyph-name="tildecomb.case" horiz-adv-x="0" 
d="M-465 1593q-28 0 -59 14t-43.5 23.5t-44.5 34.5q-57 47 -80 47q-28 0 -39 -27t-8 -88h-111q-3 109 37.5 169.5t116.5 60.5q28 0 59 -14t43.5 -23.5t44.5 -34.5q57 -47 80 -47q28 0 39 27t8 88h111q3 -109 -37.5 -169.5t-116.5 -60.5z" />
    <glyph glyph-name="uni0304.case" horiz-adv-x="0" 
d="M-823 1630v115h485v-115h-485z" />
    <glyph glyph-name="dotbelowcomb.case" horiz-adv-x="0" 
d="M-555 -197q-43 0 -71.5 31.5t-28.5 77.5q0 47 28.5 79t71.5 32q46 0 74 -30.5t28 -80.5q0 -47 -29 -78t-73 -31z" />
    <glyph glyph-name="uni0326.case" horiz-adv-x="0" 
d="M-573 -387l-86 65q76 85 88 197q-40 6 -64 33t-24 65q0 44 26 73.5t66 29.5q52 0 83 -46t31 -122q0 -78 -31 -155.5t-89 -139.5z" />
    <glyph glyph-name="uni0327.case" horiz-adv-x="0" 
d="M-688 -268v114h115q79 0 79 66q0 63 -79 63h-62v197h109v-94q69 -12 107 -55t38 -109q0 -83 -52 -132.5t-138 -49.5h-117z" />
    <glyph glyph-name="uni0328.case" horiz-adv-x="0" 
d="M-412 -268h-65q-103 0 -161 50.5t-58 139.5q0 78 44.5 136.5t119.5 113.5h96l10 -33q-82 -51 -120 -99.5t-38 -102.5q0 -91 113 -91h59v-114z" />
    <glyph glyph-name="uni032E.case" horiz-adv-x="0" 
d="M-580 -233q-109 0 -172 80t-57 212h107q-5 -85 28 -133.5t94 -48.5q60 0 93 49.5t28 132.5h107q6 -132 -56.5 -212t-171.5 -80z" />
    <glyph glyph-name="uni0331.case" horiz-adv-x="0" 
d="M-823 -145v114h485v-114h-485z" />
  </font>
</defs>
</svg>
